<svg width="1363" height="301" viewBox="0 0 1363 301" fill="none" xmlns="http://www.w3.org/2000/svg">
<g style="mix-blend-mode:exclusion">
<rect width="1363" height="301" rx="15" fill="white" fill-opacity="0.05"/>
</g>
<path d="M0 15C0 6.71573 6.71573 0 15 0H37V301H15C6.71573 301 0 294.284 0 286V15Z" fill="#032955"/>
<g style="mix-blend-mode:exclusion">
<path d="M113.914 104.898V144H104.488V104.898H113.914ZM125.677 104.898V112.176H92.9937V104.898H125.677ZM136.607 122.14V144H127.557V114.942H136.016L136.607 122.14ZM145.201 114.728L145.04 123.133C144.681 123.097 144.198 123.053 143.589 122.999C142.981 122.945 142.47 122.918 142.059 122.918C141.002 122.918 140.089 123.044 139.319 123.294C138.567 123.527 137.941 123.885 137.439 124.369C136.956 124.834 136.598 125.425 136.365 126.141C136.15 126.857 136.052 127.69 136.07 128.639L134.432 127.564C134.432 125.613 134.62 123.84 134.996 122.247C135.389 120.636 135.944 119.248 136.661 118.084C137.377 116.903 138.245 115.999 139.266 115.372C140.286 114.728 141.432 114.405 142.703 114.405C143.151 114.405 143.589 114.432 144.019 114.486C144.467 114.54 144.861 114.62 145.201 114.728ZM162.603 136.695V124.718C162.603 123.894 162.487 123.187 162.254 122.596C162.021 122.005 161.654 121.549 161.153 121.227C160.652 120.886 159.98 120.716 159.139 120.716C158.458 120.716 157.876 120.833 157.393 121.065C156.91 121.298 156.543 121.647 156.292 122.113C156.041 122.578 155.916 123.169 155.916 123.885H146.866C146.866 122.542 147.161 121.298 147.752 120.152C148.361 118.989 149.22 117.977 150.33 117.118C151.458 116.258 152.801 115.596 154.358 115.13C155.934 114.647 157.688 114.405 159.622 114.405C161.932 114.405 163.991 114.79 165.799 115.56C167.625 116.33 169.066 117.485 170.123 119.024C171.179 120.546 171.707 122.462 171.707 124.771V136.668C171.707 138.566 171.814 140.007 172.029 140.992C172.244 141.959 172.549 142.809 172.942 143.543V144H163.865C163.436 143.105 163.113 142.013 162.898 140.724C162.701 139.417 162.603 138.074 162.603 136.695ZM163.704 126.249L163.758 131.083H159.756C158.915 131.083 158.199 131.199 157.608 131.432C157.035 131.664 156.569 131.987 156.211 132.398C155.871 132.792 155.621 133.24 155.459 133.741C155.316 134.243 155.245 134.771 155.245 135.326C155.245 135.863 155.37 136.346 155.621 136.776C155.889 137.188 156.247 137.51 156.695 137.743C157.142 137.975 157.644 138.092 158.199 138.092C159.201 138.092 160.052 137.904 160.75 137.528C161.466 137.134 162.012 136.66 162.388 136.104C162.764 135.549 162.952 135.03 162.952 134.547L164.939 138.253C164.581 138.969 164.17 139.694 163.704 140.428C163.257 141.162 162.693 141.843 162.012 142.469C161.35 143.078 160.535 143.579 159.568 143.973C158.602 144.349 157.429 144.537 156.05 144.537C154.26 144.537 152.613 144.17 151.109 143.436C149.623 142.702 148.432 141.681 147.537 140.375C146.642 139.05 146.194 137.528 146.194 135.809C146.194 134.305 146.463 132.962 147 131.781C147.555 130.599 148.388 129.597 149.498 128.773C150.608 127.949 152.022 127.323 153.741 126.893C155.459 126.463 157.483 126.249 159.81 126.249H163.704ZM189.002 137.555C189.843 137.555 190.56 137.403 191.15 137.098C191.759 136.776 192.216 136.328 192.52 135.755C192.842 135.165 192.994 134.457 192.977 133.634H201.49C201.508 135.818 200.971 137.734 199.878 139.381C198.804 141.01 197.336 142.281 195.474 143.194C193.63 144.09 191.544 144.537 189.217 144.537C186.943 144.537 184.956 144.17 183.255 143.436C181.554 142.684 180.131 141.646 178.985 140.321C177.857 138.978 177.007 137.411 176.434 135.621C175.879 133.831 175.601 131.888 175.601 129.793V129.176C175.601 127.081 175.879 125.139 176.434 123.348C177.007 121.54 177.857 119.973 178.985 118.648C180.131 117.306 181.545 116.267 183.228 115.533C184.929 114.781 186.907 114.405 189.163 114.405C191.58 114.405 193.711 114.862 195.555 115.775C197.417 116.688 198.876 118.013 199.932 119.75C200.988 121.486 201.508 123.59 201.49 126.061H192.977C192.994 125.183 192.86 124.396 192.574 123.697C192.287 122.999 191.84 122.444 191.231 122.032C190.64 121.603 189.879 121.388 188.948 121.388C188.017 121.388 187.265 121.594 186.692 122.005C186.119 122.417 185.681 122.99 185.376 123.724C185.09 124.44 184.893 125.264 184.786 126.195C184.696 127.126 184.651 128.119 184.651 129.176V129.793C184.651 130.868 184.696 131.879 184.786 132.828C184.893 133.759 185.099 134.583 185.403 135.299C185.708 135.997 186.146 136.552 186.719 136.964C187.292 137.358 188.053 137.555 189.002 137.555ZM214.488 102.723V144H205.438V102.723H214.488ZM233.072 114.942L220.45 129.74L213.843 136.346L209.896 130.599L215.401 123.429L222.222 114.942H233.072ZM223.377 144L215.616 130.76L222.303 126.007L233.743 144H223.377ZM248.97 144.537C246.607 144.537 244.494 144.17 242.632 143.436C240.77 142.684 239.195 141.655 237.906 140.348C236.635 139.041 235.659 137.537 234.979 135.836C234.316 134.135 233.985 132.336 233.985 130.438V129.417C233.985 127.287 234.28 125.318 234.871 123.509C235.462 121.683 236.339 120.09 237.503 118.729C238.667 117.368 240.126 116.312 241.88 115.56C243.635 114.79 245.676 114.405 248.003 114.405C250.062 114.405 251.906 114.736 253.536 115.399C255.165 116.061 256.543 117.01 257.671 118.246C258.817 119.481 259.686 120.976 260.276 122.73C260.885 124.485 261.189 126.454 261.189 128.639V132.318H237.449V126.651H252.354V125.953C252.372 124.986 252.202 124.163 251.844 123.482C251.504 122.802 251.002 122.283 250.34 121.925C249.677 121.567 248.872 121.388 247.923 121.388C246.938 121.388 246.124 121.603 245.479 122.032C244.852 122.462 244.36 123.053 244.002 123.805C243.662 124.539 243.42 125.389 243.277 126.356C243.134 127.323 243.062 128.343 243.062 129.417V130.438C243.062 131.512 243.205 132.488 243.492 133.365C243.796 134.243 244.226 134.994 244.781 135.621C245.354 136.23 246.034 136.704 246.822 137.044C247.627 137.385 248.541 137.555 249.561 137.555C250.796 137.555 252.014 137.322 253.213 136.856C254.413 136.391 255.442 135.621 256.302 134.547L260.411 139.435C259.82 140.276 258.978 141.091 257.886 141.878C256.812 142.666 255.523 143.311 254.019 143.812C252.515 144.295 250.832 144.537 248.97 144.537ZM274 122.14V144H264.949V114.942H273.409L274 122.14ZM282.593 114.728L282.432 123.133C282.074 123.097 281.591 123.053 280.982 122.999C280.373 122.945 279.863 122.918 279.451 122.918C278.395 122.918 277.482 123.044 276.712 123.294C275.96 123.527 275.333 123.885 274.832 124.369C274.349 124.834 273.991 125.425 273.758 126.141C273.543 126.857 273.444 127.69 273.462 128.639L271.824 127.564C271.824 125.613 272.012 123.84 272.388 122.247C272.782 120.636 273.337 119.248 274.053 118.084C274.769 116.903 275.638 115.999 276.658 115.372C277.679 114.728 278.825 114.405 280.096 114.405C280.543 114.405 280.982 114.432 281.412 114.486C281.859 114.54 282.253 114.62 282.593 114.728Z" fill="white"/>
</g>
<g style="mix-blend-mode:exclusion">
<path d="M96.563 55.1172H100.904L107.295 73.3862L113.687 55.1172H118.028L109.039 80H105.552L96.563 55.1172ZM94.2217 55.1172H98.5454L99.3315 72.9248V80H94.2217V55.1172ZM116.045 55.1172H120.386V80H115.259V72.9248L116.045 55.1172ZM134.554 75.8301V67.5928C134.554 67.0003 134.457 66.4933 134.263 66.0718C134.069 65.6388 133.768 65.3027 133.357 65.0635C132.959 64.8242 132.44 64.7046 131.802 64.7046C131.255 64.7046 130.783 64.8014 130.384 64.9951C129.985 65.1774 129.677 65.4451 129.461 65.7983C129.244 66.1401 129.136 66.5446 129.136 67.0117H124.214C124.214 66.2256 124.397 65.4793 124.761 64.7729C125.126 64.0666 125.656 63.4456 126.351 62.9102C127.046 62.3633 127.872 61.936 128.829 61.6284C129.797 61.3208 130.879 61.167 132.076 61.167C133.511 61.167 134.787 61.4062 135.904 61.8848C137.02 62.3633 137.898 63.0811 138.536 64.0381C139.185 64.9951 139.51 66.1914 139.51 67.627V75.5396C139.51 76.5535 139.572 77.3853 139.698 78.0347C139.823 78.6727 140.005 79.231 140.245 79.7095V80H135.271C135.032 79.4987 134.85 78.8721 134.725 78.1201C134.611 77.3568 134.554 76.5934 134.554 75.8301ZM135.203 68.7378L135.237 71.5234H132.486C131.836 71.5234 131.272 71.5975 130.794 71.7456C130.315 71.8937 129.922 72.1045 129.615 72.3779C129.307 72.64 129.079 72.9476 128.931 73.3008C128.794 73.654 128.726 74.0413 128.726 74.4629C128.726 74.8844 128.823 75.2661 129.017 75.6079C129.21 75.9383 129.489 76.2004 129.854 76.394C130.219 76.5763 130.646 76.6675 131.136 76.6675C131.876 76.6675 132.52 76.5194 133.067 76.2231C133.614 75.9269 134.035 75.5623 134.332 75.1294C134.639 74.6965 134.799 74.2863 134.81 73.8989L136.109 75.9839C135.927 76.451 135.676 76.9352 135.357 77.4365C135.049 77.9378 134.656 78.4106 134.178 78.855C133.699 79.2879 133.124 79.6468 132.452 79.9316C131.779 80.2051 130.982 80.3418 130.059 80.3418C128.886 80.3418 127.82 80.1082 126.863 79.6411C125.918 79.1626 125.166 78.5075 124.607 77.6758C124.061 76.8327 123.787 75.8757 123.787 74.8047C123.787 73.8363 123.969 72.9761 124.334 72.2241C124.699 71.4722 125.234 70.8398 125.94 70.3271C126.658 69.8031 127.553 69.41 128.624 69.1479C129.694 68.8745 130.936 68.7378 132.349 68.7378H135.203ZM148.499 53.75V80H143.56V53.75H148.499ZM162.547 75.8301V67.5928C162.547 67.0003 162.45 66.4933 162.256 66.0718C162.063 65.6388 161.761 65.3027 161.351 65.0635C160.952 64.8242 160.433 64.7046 159.795 64.7046C159.249 64.7046 158.776 64.8014 158.377 64.9951C157.978 65.1774 157.671 65.4451 157.454 65.7983C157.238 66.1401 157.129 66.5446 157.129 67.0117H152.208C152.208 66.2256 152.39 65.4793 152.754 64.7729C153.119 64.0666 153.649 63.4456 154.344 62.9102C155.039 62.3633 155.865 61.936 156.822 61.6284C157.79 61.3208 158.873 61.167 160.069 61.167C161.504 61.167 162.78 61.4062 163.897 61.8848C165.014 62.3633 165.891 63.0811 166.529 64.0381C167.178 64.9951 167.503 66.1914 167.503 67.627V75.5396C167.503 76.5535 167.566 77.3853 167.691 78.0347C167.816 78.6727 167.999 79.231 168.238 79.7095V80H163.265C163.025 79.4987 162.843 78.8721 162.718 78.1201C162.604 77.3568 162.547 76.5934 162.547 75.8301ZM163.196 68.7378L163.23 71.5234H160.479C159.83 71.5234 159.266 71.5975 158.787 71.7456C158.309 71.8937 157.916 72.1045 157.608 72.3779C157.3 72.64 157.072 72.9476 156.924 73.3008C156.788 73.654 156.719 74.0413 156.719 74.4629C156.719 74.8844 156.816 75.2661 157.01 75.6079C157.203 75.9383 157.483 76.2004 157.847 76.394C158.212 76.5763 158.639 76.6675 159.129 76.6675C159.869 76.6675 160.513 76.5194 161.06 76.2231C161.607 75.9269 162.028 75.5623 162.325 75.1294C162.632 74.6965 162.792 74.2863 162.803 73.8989L164.102 75.9839C163.92 76.451 163.669 76.9352 163.35 77.4365C163.042 77.9378 162.649 78.4106 162.171 78.855C161.692 79.2879 161.117 79.6468 160.445 79.9316C159.773 80.2051 158.975 80.3418 158.052 80.3418C156.879 80.3418 155.813 80.1082 154.856 79.6411C153.911 79.1626 153.159 78.5075 152.601 77.6758C152.054 76.8327 151.78 75.8757 151.78 74.8047C151.78 73.8363 151.963 72.9761 152.327 72.2241C152.692 71.4722 153.227 70.8398 153.934 70.3271C154.651 69.8031 155.546 69.41 156.617 69.1479C157.688 68.8745 158.93 68.7378 160.342 68.7378H163.196ZM176.219 53.7329V80H171.297V53.7329H176.219ZM187.874 61.5088L179.842 70.6689L175.535 75.0269L173.741 71.4722L177.159 67.1313L181.961 61.5088H187.874ZM182.764 80L177.295 71.4551L180.696 68.4814L188.438 80H182.764ZM211.971 73.4888C211.971 73.0444 211.902 72.6457 211.766 72.2925C211.64 71.9279 211.401 71.5975 211.048 71.3013C210.695 70.9937 210.199 70.6917 209.561 70.3955C208.923 70.0993 208.097 69.7917 207.083 69.4727C205.955 69.1081 204.884 68.6979 203.87 68.2422C202.868 67.7865 201.979 67.2567 201.204 66.6528C200.441 66.0376 199.837 65.3255 199.393 64.5166C198.96 63.7077 198.743 62.7677 198.743 61.6968C198.743 60.66 198.971 59.7201 199.427 58.877C199.882 58.0225 200.521 57.2933 201.341 56.6895C202.161 56.0742 203.13 55.6014 204.246 55.271C205.374 54.9406 206.61 54.7754 207.955 54.7754C209.789 54.7754 211.39 55.1058 212.757 55.7666C214.124 56.4274 215.184 57.3332 215.936 58.4839C216.699 59.6346 217.081 60.9505 217.081 62.4316H211.988C211.988 61.7025 211.834 61.0645 211.526 60.5176C211.23 59.9593 210.774 59.5207 210.159 59.2017C209.555 58.8826 208.792 58.7231 207.869 58.7231C206.98 58.7231 206.24 58.8599 205.647 59.1333C205.055 59.3953 204.611 59.7542 204.314 60.21C204.018 60.6543 203.87 61.1556 203.87 61.7139C203.87 62.1354 203.973 62.5171 204.178 62.8589C204.394 63.2007 204.713 63.5197 205.135 63.8159C205.556 64.1121 206.075 64.3913 206.69 64.6533C207.305 64.9154 208.017 65.1717 208.826 65.4224C210.182 65.8325 211.373 66.2939 212.398 66.8066C213.435 67.3193 214.301 67.8947 214.996 68.5327C215.691 69.1707 216.215 69.8942 216.568 70.7031C216.921 71.512 217.098 72.4292 217.098 73.4546C217.098 74.5369 216.887 75.5054 216.465 76.3599C216.044 77.2144 215.434 77.9378 214.637 78.5303C213.839 79.1227 212.888 79.5728 211.783 79.8804C210.678 80.188 209.441 80.3418 208.074 80.3418C206.844 80.3418 205.63 80.1823 204.434 79.8633C203.238 79.5329 202.15 79.0373 201.17 78.3765C200.201 77.7157 199.427 76.8726 198.846 75.8472C198.265 74.8218 197.974 73.6084 197.974 72.207H203.118C203.118 72.9818 203.238 73.6369 203.477 74.1724C203.716 74.7078 204.052 75.1408 204.485 75.4712C204.93 75.8016 205.454 76.0409 206.058 76.189C206.673 76.3371 207.345 76.4111 208.074 76.4111C208.963 76.4111 209.692 76.2858 210.262 76.0352C210.843 75.7845 211.27 75.437 211.543 74.9927C211.828 74.5483 211.971 74.047 211.971 73.4888ZM225.079 53.75V80H220.157V53.75H225.079ZM224.378 70.105H223.028C223.039 68.8175 223.21 67.6326 223.541 66.5503C223.871 65.4565 224.344 64.5109 224.959 63.7134C225.574 62.9045 226.309 62.2778 227.164 61.8335C228.029 61.3892 228.986 61.167 230.035 61.167C230.946 61.167 231.772 61.298 232.513 61.5601C233.265 61.8107 233.908 62.2209 234.444 62.7905C234.991 63.3488 235.412 64.0837 235.708 64.9951C236.005 65.9066 236.153 67.0117 236.153 68.3105V80H231.197V68.2764C231.197 67.4561 231.077 66.8123 230.838 66.3452C230.61 65.8667 230.274 65.5306 229.83 65.3369C229.397 65.1318 228.861 65.0293 228.223 65.0293C227.517 65.0293 226.913 65.1603 226.412 65.4224C225.922 65.6844 225.529 66.049 225.232 66.5161C224.936 66.9718 224.72 67.5073 224.583 68.1226C224.446 68.7378 224.378 69.3986 224.378 70.105ZM249.876 75.8301V67.5928C249.876 67.0003 249.779 66.4933 249.585 66.0718C249.392 65.6388 249.09 65.3027 248.68 65.0635C248.281 64.8242 247.763 64.7046 247.125 64.7046C246.578 64.7046 246.105 64.8014 245.706 64.9951C245.307 65.1774 245 65.4451 244.783 65.7983C244.567 66.1401 244.458 66.5446 244.458 67.0117H239.537C239.537 66.2256 239.719 65.4793 240.083 64.7729C240.448 64.0666 240.978 63.4456 241.673 62.9102C242.368 62.3633 243.194 61.936 244.151 61.6284C245.119 61.3208 246.202 61.167 247.398 61.167C248.833 61.167 250.11 61.4062 251.226 61.8848C252.343 62.3633 253.22 63.0811 253.858 64.0381C254.507 64.9951 254.832 66.1914 254.832 67.627V75.5396C254.832 76.5535 254.895 77.3853 255.02 78.0347C255.145 78.6727 255.328 79.231 255.567 79.7095V80H250.594C250.354 79.4987 250.172 78.8721 250.047 78.1201C249.933 77.3568 249.876 76.5934 249.876 75.8301ZM250.525 68.7378L250.56 71.5234H247.808C247.159 71.5234 246.595 71.5975 246.116 71.7456C245.638 71.8937 245.245 72.1045 244.937 72.3779C244.629 72.64 244.402 72.9476 244.253 73.3008C244.117 73.654 244.048 74.0413 244.048 74.4629C244.048 74.8844 244.145 75.2661 244.339 75.6079C244.533 75.9383 244.812 76.2004 245.176 76.394C245.541 76.5763 245.968 76.6675 246.458 76.6675C247.199 76.6675 247.842 76.5194 248.389 76.2231C248.936 75.9269 249.358 75.5623 249.654 75.1294C249.961 74.6965 250.121 74.2863 250.132 73.8989L251.431 75.9839C251.249 76.451 250.998 76.9352 250.679 77.4365C250.372 77.9378 249.979 78.4106 249.5 78.855C249.021 79.2879 248.446 79.6468 247.774 79.9316C247.102 80.2051 246.304 80.3418 245.381 80.3418C244.208 80.3418 243.143 80.1082 242.186 79.6411C241.24 79.1626 240.488 78.5075 239.93 77.6758C239.383 76.8327 239.109 75.8757 239.109 74.8047C239.109 73.8363 239.292 72.9761 239.656 72.2241C240.021 71.4722 240.556 70.8398 241.263 70.3271C241.98 69.8031 242.875 69.41 243.946 69.1479C245.017 68.8745 246.259 68.7378 247.671 68.7378H250.525ZM267.137 80.3418C265.701 80.3418 264.414 80.1139 263.274 79.6582C262.135 79.1911 261.167 78.5474 260.369 77.7271C259.583 76.9067 258.979 75.9554 258.558 74.873C258.136 73.7793 257.925 72.6172 257.925 71.3867V70.7031C257.925 69.3018 258.125 68.02 258.523 66.8579C258.922 65.6958 259.492 64.6875 260.232 63.833C260.984 62.9785 261.896 62.3234 262.967 61.8677C264.038 61.4006 265.245 61.167 266.59 61.167C267.9 61.167 269.062 61.3835 270.076 61.8164C271.09 62.2493 271.939 62.8646 272.623 63.6621C273.318 64.4596 273.842 65.4167 274.195 66.5332C274.548 67.6383 274.725 68.8688 274.725 70.2246V72.2754H260.027V68.9941H269.888V68.6182C269.888 67.9346 269.763 67.325 269.512 66.7896C269.273 66.2427 268.908 65.8097 268.418 65.4907C267.929 65.1717 267.302 65.0122 266.539 65.0122C265.889 65.0122 265.331 65.1546 264.864 65.4395C264.397 65.7243 264.015 66.123 263.719 66.6357C263.434 67.1484 263.217 67.7523 263.069 68.4473C262.933 69.1309 262.864 69.8828 262.864 70.7031V71.3867C262.864 72.1273 262.967 72.8109 263.172 73.4375C263.388 74.0641 263.69 74.6053 264.078 75.061C264.476 75.5168 264.955 75.87 265.513 76.1206C266.083 76.3713 266.727 76.4966 267.444 76.4966C268.333 76.4966 269.159 76.3257 269.922 75.9839C270.697 75.6307 271.364 75.1009 271.922 74.3945L274.314 76.9922C273.927 77.5505 273.397 78.0859 272.725 78.5986C272.064 79.1113 271.267 79.5329 270.333 79.8633C269.398 80.1823 268.333 80.3418 267.137 80.3418ZM282.449 65.542V80H277.527V61.5088H282.159L282.449 65.542ZM288.021 61.3892L287.935 65.9521C287.696 65.918 287.405 65.8895 287.063 65.8667C286.733 65.8325 286.431 65.8154 286.158 65.8154C285.463 65.8154 284.859 65.9066 284.346 66.0889C283.845 66.2598 283.423 66.5161 283.082 66.8579C282.751 67.1997 282.5 67.6156 282.33 68.1055C282.17 68.5954 282.079 69.1536 282.056 69.7803L281.065 69.4727C281.065 68.2764 281.185 67.1769 281.424 66.1743C281.663 65.1603 282.011 64.2773 282.466 63.5254C282.933 62.7734 283.503 62.1924 284.175 61.7822C284.847 61.3721 285.617 61.167 286.482 61.167C286.756 61.167 287.035 61.1898 287.32 61.2354C287.605 61.2695 287.838 61.3208 288.021 61.3892Z" fill="white" fill-opacity="0.5"/>
</g>
<g style="mix-blend-mode:exclusion">
<rect x="92" y="181" width="1179" height="80" rx="13.3333" fill="white" fill-opacity="0.1"/>
</g>
<g style="mix-blend-mode:exclusion">
<rect x="105" y="194.333" width="212" height="53.3333" rx="6.66667" fill="white" fill-opacity="0.35"/>
</g>
<path d="M171.823 213.167H177.792C178.958 213.167 179.972 213.34 180.833 213.687C181.694 214.035 182.358 214.549 182.823 215.229C183.295 215.91 183.531 216.75 183.531 217.75C183.531 218.618 183.396 219.344 183.125 219.927C182.854 220.51 182.476 220.993 181.99 221.375C181.51 221.75 180.951 222.059 180.312 222.302L179.115 222.979H174.104L174.083 220.156H177.792C178.257 220.156 178.642 220.073 178.948 219.906C179.253 219.74 179.483 219.503 179.635 219.198C179.795 218.885 179.875 218.514 179.875 218.083C179.875 217.646 179.795 217.271 179.635 216.958C179.476 216.646 179.24 216.406 178.927 216.24C178.622 216.073 178.243 215.99 177.792 215.99H175.479V228.333H171.823V213.167ZM180.125 228.333L176.771 221.625L180.646 221.604L184.042 228.177V228.333H180.125ZM191.031 228.542C190.115 228.542 189.295 228.399 188.573 228.115C187.851 227.823 187.24 227.424 186.74 226.917C186.247 226.41 185.868 225.826 185.604 225.167C185.347 224.507 185.219 223.809 185.219 223.073V222.677C185.219 221.851 185.333 221.087 185.562 220.385C185.792 219.677 186.132 219.059 186.583 218.531C187.035 218.003 187.601 217.594 188.281 217.302C188.962 217.003 189.753 216.854 190.656 216.854C191.455 216.854 192.17 216.983 192.802 217.24C193.434 217.497 193.969 217.865 194.406 218.344C194.851 218.823 195.187 219.403 195.417 220.083C195.653 220.764 195.771 221.528 195.771 222.375V223.802H186.562V221.604H192.344V221.333C192.351 220.958 192.285 220.639 192.146 220.375C192.014 220.111 191.819 219.91 191.562 219.771C191.306 219.632 190.993 219.562 190.625 219.562C190.243 219.562 189.927 219.646 189.677 219.812C189.434 219.979 189.243 220.208 189.104 220.5C188.972 220.785 188.878 221.115 188.823 221.49C188.767 221.865 188.74 222.26 188.74 222.677V223.073C188.74 223.49 188.795 223.868 188.906 224.208C189.024 224.549 189.191 224.84 189.406 225.083C189.628 225.319 189.892 225.503 190.198 225.635C190.51 225.767 190.865 225.833 191.26 225.833C191.74 225.833 192.212 225.743 192.677 225.562C193.142 225.382 193.542 225.083 193.875 224.667L195.469 226.562C195.24 226.889 194.913 227.205 194.49 227.51C194.073 227.816 193.573 228.066 192.99 228.26C192.406 228.448 191.753 228.542 191.031 228.542ZM203.052 225.5V220.854C203.052 220.535 203.007 220.26 202.917 220.031C202.826 219.802 202.684 219.625 202.49 219.5C202.295 219.368 202.035 219.302 201.708 219.302C201.444 219.302 201.219 219.347 201.031 219.437C200.844 219.528 200.701 219.663 200.604 219.844C200.507 220.024 200.458 220.253 200.458 220.531H196.948C196.948 220.01 197.062 219.528 197.292 219.083C197.528 218.632 197.861 218.24 198.292 217.906C198.729 217.573 199.25 217.316 199.854 217.135C200.465 216.948 201.146 216.854 201.896 216.854C202.792 216.854 203.59 217.003 204.292 217.302C205 217.601 205.559 218.049 205.969 218.646C206.378 219.236 206.583 219.979 206.583 220.875V225.49C206.583 226.226 206.625 226.785 206.708 227.167C206.792 227.542 206.91 227.872 207.062 228.156V228.333H203.542C203.375 227.986 203.25 227.562 203.167 227.062C203.09 226.556 203.052 226.035 203.052 225.5ZM203.479 221.448L203.5 223.323H201.948C201.622 223.323 201.344 223.368 201.115 223.458C200.892 223.549 200.712 223.674 200.573 223.833C200.441 223.986 200.344 224.16 200.281 224.354C200.226 224.549 200.198 224.753 200.198 224.969C200.198 225.177 200.247 225.365 200.344 225.531C200.448 225.691 200.587 225.816 200.76 225.906C200.934 225.997 201.128 226.042 201.344 226.042C201.733 226.042 202.062 225.969 202.333 225.823C202.611 225.67 202.823 225.486 202.969 225.271C203.115 225.056 203.187 224.854 203.187 224.667L203.958 226.104C203.819 226.382 203.66 226.663 203.479 226.948C203.306 227.233 203.087 227.497 202.823 227.74C202.566 227.976 202.25 228.17 201.875 228.323C201.5 228.469 201.045 228.542 200.51 228.542C199.816 228.542 199.177 228.399 198.594 228.115C198.017 227.83 197.556 227.434 197.208 226.927C196.861 226.413 196.687 225.823 196.687 225.156C196.687 224.573 196.792 224.052 197 223.594C197.215 223.135 197.538 222.747 197.969 222.427C198.399 222.108 198.948 221.865 199.615 221.698C200.281 221.531 201.066 221.448 201.969 221.448H203.479ZM213.292 225.833C213.618 225.833 213.896 225.774 214.125 225.656C214.361 225.531 214.538 225.358 214.656 225.135C214.781 224.906 214.84 224.632 214.833 224.312H218.135C218.142 225.16 217.934 225.903 217.51 226.542C217.094 227.174 216.524 227.667 215.802 228.021C215.087 228.368 214.278 228.542 213.375 228.542C212.493 228.542 211.722 228.399 211.062 228.115C210.403 227.823 209.851 227.42 209.406 226.906C208.969 226.385 208.639 225.778 208.417 225.083C208.201 224.389 208.094 223.635 208.094 222.823V222.583C208.094 221.771 208.201 221.017 208.417 220.323C208.639 219.622 208.969 219.014 209.406 218.5C209.851 217.979 210.399 217.576 211.052 217.292C211.712 217 212.479 216.854 213.354 216.854C214.292 216.854 215.118 217.031 215.833 217.385C216.556 217.74 217.122 218.253 217.531 218.927C217.941 219.601 218.142 220.417 218.135 221.375H214.833C214.84 221.035 214.788 220.729 214.677 220.458C214.566 220.187 214.392 219.972 214.156 219.812C213.927 219.646 213.632 219.562 213.271 219.562C212.91 219.562 212.618 219.642 212.396 219.802C212.174 219.962 212.003 220.184 211.885 220.469C211.774 220.747 211.698 221.066 211.656 221.427C211.622 221.788 211.604 222.174 211.604 222.583V222.823C211.604 223.24 211.622 223.632 211.656 224C211.698 224.361 211.778 224.681 211.896 224.958C212.014 225.229 212.184 225.444 212.406 225.604C212.628 225.757 212.924 225.833 213.292 225.833ZM225.573 217.062V219.5H218.781V217.062H225.573ZM220.208 214.26H223.719V224.656C223.719 224.955 223.753 225.187 223.823 225.354C223.892 225.514 224.01 225.628 224.177 225.698C224.351 225.76 224.58 225.792 224.865 225.792C225.066 225.792 225.233 225.788 225.365 225.781C225.497 225.767 225.622 225.75 225.74 225.729V228.24C225.441 228.337 225.128 228.41 224.802 228.458C224.476 228.514 224.128 228.542 223.76 228.542C223.01 228.542 222.368 228.424 221.833 228.187C221.306 227.951 220.903 227.58 220.625 227.073C220.347 226.566 220.208 225.906 220.208 225.094V214.26ZM233.167 223.573V213.167H236.812V223.573C236.812 224.587 236.58 225.465 236.115 226.208C235.656 226.951 235.031 227.528 234.24 227.937C233.455 228.34 232.573 228.542 231.594 228.542C230.58 228.542 229.677 228.372 228.885 228.031C228.101 227.691 227.483 227.167 227.031 226.458C226.587 225.75 226.365 224.847 226.365 223.75H230.031C230.031 224.264 230.09 224.667 230.208 224.958C230.326 225.243 230.5 225.444 230.729 225.562C230.965 225.674 231.253 225.729 231.594 225.729C231.927 225.729 232.208 225.646 232.437 225.479C232.674 225.306 232.854 225.059 232.979 224.74C233.104 224.413 233.167 224.024 233.167 223.573ZM246.948 224.302C246.948 224.066 246.913 223.854 246.844 223.667C246.774 223.472 246.646 223.292 246.458 223.125C246.271 222.958 246 222.792 245.646 222.625C245.299 222.451 244.84 222.271 244.271 222.083C243.604 221.861 242.962 221.611 242.344 221.333C241.726 221.049 241.174 220.719 240.687 220.344C240.201 219.962 239.816 219.517 239.531 219.01C239.247 218.497 239.104 217.899 239.104 217.219C239.104 216.566 239.25 215.979 239.542 215.458C239.833 214.931 240.24 214.483 240.76 214.115C241.288 213.74 241.906 213.455 242.615 213.26C243.323 213.059 244.097 212.958 244.937 212.958C246.049 212.958 247.028 213.153 247.875 213.542C248.729 213.924 249.396 214.469 249.875 215.177C250.361 215.878 250.604 216.708 250.604 217.667H246.969C246.969 217.285 246.889 216.948 246.729 216.656C246.576 216.365 246.344 216.135 246.031 215.969C245.719 215.802 245.326 215.719 244.854 215.719C244.396 215.719 244.01 215.788 243.698 215.927C243.385 216.066 243.149 216.253 242.99 216.49C242.83 216.719 242.75 216.972 242.75 217.25C242.75 217.479 242.812 217.687 242.937 217.875C243.069 218.056 243.253 218.226 243.49 218.385C243.733 218.545 244.024 218.698 244.365 218.844C244.712 218.99 245.101 219.132 245.531 219.271C246.337 219.528 247.052 219.816 247.677 220.135C248.309 220.448 248.84 220.806 249.271 221.208C249.708 221.604 250.038 222.056 250.26 222.562C250.49 223.069 250.604 223.642 250.604 224.281C250.604 224.962 250.472 225.566 250.208 226.094C249.944 226.622 249.566 227.069 249.073 227.437C248.58 227.799 247.99 228.073 247.302 228.26C246.615 228.448 245.847 228.542 245 228.542C244.222 228.542 243.455 228.444 242.698 228.25C241.948 228.049 241.267 227.743 240.656 227.333C240.045 226.917 239.556 226.385 239.187 225.74C238.826 225.087 238.646 224.312 238.646 223.417H242.312C242.312 223.861 242.372 224.236 242.49 224.542C242.608 224.847 242.781 225.094 243.01 225.281C243.24 225.462 243.521 225.594 243.854 225.677C244.187 225.753 244.569 225.792 245 225.792C245.465 225.792 245.84 225.726 246.125 225.594C246.41 225.455 246.618 225.274 246.75 225.052C246.882 224.823 246.948 224.573 246.948 224.302Z" fill="white"/>
<g style="mix-blend-mode:exclusion">
<rect x="337" y="194.333" width="212" height="53.3333" rx="6.66667" fill="white" fill-opacity="0.35"/>
</g>
<path d="M418.844 213.167V228.333H415.198L409.833 218.896V228.333H406.177V213.167H409.833L415.198 222.604V213.167H418.844ZM420.552 222.812V222.594C420.552 221.767 420.67 221.007 420.906 220.312C421.142 219.611 421.49 219.003 421.948 218.49C422.406 217.976 422.972 217.576 423.646 217.292C424.319 217 425.097 216.854 425.979 216.854C426.868 216.854 427.649 217 428.323 217.292C429.003 217.576 429.573 217.976 430.031 218.49C430.49 219.003 430.837 219.611 431.073 220.312C431.309 221.007 431.427 221.767 431.427 222.594V222.812C431.427 223.632 431.309 224.392 431.073 225.094C430.837 225.788 430.49 226.396 430.031 226.917C429.573 227.431 429.007 227.83 428.333 228.115C427.66 228.399 426.882 228.542 426 228.542C425.118 228.542 424.337 228.399 423.656 228.115C422.976 227.83 422.406 227.431 421.948 226.917C421.49 226.396 421.142 225.788 420.906 225.094C420.67 224.392 420.552 223.632 420.552 222.812ZM424.062 222.594V222.812C424.062 223.236 424.094 223.632 424.156 224C424.219 224.368 424.323 224.691 424.469 224.969C424.615 225.24 424.812 225.451 425.062 225.604C425.312 225.757 425.625 225.833 426 225.833C426.368 225.833 426.674 225.757 426.917 225.604C427.167 225.451 427.365 225.24 427.51 224.969C427.656 224.691 427.76 224.368 427.823 224C427.885 223.632 427.917 223.236 427.917 222.812V222.594C427.917 222.184 427.885 221.799 427.823 221.437C427.76 221.069 427.656 220.747 427.51 220.469C427.365 220.184 427.167 219.962 426.917 219.802C426.667 219.642 426.354 219.562 425.979 219.562C425.611 219.562 425.302 219.642 425.052 219.802C424.809 219.962 424.615 220.184 424.469 220.469C424.323 220.747 424.219 221.069 424.156 221.437C424.094 221.799 424.062 222.184 424.062 222.594ZM439.469 225.75V212.333H443V228.333H439.833L439.469 225.75ZM432.552 222.833V222.615C432.552 221.76 432.646 220.983 432.833 220.281C433.021 219.573 433.299 218.965 433.667 218.458C434.035 217.944 434.493 217.549 435.042 217.271C435.59 216.993 436.222 216.854 436.938 216.854C437.576 216.854 438.135 217.003 438.615 217.302C439.094 217.594 439.503 218.003 439.844 218.531C440.184 219.059 440.462 219.677 440.677 220.385C440.892 221.087 441.056 221.844 441.167 222.656V222.917C441.056 223.681 440.892 224.403 440.677 225.083C440.462 225.757 440.184 226.354 439.844 226.875C439.503 227.396 439.09 227.806 438.604 228.104C438.125 228.396 437.563 228.542 436.917 228.542C436.201 228.542 435.569 228.399 435.021 228.115C434.479 227.83 434.024 227.431 433.656 226.917C433.295 226.403 433.021 225.799 432.833 225.104C432.646 224.41 432.552 223.653 432.552 222.833ZM436.063 222.615V222.833C436.063 223.257 436.09 223.649 436.146 224.01C436.201 224.372 436.295 224.691 436.427 224.969C436.566 225.24 436.747 225.451 436.969 225.604C437.198 225.757 437.479 225.833 437.813 225.833C438.264 225.833 438.635 225.726 438.927 225.51C439.226 225.295 439.444 224.99 439.583 224.594C439.729 224.198 439.792 223.733 439.771 223.198V222.375C439.785 221.917 439.753 221.514 439.677 221.167C439.601 220.812 439.479 220.517 439.313 220.281C439.153 220.045 438.948 219.868 438.698 219.75C438.455 219.625 438.167 219.562 437.833 219.562C437.507 219.562 437.229 219.639 437 219.792C436.778 219.944 436.597 220.16 436.458 220.437C436.319 220.708 436.219 221.031 436.156 221.406C436.094 221.774 436.063 222.177 436.063 222.615ZM450.448 228.542C449.531 228.542 448.712 228.399 447.99 228.115C447.267 227.823 446.656 227.424 446.156 226.917C445.663 226.41 445.285 225.826 445.021 225.167C444.764 224.507 444.635 223.809 444.635 223.073V222.677C444.635 221.851 444.75 221.087 444.979 220.385C445.208 219.677 445.549 219.059 446 218.531C446.451 218.003 447.017 217.594 447.698 217.302C448.378 217.003 449.17 216.854 450.073 216.854C450.872 216.854 451.587 216.983 452.219 217.24C452.851 217.497 453.385 217.865 453.823 218.344C454.267 218.823 454.604 219.403 454.833 220.083C455.069 220.764 455.188 221.528 455.188 222.375V223.802H445.979V221.604H451.76V221.333C451.767 220.958 451.701 220.639 451.563 220.375C451.431 220.111 451.236 219.91 450.979 219.771C450.722 219.632 450.41 219.562 450.042 219.562C449.66 219.562 449.344 219.646 449.094 219.812C448.851 219.979 448.66 220.208 448.521 220.5C448.389 220.785 448.295 221.115 448.24 221.49C448.184 221.865 448.156 222.26 448.156 222.677V223.073C448.156 223.49 448.212 223.868 448.323 224.208C448.441 224.549 448.608 224.84 448.823 225.083C449.045 225.319 449.309 225.503 449.615 225.635C449.927 225.767 450.281 225.833 450.677 225.833C451.156 225.833 451.628 225.743 452.094 225.562C452.559 225.382 452.958 225.083 453.292 224.667L454.885 226.562C454.656 226.889 454.33 227.205 453.906 227.51C453.49 227.816 452.99 228.066 452.406 228.26C451.823 228.448 451.17 228.542 450.448 228.542ZM462.813 223.573V213.167H466.458V223.573C466.458 224.587 466.226 225.465 465.76 226.208C465.302 226.951 464.677 227.528 463.885 227.937C463.101 228.34 462.219 228.542 461.24 228.542C460.226 228.542 459.323 228.372 458.531 228.031C457.747 227.691 457.128 227.167 456.677 226.458C456.233 225.75 456.01 224.847 456.01 223.75H459.677C459.677 224.264 459.736 224.667 459.854 224.958C459.972 225.243 460.146 225.444 460.375 225.562C460.611 225.674 460.899 225.729 461.24 225.729C461.573 225.729 461.854 225.646 462.083 225.479C462.319 225.306 462.5 225.059 462.625 224.74C462.75 224.413 462.813 224.024 462.813 223.573ZM476.594 224.302C476.594 224.066 476.559 223.854 476.49 223.667C476.42 223.472 476.292 223.292 476.104 223.125C475.917 222.958 475.646 222.792 475.292 222.625C474.944 222.451 474.486 222.271 473.917 222.083C473.25 221.861 472.608 221.611 471.99 221.333C471.372 221.049 470.819 220.719 470.333 220.344C469.847 219.962 469.462 219.517 469.177 219.01C468.892 218.497 468.75 217.899 468.75 217.219C468.75 216.566 468.896 215.979 469.188 215.458C469.479 214.931 469.885 214.483 470.406 214.115C470.934 213.74 471.552 213.455 472.26 213.26C472.969 213.059 473.743 212.958 474.583 212.958C475.694 212.958 476.674 213.153 477.521 213.542C478.375 213.924 479.042 214.469 479.521 215.177C480.007 215.878 480.25 216.708 480.25 217.667H476.615C476.615 217.285 476.535 216.948 476.375 216.656C476.222 216.365 475.99 216.135 475.677 215.969C475.365 215.802 474.972 215.719 474.5 215.719C474.042 215.719 473.656 215.788 473.344 215.927C473.031 216.066 472.795 216.253 472.635 216.49C472.476 216.719 472.396 216.972 472.396 217.25C472.396 217.479 472.458 217.687 472.583 217.875C472.715 218.056 472.899 218.226 473.135 218.385C473.378 218.545 473.67 218.698 474.01 218.844C474.358 218.99 474.747 219.132 475.177 219.271C475.983 219.528 476.698 219.816 477.323 220.135C477.955 220.448 478.486 220.806 478.917 221.208C479.354 221.604 479.684 222.056 479.906 222.562C480.135 223.069 480.25 223.642 480.25 224.281C480.25 224.962 480.118 225.566 479.854 226.094C479.59 226.622 479.212 227.069 478.719 227.437C478.226 227.799 477.635 228.073 476.948 228.26C476.26 228.448 475.493 228.542 474.646 228.542C473.868 228.542 473.101 228.444 472.344 228.25C471.594 228.049 470.913 227.743 470.302 227.333C469.691 226.917 469.201 226.385 468.833 225.74C468.472 225.087 468.292 224.312 468.292 223.417H471.958C471.958 223.861 472.017 224.236 472.135 224.542C472.253 224.847 472.427 225.094 472.656 225.281C472.885 225.462 473.167 225.594 473.5 225.677C473.833 225.753 474.215 225.792 474.646 225.792C475.111 225.792 475.486 225.726 475.771 225.594C476.056 225.455 476.264 225.274 476.396 225.052C476.528 224.823 476.594 224.573 476.594 224.302Z" fill="white"/>
<g style="mix-blend-mode:exclusion">
<rect x="569" y="194.333" width="212" height="53.3333" rx="6.66667" fill="white" fill-opacity="0.35"/>
</g>
<path d="M614.833 213.167H620.802C621.969 213.167 622.983 213.34 623.844 213.687C624.705 214.035 625.368 214.549 625.833 215.229C626.306 215.91 626.542 216.75 626.542 217.75C626.542 218.618 626.406 219.344 626.135 219.927C625.865 220.51 625.486 220.993 625 221.375C624.521 221.75 623.962 222.059 623.323 222.302L622.125 222.979H617.115L617.094 220.156H620.802C621.267 220.156 621.653 220.073 621.958 219.906C622.264 219.74 622.493 219.503 622.646 219.198C622.806 218.885 622.885 218.514 622.885 218.083C622.885 217.646 622.806 217.271 622.646 216.958C622.486 216.646 622.25 216.406 621.937 216.24C621.632 216.073 621.253 215.99 620.802 215.99H618.49V228.333H614.833V213.167ZM623.135 228.333L619.781 221.625L623.656 221.604L627.052 228.177V228.333H623.135ZM634.042 228.542C633.125 228.542 632.306 228.399 631.583 228.115C630.861 227.823 630.25 227.424 629.75 226.917C629.257 226.41 628.878 225.826 628.615 225.167C628.358 224.507 628.229 223.809 628.229 223.073V222.677C628.229 221.851 628.344 221.087 628.573 220.385C628.802 219.677 629.142 219.059 629.594 218.531C630.045 218.003 630.611 217.594 631.292 217.302C631.972 217.003 632.764 216.854 633.667 216.854C634.465 216.854 635.181 216.983 635.813 217.24C636.444 217.497 636.979 217.865 637.417 218.344C637.861 218.823 638.198 219.403 638.427 220.083C638.663 220.764 638.781 221.528 638.781 222.375V223.802H629.573V221.604H635.354V221.333C635.361 220.958 635.295 220.639 635.156 220.375C635.024 220.111 634.83 219.91 634.573 219.771C634.316 219.632 634.003 219.562 633.635 219.562C633.253 219.562 632.938 219.646 632.688 219.812C632.444 219.979 632.253 220.208 632.115 220.5C631.983 220.785 631.889 221.115 631.833 221.49C631.778 221.865 631.75 222.26 631.75 222.677V223.073C631.75 223.49 631.806 223.868 631.917 224.208C632.035 224.549 632.201 224.84 632.417 225.083C632.639 225.319 632.903 225.503 633.208 225.635C633.521 225.767 633.875 225.833 634.271 225.833C634.75 225.833 635.222 225.743 635.688 225.562C636.153 225.382 636.552 225.083 636.885 224.667L638.479 226.562C638.25 226.889 637.924 227.205 637.5 227.51C637.083 227.816 636.583 228.066 636 228.26C635.417 228.448 634.764 228.542 634.042 228.542ZM646.063 225.5V220.854C646.063 220.535 646.017 220.26 645.927 220.031C645.837 219.802 645.694 219.625 645.5 219.5C645.306 219.368 645.045 219.302 644.719 219.302C644.455 219.302 644.229 219.347 644.042 219.437C643.854 219.528 643.712 219.663 643.615 219.844C643.517 220.024 643.469 220.253 643.469 220.531H639.958C639.958 220.01 640.073 219.528 640.302 219.083C640.538 218.632 640.872 218.24 641.302 217.906C641.74 217.573 642.26 217.316 642.865 217.135C643.476 216.948 644.156 216.854 644.906 216.854C645.802 216.854 646.601 217.003 647.302 217.302C648.01 217.601 648.569 218.049 648.979 218.646C649.389 219.236 649.594 219.979 649.594 220.875V225.49C649.594 226.226 649.635 226.785 649.719 227.167C649.802 227.542 649.92 227.872 650.073 228.156V228.333H646.552C646.385 227.986 646.26 227.562 646.177 227.062C646.101 226.556 646.063 226.035 646.063 225.5ZM646.49 221.448L646.51 223.323H644.958C644.632 223.323 644.354 223.368 644.125 223.458C643.903 223.549 643.722 223.674 643.583 223.833C643.451 223.986 643.354 224.16 643.292 224.354C643.236 224.549 643.208 224.753 643.208 224.969C643.208 225.177 643.257 225.365 643.354 225.531C643.458 225.691 643.597 225.816 643.771 225.906C643.944 225.997 644.139 226.042 644.354 226.042C644.743 226.042 645.073 225.969 645.344 225.823C645.622 225.67 645.833 225.486 645.979 225.271C646.125 225.056 646.198 224.854 646.198 224.667L646.969 226.104C646.83 226.382 646.67 226.663 646.49 226.948C646.316 227.233 646.097 227.497 645.833 227.74C645.576 227.976 645.26 228.17 644.885 228.323C644.51 228.469 644.056 228.542 643.521 228.542C642.826 228.542 642.188 228.399 641.604 228.115C641.028 227.83 640.566 227.434 640.219 226.927C639.872 226.413 639.698 225.823 639.698 225.156C639.698 224.573 639.802 224.052 640.01 223.594C640.226 223.135 640.549 222.747 640.979 222.427C641.41 222.108 641.958 221.865 642.625 221.698C643.292 221.531 644.076 221.448 644.979 221.448H646.49ZM656.302 225.833C656.628 225.833 656.906 225.774 657.135 225.656C657.372 225.531 657.549 225.358 657.667 225.135C657.792 224.906 657.851 224.632 657.844 224.312H661.146C661.153 225.16 660.944 225.903 660.521 226.542C660.104 227.174 659.535 227.667 658.812 228.021C658.097 228.368 657.288 228.542 656.385 228.542C655.503 228.542 654.733 228.399 654.073 228.115C653.413 227.823 652.861 227.42 652.417 226.906C651.979 226.385 651.649 225.778 651.427 225.083C651.212 224.389 651.104 223.635 651.104 222.823V222.583C651.104 221.771 651.212 221.017 651.427 220.323C651.649 219.622 651.979 219.014 652.417 218.5C652.861 217.979 653.41 217.576 654.062 217.292C654.722 217 655.49 216.854 656.365 216.854C657.302 216.854 658.128 217.031 658.844 217.385C659.566 217.74 660.132 218.253 660.542 218.927C660.951 219.601 661.153 220.417 661.146 221.375H657.844C657.851 221.035 657.799 220.729 657.687 220.458C657.576 220.187 657.403 219.972 657.167 219.812C656.937 219.646 656.642 219.562 656.281 219.562C655.92 219.562 655.628 219.642 655.406 219.802C655.184 219.962 655.014 220.184 654.896 220.469C654.785 220.747 654.708 221.066 654.667 221.427C654.632 221.788 654.615 222.174 654.615 222.583V222.823C654.615 223.24 654.632 223.632 654.667 224C654.708 224.361 654.788 224.681 654.906 224.958C655.024 225.229 655.194 225.444 655.417 225.604C655.639 225.757 655.934 225.833 656.302 225.833ZM668.583 217.062V219.5H661.792V217.062H668.583ZM663.219 214.26H666.729V224.656C666.729 224.955 666.764 225.187 666.833 225.354C666.903 225.514 667.021 225.628 667.188 225.698C667.361 225.76 667.59 225.792 667.875 225.792C668.076 225.792 668.243 225.788 668.375 225.781C668.507 225.767 668.632 225.75 668.75 225.729V228.24C668.451 228.337 668.139 228.41 667.813 228.458C667.486 228.514 667.139 228.542 666.771 228.542C666.021 228.542 665.378 228.424 664.844 228.187C664.316 227.951 663.913 227.58 663.635 227.073C663.358 226.566 663.219 225.906 663.219 225.094V214.26ZM688.125 213.167V228.333H684.479L679.115 218.896V228.333H675.458V213.167H679.115L684.479 222.604V213.167H688.125ZM696.125 225.5V220.854C696.125 220.535 696.08 220.26 695.99 220.031C695.899 219.802 695.757 219.625 695.563 219.5C695.368 219.368 695.108 219.302 694.781 219.302C694.517 219.302 694.292 219.347 694.104 219.437C693.917 219.528 693.774 219.663 693.677 219.844C693.58 220.024 693.531 220.253 693.531 220.531H690.021C690.021 220.01 690.135 219.528 690.365 219.083C690.601 218.632 690.934 218.24 691.365 217.906C691.802 217.573 692.323 217.316 692.927 217.135C693.538 216.948 694.219 216.854 694.969 216.854C695.865 216.854 696.663 217.003 697.365 217.302C698.073 217.601 698.632 218.049 699.042 218.646C699.451 219.236 699.656 219.979 699.656 220.875V225.49C699.656 226.226 699.698 226.785 699.781 227.167C699.865 227.542 699.983 227.872 700.135 228.156V228.333H696.615C696.448 227.986 696.323 227.562 696.24 227.062C696.163 226.556 696.125 226.035 696.125 225.5ZM696.552 221.448L696.573 223.323H695.021C694.694 223.323 694.417 223.368 694.188 223.458C693.965 223.549 693.785 223.674 693.646 223.833C693.514 223.986 693.417 224.16 693.354 224.354C693.299 224.549 693.271 224.753 693.271 224.969C693.271 225.177 693.319 225.365 693.417 225.531C693.521 225.691 693.66 225.816 693.833 225.906C694.007 225.997 694.201 226.042 694.417 226.042C694.806 226.042 695.135 225.969 695.406 225.823C695.684 225.67 695.896 225.486 696.042 225.271C696.188 225.056 696.26 224.854 696.26 224.667L697.031 226.104C696.892 226.382 696.733 226.663 696.552 226.948C696.378 227.233 696.16 227.497 695.896 227.74C695.639 227.976 695.323 228.17 694.948 228.323C694.573 228.469 694.118 228.542 693.583 228.542C692.889 228.542 692.25 228.399 691.667 228.115C691.09 227.83 690.628 227.434 690.281 226.927C689.934 226.413 689.76 225.823 689.76 225.156C689.76 224.573 689.865 224.052 690.073 223.594C690.288 223.135 690.611 222.747 691.042 222.427C691.472 222.108 692.021 221.865 692.688 221.698C693.354 221.531 694.139 221.448 695.042 221.448H696.552ZM707.542 217.062V219.5H700.75V217.062H707.542ZM702.177 214.26H705.687V224.656C705.687 224.955 705.722 225.187 705.792 225.354C705.861 225.514 705.979 225.628 706.146 225.698C706.319 225.76 706.549 225.792 706.833 225.792C707.035 225.792 707.201 225.788 707.333 225.781C707.465 225.767 707.59 225.75 707.708 225.729V228.24C707.41 228.337 707.097 228.41 706.771 228.458C706.444 228.514 706.097 228.542 705.729 228.542C704.979 228.542 704.337 228.424 703.802 228.187C703.274 227.951 702.872 227.58 702.594 227.073C702.316 226.566 702.177 225.906 702.177 225.094V214.26ZM712.646 217.062V228.333H709.125V217.062H712.646ZM708.917 214.156C708.917 213.656 709.097 213.247 709.458 212.927C709.819 212.608 710.288 212.448 710.865 212.448C711.441 212.448 711.91 212.608 712.271 212.927C712.632 213.247 712.813 213.656 712.813 214.156C712.813 214.656 712.632 215.066 712.271 215.385C711.91 215.705 711.441 215.865 710.865 215.865C710.288 215.865 709.819 215.705 709.458 215.385C709.097 215.066 708.917 214.656 708.917 214.156ZM718.875 225.927L721.094 217.062H724.792L721.104 228.333H718.917L718.875 225.927ZM717.563 217.062L719.75 225.927L719.729 228.333H717.531L713.854 217.062H717.563ZM731.146 228.542C730.229 228.542 729.41 228.399 728.688 228.115C727.965 227.823 727.354 227.424 726.854 226.917C726.361 226.41 725.983 225.826 725.719 225.167C725.462 224.507 725.333 223.809 725.333 223.073V222.677C725.333 221.851 725.448 221.087 725.677 220.385C725.906 219.677 726.247 219.059 726.698 218.531C727.149 218.003 727.715 217.594 728.396 217.302C729.076 217.003 729.868 216.854 730.771 216.854C731.569 216.854 732.285 216.983 732.917 217.24C733.549 217.497 734.083 217.865 734.521 218.344C734.965 218.823 735.302 219.403 735.531 220.083C735.767 220.764 735.885 221.528 735.885 222.375V223.802H726.677V221.604H732.458V221.333C732.465 220.958 732.399 220.639 732.26 220.375C732.128 220.111 731.934 219.91 731.677 219.771C731.42 219.632 731.108 219.562 730.74 219.562C730.358 219.562 730.042 219.646 729.792 219.812C729.549 219.979 729.358 220.208 729.219 220.5C729.087 220.785 728.993 221.115 728.938 221.49C728.882 221.865 728.854 222.26 728.854 222.677V223.073C728.854 223.49 728.91 223.868 729.021 224.208C729.139 224.549 729.306 224.84 729.521 225.083C729.743 225.319 730.007 225.503 730.313 225.635C730.625 225.767 730.979 225.833 731.375 225.833C731.854 225.833 732.326 225.743 732.792 225.562C733.257 225.382 733.656 225.083 733.99 224.667L735.583 226.562C735.354 226.889 735.028 227.205 734.604 227.51C734.188 227.816 733.688 228.066 733.104 228.26C732.521 228.448 731.868 228.542 731.146 228.542Z" fill="white"/>
</svg>
