<svg width="1363" height="167" viewBox="0 0 1363 167" fill="none" xmlns="http://www.w3.org/2000/svg">
<g style="mix-blend-mode:exclusion">
<rect width="1363" height="167" rx="15" fill="white" fill-opacity="0.05"/>
</g>
<g style="mix-blend-mode:exclusion">
<path d="M0 15C0 6.71573 6.71573 0 15 0H37V167H15C6.71573 167 0 160.284 0 152V15Z" fill="white" fill-opacity="0.25"/>
</g>
<g style="mix-blend-mode:exclusion">
<path d="M100.906 50.9219L93.3945 48.2383V45.0859L103.602 49.375V51.6367L100.906 50.9219ZM93.3945 53.1719L100.918 50.4297L103.602 49.7852V52.0352L93.3945 56.3242V53.1719ZM124.871 40.9375V58H121.367V40.9375H124.871ZM130.121 40.9375V43.6914H116.199V40.9375H130.121ZM134.469 48.0859V58H131.094V45.3203H134.27L134.469 48.0859ZM138.289 45.2383L138.23 48.3672C138.066 48.3438 137.867 48.3242 137.633 48.3086C137.406 48.2852 137.199 48.2734 137.012 48.2734C136.535 48.2734 136.121 48.3359 135.77 48.4609C135.426 48.5781 135.137 48.7539 134.902 48.9883C134.676 49.2227 134.504 49.5078 134.387 49.8438C134.277 50.1797 134.215 50.5625 134.199 50.9922L133.52 50.7812C133.52 49.9609 133.602 49.207 133.766 48.5195C133.93 47.8242 134.168 47.2188 134.48 46.7031C134.801 46.1875 135.191 45.7891 135.652 45.5078C136.113 45.2266 136.641 45.0859 137.234 45.0859C137.422 45.0859 137.613 45.1016 137.809 45.1328C138.004 45.1562 138.164 45.1914 138.289 45.2383ZM146.328 55.1406V49.4922C146.328 49.0859 146.262 48.7383 146.129 48.4492C145.996 48.1523 145.789 47.9219 145.508 47.7578C145.234 47.5938 144.879 47.5117 144.441 47.5117C144.066 47.5117 143.742 47.5781 143.469 47.7109C143.195 47.8359 142.984 48.0195 142.836 48.2617C142.688 48.4961 142.613 48.7734 142.613 49.0938H139.238C139.238 48.5547 139.363 48.043 139.613 47.5586C139.863 47.0742 140.227 46.6484 140.703 46.2812C141.18 45.9062 141.746 45.6133 142.402 45.4023C143.066 45.1914 143.809 45.0859 144.629 45.0859C145.613 45.0859 146.488 45.25 147.254 45.5781C148.02 45.9062 148.621 46.3984 149.059 47.0547C149.504 47.7109 149.727 48.5312 149.727 49.5156V54.9414C149.727 55.6367 149.77 56.207 149.855 56.6523C149.941 57.0898 150.066 57.4727 150.23 57.8008V58H146.82C146.656 57.6562 146.531 57.2266 146.445 56.7109C146.367 56.1875 146.328 55.6641 146.328 55.1406ZM146.773 50.2773L146.797 52.1875H144.91C144.465 52.1875 144.078 52.2383 143.75 52.3398C143.422 52.4414 143.152 52.5859 142.941 52.7734C142.73 52.9531 142.574 53.1641 142.473 53.4062C142.379 53.6484 142.332 53.9141 142.332 54.2031C142.332 54.4922 142.398 54.7539 142.531 54.9883C142.664 55.2148 142.855 55.3945 143.105 55.5273C143.355 55.6523 143.648 55.7148 143.984 55.7148C144.492 55.7148 144.934 55.6133 145.309 55.4102C145.684 55.207 145.973 54.957 146.176 54.6602C146.387 54.3633 146.496 54.082 146.504 53.8164L147.395 55.2461C147.27 55.5664 147.098 55.8984 146.879 56.2422C146.668 56.5859 146.398 56.9102 146.07 57.2148C145.742 57.5117 145.348 57.7578 144.887 57.9531C144.426 58.1406 143.879 58.2344 143.246 58.2344C142.441 58.2344 141.711 58.0742 141.055 57.7539C140.406 57.4258 139.891 56.9766 139.508 56.4062C139.133 55.8281 138.945 55.1719 138.945 54.4375C138.945 53.7734 139.07 53.1836 139.32 52.668C139.57 52.1523 139.938 51.7188 140.422 51.3672C140.914 51.0078 141.527 50.7383 142.262 50.5586C142.996 50.3711 143.848 50.2773 144.816 50.2773H146.773ZM157.566 55.5977C157.98 55.5977 158.348 55.5195 158.668 55.3633C158.988 55.1992 159.238 54.9727 159.418 54.6836C159.605 54.3867 159.703 54.0391 159.711 53.6406H162.887C162.879 54.5312 162.641 55.3242 162.172 56.0195C161.703 56.707 161.074 57.25 160.285 57.6484C159.496 58.0391 158.613 58.2344 157.637 58.2344C156.652 58.2344 155.793 58.0703 155.059 57.7422C154.332 57.4141 153.727 56.9609 153.242 56.3828C152.758 55.7969 152.395 55.1172 152.152 54.3438C151.91 53.5625 151.789 52.7266 151.789 51.8359V51.4961C151.789 50.5977 151.91 49.7617 152.152 48.9883C152.395 48.207 152.758 47.5273 153.242 46.9492C153.727 46.3633 154.332 45.9062 155.059 45.5781C155.785 45.25 156.637 45.0859 157.613 45.0859C158.652 45.0859 159.562 45.2852 160.344 45.6836C161.133 46.082 161.75 46.6523 162.195 47.3945C162.648 48.1289 162.879 49 162.887 50.0078H159.711C159.703 49.5859 159.613 49.2031 159.441 48.8594C159.277 48.5156 159.035 48.2422 158.715 48.0391C158.402 47.8281 158.016 47.7227 157.555 47.7227C157.062 47.7227 156.66 47.8281 156.348 48.0391C156.035 48.2422 155.793 48.5234 155.621 48.8828C155.449 49.2344 155.328 49.6367 155.258 50.0898C155.195 50.5352 155.164 51.0039 155.164 51.4961V51.8359C155.164 52.3281 155.195 52.8008 155.258 53.2539C155.32 53.707 155.438 54.1094 155.609 54.4609C155.789 54.8125 156.035 55.0898 156.348 55.293C156.66 55.4961 157.066 55.5977 157.566 55.5977ZM168.219 39.9883V58H164.844V39.9883H168.219ZM176.211 45.3203L170.703 51.6016L167.75 54.5898L166.52 52.1523L168.863 49.1758L172.156 45.3203H176.211ZM172.707 58L168.957 52.1406L171.289 50.1016L176.598 58H172.707ZM183.266 58.2344C182.281 58.2344 181.398 58.0781 180.617 57.7656C179.836 57.4453 179.172 57.0039 178.625 56.4414C178.086 55.8789 177.672 55.2266 177.383 54.4844C177.094 53.7344 176.949 52.9375 176.949 52.0938V51.625C176.949 50.6641 177.086 49.7852 177.359 48.9883C177.633 48.1914 178.023 47.5 178.531 46.9141C179.047 46.3281 179.672 45.8789 180.406 45.5664C181.141 45.2461 181.969 45.0859 182.891 45.0859C183.789 45.0859 184.586 45.2344 185.281 45.5312C185.977 45.8281 186.559 46.25 187.027 46.7969C187.504 47.3438 187.863 48 188.105 48.7656C188.348 49.5234 188.469 50.3672 188.469 51.2969V52.7031H178.391V50.4531H185.152V50.1953C185.152 49.7266 185.066 49.3086 184.895 48.9414C184.73 48.5664 184.48 48.2695 184.145 48.0508C183.809 47.832 183.379 47.7227 182.855 47.7227C182.41 47.7227 182.027 47.8203 181.707 48.0156C181.387 48.2109 181.125 48.4844 180.922 48.8359C180.727 49.1875 180.578 49.6016 180.477 50.0781C180.383 50.5469 180.336 51.0625 180.336 51.625V52.0938C180.336 52.6016 180.406 53.0703 180.547 53.5C180.695 53.9297 180.902 54.3008 181.168 54.6133C181.441 54.9258 181.77 55.168 182.152 55.3398C182.543 55.5117 182.984 55.5977 183.477 55.5977C184.086 55.5977 184.652 55.4805 185.176 55.2461C185.707 55.0039 186.164 54.6406 186.547 54.1562L188.188 55.9375C187.922 56.3203 187.559 56.6875 187.098 57.0391C186.645 57.3906 186.098 57.6797 185.457 57.9062C184.816 58.125 184.086 58.2344 183.266 58.2344ZM193.766 48.0859V58H190.391V45.3203H193.566L193.766 48.0859ZM197.586 45.2383L197.527 48.3672C197.363 48.3438 197.164 48.3242 196.93 48.3086C196.703 48.2852 196.496 48.2734 196.309 48.2734C195.832 48.2734 195.418 48.3359 195.066 48.4609C194.723 48.5781 194.434 48.7539 194.199 48.9883C193.973 49.2227 193.801 49.5078 193.684 49.8438C193.574 50.1797 193.512 50.5625 193.496 50.9922L192.816 50.7812C192.816 49.9609 192.898 49.207 193.062 48.5195C193.227 47.8242 193.465 47.2188 193.777 46.7031C194.098 46.1875 194.488 45.7891 194.949 45.5078C195.41 45.2266 195.938 45.0859 196.531 45.0859C196.719 45.0859 196.91 45.1016 197.105 45.1328C197.301 45.1562 197.461 45.1914 197.586 45.2383Z" fill="white" fill-opacity="0.5"/>
</g>
<g style="mix-blend-mode:exclusion">
<path d="M115.994 98.708V104.641H99.5806V98.708H115.994ZM102.151 86.0078V118H94.439V86.0078H102.151ZM121.18 86.0078V118H113.489V86.0078H121.18ZM124.805 106.354V105.893C124.805 104.15 125.054 102.546 125.552 101.081C126.05 99.6016 126.783 98.3198 127.75 97.2358C128.716 96.1519 129.91 95.3096 131.331 94.709C132.752 94.0938 134.393 93.7861 136.253 93.7861C138.128 93.7861 139.776 94.0938 141.197 94.709C142.632 95.3096 143.833 96.1519 144.8 97.2358C145.767 98.3198 146.5 99.6016 146.998 101.081C147.496 102.546 147.745 104.15 147.745 105.893V106.354C147.745 108.083 147.496 109.687 146.998 111.167C146.5 112.631 145.767 113.913 144.8 115.012C143.833 116.096 142.64 116.938 141.219 117.539C139.798 118.139 138.157 118.439 136.297 118.439C134.437 118.439 132.789 118.139 131.353 117.539C129.917 116.938 128.716 116.096 127.75 115.012C126.783 113.913 126.05 112.631 125.552 111.167C125.054 109.687 124.805 108.083 124.805 106.354ZM132.21 105.893V106.354C132.21 107.248 132.276 108.083 132.408 108.859C132.54 109.636 132.759 110.317 133.067 110.903C133.375 111.474 133.792 111.921 134.319 112.243C134.847 112.565 135.506 112.727 136.297 112.727C137.073 112.727 137.718 112.565 138.23 112.243C138.758 111.921 139.175 111.474 139.483 110.903C139.791 110.317 140.01 109.636 140.142 108.859C140.274 108.083 140.34 107.248 140.34 106.354V105.893C140.34 105.029 140.274 104.216 140.142 103.454C140.01 102.678 139.791 101.997 139.483 101.411C139.175 100.81 138.758 100.341 138.23 100.004C137.703 99.6675 137.044 99.499 136.253 99.499C135.477 99.499 134.825 99.6675 134.297 100.004C133.785 100.341 133.375 100.81 133.067 101.411C132.759 101.997 132.54 102.678 132.408 103.454C132.276 104.216 132.21 105.029 132.21 105.893ZM158.27 110.925L162.664 94.2256H167.3L165.652 102.597L161.302 118H157.588L158.27 110.925ZM156.534 94.2256L159.258 110.793L159.566 118H155.062L149.437 94.2256H156.534ZM171.211 110.441L173.958 94.2256H181.055L175.474 118H170.97L171.211 110.441ZM167.828 94.2256L172.266 110.881L172.947 118H169.19L164.927 102.641L163.345 94.2256H167.828ZM209.466 86.0078V118H201.753V86.0078H209.466ZM219.09 86.0078V91.9624H192.349V86.0078H219.09ZM216.475 106.354V105.893C216.475 104.15 216.724 102.546 217.222 101.081C217.72 99.6016 218.453 98.3198 219.419 97.2358C220.386 96.1519 221.58 95.3096 223.001 94.709C224.422 94.0938 226.062 93.7861 227.923 93.7861C229.798 93.7861 231.446 94.0938 232.867 94.709C234.302 95.3096 235.503 96.1519 236.47 97.2358C237.437 98.3198 238.169 99.6016 238.667 101.081C239.166 102.546 239.415 104.15 239.415 105.893V106.354C239.415 108.083 239.166 109.687 238.667 111.167C238.169 112.631 237.437 113.913 236.47 115.012C235.503 116.096 234.31 116.938 232.889 117.539C231.468 118.139 229.827 118.439 227.967 118.439C226.106 118.439 224.458 118.139 223.023 117.539C221.587 116.938 220.386 116.096 219.419 115.012C218.453 113.913 217.72 112.631 217.222 111.167C216.724 109.687 216.475 108.083 216.475 106.354ZM223.88 105.893V106.354C223.88 107.248 223.946 108.083 224.078 108.859C224.209 109.636 224.429 110.317 224.737 110.903C225.044 111.474 225.462 111.921 225.989 112.243C226.517 112.565 227.176 112.727 227.967 112.727C228.743 112.727 229.388 112.565 229.9 112.243C230.428 111.921 230.845 111.474 231.153 110.903C231.46 110.317 231.68 109.636 231.812 108.859C231.944 108.083 232.01 107.248 232.01 106.354V105.893C232.01 105.029 231.944 104.216 231.812 103.454C231.68 102.678 231.46 101.997 231.153 101.411C230.845 100.81 230.428 100.341 229.9 100.004C229.373 99.6675 228.714 99.499 227.923 99.499C227.146 99.499 226.495 99.6675 225.967 100.004C225.455 100.341 225.044 100.81 224.737 101.411C224.429 101.997 224.209 102.678 224.078 103.454C223.946 104.216 223.88 105.029 223.88 105.893ZM254.268 86.0078H266.858C269.319 86.0078 271.458 86.374 273.274 87.1064C275.091 87.8389 276.49 88.9229 277.471 90.3584C278.467 91.7939 278.965 93.5664 278.965 95.6758C278.965 97.5068 278.68 99.0376 278.108 100.268C277.537 101.499 276.739 102.517 275.713 103.322C274.703 104.113 273.523 104.765 272.176 105.278L269.649 106.706H259.08L259.036 100.751H266.858C267.84 100.751 268.653 100.576 269.297 100.224C269.942 99.8726 270.425 99.3745 270.748 98.73C271.084 98.0708 271.253 97.2871 271.253 96.3789C271.253 95.4561 271.084 94.665 270.748 94.0059C270.411 93.3467 269.913 92.8413 269.253 92.4897C268.609 92.1382 267.811 91.9624 266.858 91.9624H261.98V118H254.268V86.0078ZM271.78 118L264.705 103.85L272.879 103.806L280.042 117.67V118H271.78ZM297.159 112.221V94.2256H304.585V118H297.642L297.159 112.221ZM297.862 107.387L299.795 107.343C299.795 108.94 299.605 110.419 299.224 111.782C298.843 113.129 298.279 114.301 297.532 115.297C296.8 116.293 295.892 117.07 294.808 117.626C293.738 118.168 292.5 118.439 291.094 118.439C289.922 118.439 288.846 118.278 287.864 117.956C286.897 117.619 286.062 117.099 285.359 116.396C284.656 115.678 284.107 114.763 283.711 113.649C283.331 112.521 283.14 111.174 283.14 109.606V94.2256H290.545V109.65C290.545 110.178 290.611 110.632 290.743 111.013C290.875 111.394 291.065 111.716 291.314 111.979C291.563 112.229 291.871 112.419 292.237 112.551C292.618 112.668 293.05 112.727 293.533 112.727C294.646 112.727 295.518 112.492 296.148 112.023C296.778 111.555 297.217 110.917 297.466 110.112C297.73 109.306 297.862 108.398 297.862 107.387ZM315.945 99.3013V118H308.541V94.2256H315.484L315.945 99.3013ZM315.066 105.3L313.331 105.344C313.331 103.527 313.55 101.909 313.99 100.488C314.429 99.0522 315.052 97.8364 315.857 96.8403C316.663 95.8442 317.623 95.0898 318.736 94.5771C319.864 94.0498 321.116 93.7861 322.493 93.7861C323.592 93.7861 324.595 93.9473 325.503 94.2695C326.426 94.5918 327.217 95.1118 327.876 95.8296C328.55 96.5474 329.063 97.4995 329.415 98.686C329.781 99.8579 329.964 101.308 329.964 103.037V118H322.515V103.015C322.515 102.062 322.383 101.337 322.12 100.839C321.856 100.327 321.475 99.9751 320.977 99.7847C320.479 99.5942 319.871 99.499 319.153 99.499C318.392 99.499 317.747 99.6455 317.22 99.9385C316.692 100.231 316.268 100.642 315.945 101.169C315.638 101.682 315.411 102.29 315.264 102.993C315.132 103.696 315.066 104.465 315.066 105.3ZM345.85 107.871H339.544C339.544 106.582 339.632 105.446 339.808 104.465C339.998 103.469 340.32 102.575 340.774 101.784C341.229 100.993 341.844 100.261 342.62 99.5869C343.309 99.0156 343.902 98.4663 344.4 97.939C344.898 97.4116 345.279 96.877 345.542 96.335C345.806 95.793 345.938 95.2144 345.938 94.5991C345.938 93.8374 345.828 93.2148 345.608 92.7314C345.403 92.248 345.088 91.8892 344.664 91.6548C344.253 91.4058 343.733 91.2812 343.104 91.2812C342.591 91.2812 342.107 91.4058 341.653 91.6548C341.214 91.9038 340.855 92.292 340.577 92.8193C340.298 93.332 340.145 94.0132 340.115 94.8628H332.667C332.71 92.6802 333.194 90.9077 334.117 89.5454C335.054 88.1685 336.299 87.165 337.852 86.5352C339.419 85.8906 341.17 85.5684 343.104 85.5684C345.242 85.5684 347.081 85.8979 348.619 86.5571C350.157 87.2163 351.336 88.1978 352.156 89.5015C352.977 90.7905 353.387 92.3799 353.387 94.2695C353.387 95.5293 353.145 96.6279 352.662 97.5654C352.193 98.4883 351.556 99.3525 350.75 100.158C349.959 100.949 349.073 101.799 348.091 102.707C347.242 103.454 346.663 104.216 346.355 104.992C346.048 105.754 345.879 106.713 345.85 107.871ZM338.643 114.55C338.643 113.496 339.024 112.617 339.786 111.914C340.547 111.196 341.536 110.837 342.752 110.837C343.968 110.837 344.957 111.196 345.718 111.914C346.48 112.617 346.861 113.496 346.861 114.55C346.861 115.605 346.48 116.491 345.718 117.209C344.957 117.912 343.968 118.264 342.752 118.264C341.536 118.264 340.547 117.912 339.786 117.209C339.024 116.491 338.643 115.605 338.643 114.55Z" fill="white"/>
</g>
<path d="M1363 15C1363 6.71573 1356.28 0 1348 0H1134V167H1348C1356.28 167 1363 160.284 1363 152V15Z" fill="#032955"/>
<path d="M1260.77 81.3079C1263.96 81.3079 1267.09 82.2553 1269.74 84.0303C1272.4 85.8053 1274.47 88.3282 1275.69 91.2799C1276.92 94.2316 1277.24 97.4796 1276.61 100.613C1275.99 103.747 1274.45 106.625 1272.19 108.884C1269.93 111.143 1267.05 112.682 1263.92 113.305C1260.79 113.928 1257.54 113.608 1254.59 112.386C1251.64 111.163 1249.11 109.093 1247.34 106.436C1245.56 103.78 1244.62 100.657 1244.62 97.4617C1244.62 93.1774 1246.32 89.0686 1249.35 86.0392C1252.38 83.0098 1256.48 81.3079 1260.77 81.3079V81.3079ZM1260.77 75.9233C1256.51 75.9233 1252.35 77.1865 1248.8 79.5532C1245.26 81.9198 1242.5 85.2837 1240.87 89.2193C1239.24 93.1549 1238.81 97.4856 1239.64 101.664C1240.48 105.842 1242.53 109.679 1245.54 112.692C1248.55 115.704 1252.39 117.755 1256.57 118.586C1260.75 119.417 1265.08 118.991 1269.01 117.361C1272.95 115.73 1276.31 112.97 1278.68 109.428C1281.04 105.886 1282.31 101.722 1282.31 97.4617C1282.31 91.7493 1280.04 86.271 1276 82.2317C1271.96 78.1925 1266.48 75.9233 1260.77 75.9233Z" fill="white"/>
<path d="M1274.23 49H1220.38C1218.96 49 1217.59 49.5673 1216.58 50.5771C1215.57 51.5869 1215 52.9565 1215 54.3846V108.231C1215 109.659 1215.57 111.028 1216.58 112.038C1217.59 113.048 1218.96 113.615 1220.38 113.615H1231.15V108.231H1220.38V70.5384H1279.62V54.3846C1279.62 52.9565 1279.05 51.5869 1278.04 50.5771C1277.03 49.5673 1275.66 49 1274.23 49V49ZM1220.38 65.1538V54.3846H1274.23V65.1538H1220.38Z" fill="white"/>
<path d="M1255.39 89.3849V105.539L1268.85 97.4618L1255.39 89.3849Z" fill="white"/>
</svg>
