<svg width="1363" height="301" viewBox="0 0 1363 301" fill="none" xmlns="http://www.w3.org/2000/svg">
<rect width="1363" height="301" rx="15" fill="#F0F0F0"/>
<path d="M0 15C0 6.71573 6.71573 0 15 0H37V301H15C6.71573 301 0 294.284 0 286V15Z" fill="#032955"/>
<path d="M113.914 104.898V144H104.488V104.898H113.914ZM125.677 104.898V112.176H92.9937V104.898H125.677ZM136.607 122.14V144H127.557V114.942H136.016L136.607 122.14ZM145.201 114.728L145.04 123.133C144.681 123.097 144.198 123.053 143.589 122.999C142.981 122.945 142.47 122.918 142.059 122.918C141.002 122.918 140.089 123.044 139.319 123.294C138.567 123.527 137.941 123.885 137.439 124.369C136.956 124.834 136.598 125.425 136.365 126.141C136.15 126.857 136.052 127.69 136.07 128.639L134.432 127.564C134.432 125.613 134.62 123.84 134.996 122.247C135.389 120.636 135.944 119.248 136.661 118.084C137.377 116.903 138.245 115.999 139.266 115.372C140.286 114.728 141.432 114.405 142.703 114.405C143.151 114.405 143.589 114.432 144.019 114.486C144.467 114.54 144.861 114.62 145.201 114.728ZM162.603 136.695V124.718C162.603 123.894 162.487 123.187 162.254 122.596C162.021 122.005 161.654 121.549 161.153 121.227C160.652 120.886 159.98 120.716 159.139 120.716C158.458 120.716 157.876 120.833 157.393 121.065C156.91 121.298 156.543 121.647 156.292 122.113C156.041 122.578 155.916 123.169 155.916 123.885H146.866C146.866 122.542 147.161 121.298 147.752 120.152C148.361 118.989 149.22 117.977 150.33 117.118C151.458 116.258 152.801 115.596 154.358 115.13C155.934 114.647 157.688 114.405 159.622 114.405C161.932 114.405 163.991 114.79 165.799 115.56C167.625 116.33 169.066 117.485 170.123 119.024C171.179 120.546 171.707 122.462 171.707 124.771V136.668C171.707 138.566 171.814 140.007 172.029 140.992C172.244 141.959 172.549 142.809 172.942 143.543V144H163.865C163.436 143.105 163.113 142.013 162.898 140.724C162.701 139.417 162.603 138.074 162.603 136.695ZM163.704 126.249L163.758 131.083H159.756C158.915 131.083 158.199 131.199 157.608 131.432C157.035 131.664 156.569 131.987 156.211 132.398C155.871 132.792 155.621 133.24 155.459 133.741C155.316 134.243 155.245 134.771 155.245 135.326C155.245 135.863 155.37 136.346 155.621 136.776C155.889 137.188 156.247 137.51 156.695 137.743C157.142 137.975 157.644 138.092 158.199 138.092C159.201 138.092 160.052 137.904 160.75 137.528C161.466 137.134 162.012 136.66 162.388 136.104C162.764 135.549 162.952 135.03 162.952 134.547L164.939 138.253C164.581 138.969 164.17 139.694 163.704 140.428C163.257 141.162 162.693 141.843 162.012 142.469C161.35 143.078 160.535 143.579 159.568 143.973C158.602 144.349 157.429 144.537 156.05 144.537C154.26 144.537 152.613 144.17 151.109 143.436C149.623 142.702 148.432 141.681 147.537 140.375C146.642 139.05 146.194 137.528 146.194 135.809C146.194 134.305 146.463 132.962 147 131.781C147.555 130.599 148.388 129.597 149.498 128.773C150.608 127.949 152.022 127.323 153.741 126.893C155.459 126.463 157.483 126.249 159.81 126.249H163.704ZM189.002 137.555C189.843 137.555 190.56 137.403 191.15 137.098C191.759 136.776 192.216 136.328 192.52 135.755C192.842 135.165 192.994 134.457 192.977 133.634H201.49C201.508 135.818 200.971 137.734 199.878 139.381C198.804 141.01 197.336 142.281 195.474 143.194C193.63 144.09 191.544 144.537 189.217 144.537C186.943 144.537 184.956 144.17 183.255 143.436C181.554 142.684 180.131 141.646 178.985 140.321C177.857 138.978 177.007 137.411 176.434 135.621C175.879 133.831 175.601 131.888 175.601 129.793V129.176C175.601 127.081 175.879 125.139 176.434 123.348C177.007 121.54 177.857 119.973 178.985 118.648C180.131 117.306 181.545 116.267 183.228 115.533C184.929 114.781 186.907 114.405 189.163 114.405C191.58 114.405 193.711 114.862 195.555 115.775C197.417 116.688 198.876 118.013 199.932 119.75C200.988 121.486 201.508 123.59 201.49 126.061H192.977C192.994 125.183 192.86 124.396 192.574 123.697C192.287 122.999 191.84 122.444 191.231 122.032C190.64 121.603 189.879 121.388 188.948 121.388C188.017 121.388 187.265 121.594 186.692 122.005C186.119 122.417 185.681 122.99 185.376 123.724C185.09 124.44 184.893 125.264 184.786 126.195C184.696 127.126 184.651 128.119 184.651 129.176V129.793C184.651 130.868 184.696 131.879 184.786 132.828C184.893 133.759 185.099 134.583 185.403 135.299C185.708 135.997 186.146 136.552 186.719 136.964C187.292 137.358 188.053 137.555 189.002 137.555ZM214.488 102.723V144H205.438V102.723H214.488ZM233.072 114.942L220.45 129.74L213.843 136.346L209.896 130.599L215.401 123.429L222.222 114.942H233.072ZM223.377 144L215.616 130.76L222.303 126.007L233.743 144H223.377ZM248.97 144.537C246.607 144.537 244.494 144.17 242.632 143.436C240.77 142.684 239.195 141.655 237.906 140.348C236.635 139.041 235.659 137.537 234.979 135.836C234.316 134.135 233.985 132.336 233.985 130.438V129.417C233.985 127.287 234.28 125.318 234.871 123.509C235.462 121.683 236.339 120.09 237.503 118.729C238.667 117.368 240.126 116.312 241.88 115.56C243.635 114.79 245.676 114.405 248.003 114.405C250.062 114.405 251.906 114.736 253.536 115.399C255.165 116.061 256.543 117.01 257.671 118.246C258.817 119.481 259.686 120.976 260.276 122.73C260.885 124.485 261.189 126.454 261.189 128.639V132.318H237.449V126.651H252.354V125.953C252.372 124.986 252.202 124.163 251.844 123.482C251.504 122.802 251.002 122.283 250.34 121.925C249.677 121.567 248.872 121.388 247.923 121.388C246.938 121.388 246.124 121.603 245.479 122.032C244.852 122.462 244.36 123.053 244.002 123.805C243.662 124.539 243.42 125.389 243.277 126.356C243.134 127.323 243.062 128.343 243.062 129.417V130.438C243.062 131.512 243.205 132.488 243.492 133.365C243.796 134.243 244.226 134.994 244.781 135.621C245.354 136.23 246.034 136.704 246.822 137.044C247.627 137.385 248.541 137.555 249.561 137.555C250.796 137.555 252.014 137.322 253.213 136.856C254.413 136.391 255.442 135.621 256.302 134.547L260.411 139.435C259.82 140.276 258.978 141.091 257.886 141.878C256.812 142.666 255.523 143.311 254.019 143.812C252.515 144.295 250.832 144.537 248.97 144.537ZM274 122.14V144H264.949V114.942H273.409L274 122.14ZM282.593 114.728L282.432 123.133C282.074 123.097 281.591 123.053 280.982 122.999C280.373 122.945 279.863 122.918 279.451 122.918C278.395 122.918 277.482 123.044 276.712 123.294C275.96 123.527 275.333 123.885 274.832 124.369C274.349 124.834 273.991 125.425 273.758 126.141C273.543 126.857 273.444 127.69 273.462 128.639L271.824 127.564C271.824 125.613 272.012 123.84 272.388 122.247C272.782 120.636 273.337 119.248 274.053 118.084C274.769 116.903 275.638 115.999 276.658 115.372C277.679 114.728 278.825 114.405 280.096 114.405C280.543 114.405 280.982 114.432 281.412 114.486C281.859 114.54 282.253 114.62 282.593 114.728Z" fill="black"/>
<path d="M96.563 55.1172H100.904L107.295 73.3862L113.687 55.1172H118.028L109.039 80H105.552L96.563 55.1172ZM94.2217 55.1172H98.5454L99.3315 72.9248V80H94.2217V55.1172ZM116.045 55.1172H120.386V80H115.259V72.9248L116.045 55.1172ZM134.554 75.8301V67.5928C134.554 67.0003 134.457 66.4933 134.263 66.0718C134.069 65.6388 133.768 65.3027 133.357 65.0635C132.959 64.8242 132.44 64.7046 131.802 64.7046C131.255 64.7046 130.783 64.8014 130.384 64.9951C129.985 65.1774 129.677 65.4451 129.461 65.7983C129.244 66.1401 129.136 66.5446 129.136 67.0117H124.214C124.214 66.2256 124.397 65.4793 124.761 64.7729C125.126 64.0666 125.656 63.4456 126.351 62.9102C127.046 62.3633 127.872 61.936 128.829 61.6284C129.797 61.3208 130.879 61.167 132.076 61.167C133.511 61.167 134.787 61.4062 135.904 61.8848C137.02 62.3633 137.898 63.0811 138.536 64.0381C139.185 64.9951 139.51 66.1914 139.51 67.627V75.5396C139.51 76.5535 139.572 77.3853 139.698 78.0347C139.823 78.6727 140.005 79.231 140.245 79.7095V80H135.271C135.032 79.4987 134.85 78.8721 134.725 78.1201C134.611 77.3568 134.554 76.5934 134.554 75.8301ZM135.203 68.7378L135.237 71.5234H132.486C131.836 71.5234 131.272 71.5975 130.794 71.7456C130.315 71.8937 129.922 72.1045 129.615 72.3779C129.307 72.64 129.079 72.9476 128.931 73.3008C128.794 73.654 128.726 74.0413 128.726 74.4629C128.726 74.8844 128.823 75.2661 129.017 75.6079C129.21 75.9383 129.489 76.2004 129.854 76.394C130.219 76.5763 130.646 76.6675 131.136 76.6675C131.876 76.6675 132.52 76.5194 133.067 76.2231C133.614 75.9269 134.035 75.5623 134.332 75.1294C134.639 74.6965 134.799 74.2863 134.81 73.8989L136.109 75.9839C135.927 76.451 135.676 76.9352 135.357 77.4365C135.049 77.9378 134.656 78.4106 134.178 78.855C133.699 79.2879 133.124 79.6468 132.452 79.9316C131.779 80.2051 130.982 80.3418 130.059 80.3418C128.886 80.3418 127.82 80.1082 126.863 79.6411C125.918 79.1626 125.166 78.5075 124.607 77.6758C124.061 76.8327 123.787 75.8757 123.787 74.8047C123.787 73.8363 123.969 72.9761 124.334 72.2241C124.699 71.4722 125.234 70.8398 125.94 70.3271C126.658 69.8031 127.553 69.41 128.624 69.1479C129.694 68.8745 130.936 68.7378 132.349 68.7378H135.203ZM148.499 53.75V80H143.56V53.75H148.499ZM162.547 75.8301V67.5928C162.547 67.0003 162.45 66.4933 162.256 66.0718C162.063 65.6388 161.761 65.3027 161.351 65.0635C160.952 64.8242 160.433 64.7046 159.795 64.7046C159.249 64.7046 158.776 64.8014 158.377 64.9951C157.978 65.1774 157.671 65.4451 157.454 65.7983C157.238 66.1401 157.129 66.5446 157.129 67.0117H152.208C152.208 66.2256 152.39 65.4793 152.754 64.7729C153.119 64.0666 153.649 63.4456 154.344 62.9102C155.039 62.3633 155.865 61.936 156.822 61.6284C157.79 61.3208 158.873 61.167 160.069 61.167C161.504 61.167 162.78 61.4062 163.897 61.8848C165.014 62.3633 165.891 63.0811 166.529 64.0381C167.178 64.9951 167.503 66.1914 167.503 67.627V75.5396C167.503 76.5535 167.566 77.3853 167.691 78.0347C167.816 78.6727 167.999 79.231 168.238 79.7095V80H163.265C163.025 79.4987 162.843 78.8721 162.718 78.1201C162.604 77.3568 162.547 76.5934 162.547 75.8301ZM163.196 68.7378L163.23 71.5234H160.479C159.83 71.5234 159.266 71.5975 158.787 71.7456C158.309 71.8937 157.916 72.1045 157.608 72.3779C157.3 72.64 157.072 72.9476 156.924 73.3008C156.788 73.654 156.719 74.0413 156.719 74.4629C156.719 74.8844 156.816 75.2661 157.01 75.6079C157.203 75.9383 157.483 76.2004 157.847 76.394C158.212 76.5763 158.639 76.6675 159.129 76.6675C159.869 76.6675 160.513 76.5194 161.06 76.2231C161.607 75.9269 162.028 75.5623 162.325 75.1294C162.632 74.6965 162.792 74.2863 162.803 73.8989L164.102 75.9839C163.92 76.451 163.669 76.9352 163.35 77.4365C163.042 77.9378 162.649 78.4106 162.171 78.855C161.692 79.2879 161.117 79.6468 160.445 79.9316C159.773 80.2051 158.975 80.3418 158.052 80.3418C156.879 80.3418 155.813 80.1082 154.856 79.6411C153.911 79.1626 153.159 78.5075 152.601 77.6758C152.054 76.8327 151.78 75.8757 151.78 74.8047C151.78 73.8363 151.963 72.9761 152.327 72.2241C152.692 71.4722 153.227 70.8398 153.934 70.3271C154.651 69.8031 155.546 69.41 156.617 69.1479C157.688 68.8745 158.93 68.7378 160.342 68.7378H163.196ZM176.219 53.7329V80H171.297V53.7329H176.219ZM187.874 61.5088L179.842 70.6689L175.535 75.0269L173.741 71.4722L177.159 67.1313L181.961 61.5088H187.874ZM182.764 80L177.295 71.4551L180.696 68.4814L188.438 80H182.764ZM211.971 73.4888C211.971 73.0444 211.902 72.6457 211.766 72.2925C211.64 71.9279 211.401 71.5975 211.048 71.3013C210.695 70.9937 210.199 70.6917 209.561 70.3955C208.923 70.0993 208.097 69.7917 207.083 69.4727C205.955 69.1081 204.884 68.6979 203.87 68.2422C202.868 67.7865 201.979 67.2567 201.204 66.6528C200.441 66.0376 199.837 65.3255 199.393 64.5166C198.96 63.7077 198.743 62.7677 198.743 61.6968C198.743 60.66 198.971 59.7201 199.427 58.877C199.882 58.0225 200.521 57.2933 201.341 56.6895C202.161 56.0742 203.13 55.6014 204.246 55.271C205.374 54.9406 206.61 54.7754 207.955 54.7754C209.789 54.7754 211.39 55.1058 212.757 55.7666C214.124 56.4274 215.184 57.3332 215.936 58.4839C216.699 59.6346 217.081 60.9505 217.081 62.4316H211.988C211.988 61.7025 211.834 61.0645 211.526 60.5176C211.23 59.9593 210.774 59.5207 210.159 59.2017C209.555 58.8826 208.792 58.7231 207.869 58.7231C206.98 58.7231 206.24 58.8599 205.647 59.1333C205.055 59.3953 204.611 59.7542 204.314 60.21C204.018 60.6543 203.87 61.1556 203.87 61.7139C203.87 62.1354 203.973 62.5171 204.178 62.8589C204.394 63.2007 204.713 63.5197 205.135 63.8159C205.556 64.1121 206.075 64.3913 206.69 64.6533C207.305 64.9154 208.017 65.1717 208.826 65.4224C210.182 65.8325 211.373 66.2939 212.398 66.8066C213.435 67.3193 214.301 67.8947 214.996 68.5327C215.691 69.1707 216.215 69.8942 216.568 70.7031C216.921 71.512 217.098 72.4292 217.098 73.4546C217.098 74.5369 216.887 75.5054 216.465 76.3599C216.044 77.2144 215.434 77.9378 214.637 78.5303C213.839 79.1227 212.888 79.5728 211.783 79.8804C210.678 80.188 209.441 80.3418 208.074 80.3418C206.844 80.3418 205.63 80.1823 204.434 79.8633C203.238 79.5329 202.15 79.0373 201.17 78.3765C200.201 77.7157 199.427 76.8726 198.846 75.8472C198.265 74.8218 197.974 73.6084 197.974 72.207H203.118C203.118 72.9818 203.238 73.6369 203.477 74.1724C203.716 74.7078 204.052 75.1408 204.485 75.4712C204.93 75.8016 205.454 76.0409 206.058 76.189C206.673 76.3371 207.345 76.4111 208.074 76.4111C208.963 76.4111 209.692 76.2858 210.262 76.0352C210.843 75.7845 211.27 75.437 211.543 74.9927C211.828 74.5483 211.971 74.047 211.971 73.4888ZM225.079 53.75V80H220.157V53.75H225.079ZM224.378 70.105H223.028C223.039 68.8175 223.21 67.6326 223.541 66.5503C223.871 65.4565 224.344 64.5109 224.959 63.7134C225.574 62.9045 226.309 62.2778 227.164 61.8335C228.029 61.3892 228.986 61.167 230.035 61.167C230.946 61.167 231.772 61.298 232.513 61.5601C233.265 61.8107 233.908 62.2209 234.444 62.7905C234.991 63.3488 235.412 64.0837 235.708 64.9951C236.005 65.9066 236.153 67.0117 236.153 68.3105V80H231.197V68.2764C231.197 67.4561 231.077 66.8123 230.838 66.3452C230.61 65.8667 230.274 65.5306 229.83 65.3369C229.397 65.1318 228.861 65.0293 228.223 65.0293C227.517 65.0293 226.913 65.1603 226.412 65.4224C225.922 65.6844 225.529 66.049 225.232 66.5161C224.936 66.9718 224.72 67.5073 224.583 68.1226C224.446 68.7378 224.378 69.3986 224.378 70.105ZM249.876 75.8301V67.5928C249.876 67.0003 249.779 66.4933 249.585 66.0718C249.392 65.6388 249.09 65.3027 248.68 65.0635C248.281 64.8242 247.763 64.7046 247.125 64.7046C246.578 64.7046 246.105 64.8014 245.706 64.9951C245.307 65.1774 245 65.4451 244.783 65.7983C244.567 66.1401 244.458 66.5446 244.458 67.0117H239.537C239.537 66.2256 239.719 65.4793 240.083 64.7729C240.448 64.0666 240.978 63.4456 241.673 62.9102C242.368 62.3633 243.194 61.936 244.151 61.6284C245.119 61.3208 246.202 61.167 247.398 61.167C248.833 61.167 250.11 61.4062 251.226 61.8848C252.343 62.3633 253.22 63.0811 253.858 64.0381C254.507 64.9951 254.832 66.1914 254.832 67.627V75.5396C254.832 76.5535 254.895 77.3853 255.02 78.0347C255.145 78.6727 255.328 79.231 255.567 79.7095V80H250.594C250.354 79.4987 250.172 78.8721 250.047 78.1201C249.933 77.3568 249.876 76.5934 249.876 75.8301ZM250.525 68.7378L250.56 71.5234H247.808C247.159 71.5234 246.595 71.5975 246.116 71.7456C245.638 71.8937 245.245 72.1045 244.937 72.3779C244.629 72.64 244.402 72.9476 244.253 73.3008C244.117 73.654 244.048 74.0413 244.048 74.4629C244.048 74.8844 244.145 75.2661 244.339 75.6079C244.533 75.9383 244.812 76.2004 245.176 76.394C245.541 76.5763 245.968 76.6675 246.458 76.6675C247.199 76.6675 247.842 76.5194 248.389 76.2231C248.936 75.9269 249.358 75.5623 249.654 75.1294C249.961 74.6965 250.121 74.2863 250.132 73.8989L251.431 75.9839C251.249 76.451 250.998 76.9352 250.679 77.4365C250.372 77.9378 249.979 78.4106 249.5 78.855C249.021 79.2879 248.446 79.6468 247.774 79.9316C247.102 80.2051 246.304 80.3418 245.381 80.3418C244.208 80.3418 243.143 80.1082 242.186 79.6411C241.24 79.1626 240.488 78.5075 239.93 77.6758C239.383 76.8327 239.109 75.8757 239.109 74.8047C239.109 73.8363 239.292 72.9761 239.656 72.2241C240.021 71.4722 240.556 70.8398 241.263 70.3271C241.98 69.8031 242.875 69.41 243.946 69.1479C245.017 68.8745 246.259 68.7378 247.671 68.7378H250.525ZM267.137 80.3418C265.701 80.3418 264.414 80.1139 263.274 79.6582C262.135 79.1911 261.167 78.5474 260.369 77.7271C259.583 76.9067 258.979 75.9554 258.558 74.873C258.136 73.7793 257.925 72.6172 257.925 71.3867V70.7031C257.925 69.3018 258.125 68.02 258.523 66.8579C258.922 65.6958 259.492 64.6875 260.232 63.833C260.984 62.9785 261.896 62.3234 262.967 61.8677C264.038 61.4006 265.245 61.167 266.59 61.167C267.9 61.167 269.062 61.3835 270.076 61.8164C271.09 62.2493 271.939 62.8646 272.623 63.6621C273.318 64.4596 273.842 65.4167 274.195 66.5332C274.548 67.6383 274.725 68.8688 274.725 70.2246V72.2754H260.027V68.9941H269.888V68.6182C269.888 67.9346 269.763 67.325 269.512 66.7896C269.273 66.2427 268.908 65.8097 268.418 65.4907C267.929 65.1717 267.302 65.0122 266.539 65.0122C265.889 65.0122 265.331 65.1546 264.864 65.4395C264.397 65.7243 264.015 66.123 263.719 66.6357C263.434 67.1484 263.217 67.7523 263.069 68.4473C262.933 69.1309 262.864 69.8828 262.864 70.7031V71.3867C262.864 72.1273 262.967 72.8109 263.172 73.4375C263.388 74.0641 263.69 74.6053 264.078 75.061C264.476 75.5168 264.955 75.87 265.513 76.1206C266.083 76.3713 266.727 76.4966 267.444 76.4966C268.333 76.4966 269.159 76.3257 269.922 75.9839C270.697 75.6307 271.364 75.1009 271.922 74.3945L274.314 76.9922C273.927 77.5505 273.397 78.0859 272.725 78.5986C272.064 79.1113 271.267 79.5329 270.333 79.8633C269.398 80.1823 268.333 80.3418 267.137 80.3418ZM282.449 65.542V80H277.527V61.5088H282.159L282.449 65.542ZM288.021 61.3892L287.935 65.9521C287.696 65.918 287.405 65.8895 287.063 65.8667C286.733 65.8325 286.431 65.8154 286.158 65.8154C285.463 65.8154 284.859 65.9066 284.346 66.0889C283.845 66.2598 283.423 66.5161 283.082 66.8579C282.751 67.1997 282.5 67.6156 282.33 68.1055C282.17 68.5954 282.079 69.1536 282.056 69.7803L281.065 69.4727C281.065 68.2764 281.185 67.1769 281.424 66.1743C281.663 65.1603 282.011 64.2773 282.466 63.5254C282.933 62.7734 283.503 62.1924 284.175 61.7822C284.847 61.3721 285.617 61.167 286.482 61.167C286.756 61.167 287.035 61.1898 287.32 61.2354C287.605 61.2695 287.838 61.3208 288.021 61.3892Z" fill="#888888"/>
<rect x="92" y="181" width="1179" height="80" rx="13.3333" fill="#CCCCCC"/>
<rect x="107" y="196.333" width="208" height="49.3333" rx="4.66667" fill="#888888" stroke="#888888" stroke-width="4"/>
<path d="M150.833 213.167H156.802C157.969 213.167 158.983 213.34 159.844 213.687C160.705 214.035 161.368 214.549 161.833 215.229C162.306 215.91 162.542 216.75 162.542 217.75C162.542 218.618 162.406 219.344 162.135 219.927C161.865 220.51 161.486 220.993 161 221.375C160.521 221.75 159.962 222.059 159.323 222.302L158.125 222.979H153.115L153.094 220.156H156.802C157.267 220.156 157.653 220.073 157.958 219.906C158.264 219.74 158.493 219.503 158.646 219.198C158.806 218.885 158.885 218.514 158.885 218.083C158.885 217.646 158.806 217.271 158.646 216.958C158.486 216.646 158.25 216.406 157.937 216.24C157.632 216.073 157.253 215.99 156.802 215.99H154.49V228.333H150.833V213.167ZM159.135 228.333L155.781 221.625L159.656 221.604L163.052 228.177V228.333H159.135ZM170.042 228.542C169.125 228.542 168.306 228.399 167.583 228.115C166.861 227.823 166.25 227.424 165.75 226.917C165.257 226.41 164.878 225.826 164.615 225.167C164.358 224.507 164.229 223.809 164.229 223.073V222.677C164.229 221.851 164.344 221.087 164.573 220.385C164.802 219.677 165.142 219.059 165.594 218.531C166.045 218.003 166.611 217.594 167.292 217.302C167.972 217.003 168.764 216.854 169.667 216.854C170.465 216.854 171.181 216.983 171.813 217.24C172.444 217.497 172.979 217.865 173.417 218.344C173.861 218.823 174.198 219.403 174.427 220.083C174.663 220.764 174.781 221.528 174.781 222.375V223.802H165.573V221.604H171.354V221.333C171.361 220.958 171.295 220.639 171.156 220.375C171.024 220.111 170.83 219.91 170.573 219.771C170.316 219.632 170.003 219.562 169.635 219.562C169.253 219.562 168.938 219.646 168.688 219.812C168.444 219.979 168.253 220.208 168.115 220.5C167.983 220.785 167.889 221.115 167.833 221.49C167.778 221.865 167.75 222.26 167.75 222.677V223.073C167.75 223.49 167.806 223.868 167.917 224.208C168.035 224.549 168.201 224.84 168.417 225.083C168.639 225.319 168.903 225.503 169.208 225.635C169.521 225.767 169.875 225.833 170.271 225.833C170.75 225.833 171.222 225.743 171.688 225.562C172.153 225.382 172.552 225.083 172.885 224.667L174.479 226.562C174.25 226.889 173.924 227.205 173.5 227.51C173.083 227.816 172.583 228.066 172 228.26C171.417 228.448 170.764 228.542 170.042 228.542ZM182.063 225.5V220.854C182.063 220.535 182.017 220.26 181.927 220.031C181.837 219.802 181.694 219.625 181.5 219.5C181.306 219.368 181.045 219.302 180.719 219.302C180.455 219.302 180.229 219.347 180.042 219.437C179.854 219.528 179.712 219.663 179.615 219.844C179.517 220.024 179.469 220.253 179.469 220.531H175.958C175.958 220.01 176.073 219.528 176.302 219.083C176.538 218.632 176.872 218.24 177.302 217.906C177.74 217.573 178.26 217.316 178.865 217.135C179.476 216.948 180.156 216.854 180.906 216.854C181.802 216.854 182.601 217.003 183.302 217.302C184.01 217.601 184.569 218.049 184.979 218.646C185.389 219.236 185.594 219.979 185.594 220.875V225.49C185.594 226.226 185.635 226.785 185.719 227.167C185.802 227.542 185.92 227.872 186.073 228.156V228.333H182.552C182.385 227.986 182.26 227.562 182.177 227.062C182.101 226.556 182.063 226.035 182.063 225.5ZM182.49 221.448L182.51 223.323H180.958C180.632 223.323 180.354 223.368 180.125 223.458C179.903 223.549 179.722 223.674 179.583 223.833C179.451 223.986 179.354 224.16 179.292 224.354C179.236 224.549 179.208 224.753 179.208 224.969C179.208 225.177 179.257 225.365 179.354 225.531C179.458 225.691 179.597 225.816 179.771 225.906C179.944 225.997 180.139 226.042 180.354 226.042C180.743 226.042 181.073 225.969 181.344 225.823C181.622 225.67 181.833 225.486 181.979 225.271C182.125 225.056 182.198 224.854 182.198 224.667L182.969 226.104C182.83 226.382 182.67 226.663 182.49 226.948C182.316 227.233 182.097 227.497 181.833 227.74C181.576 227.976 181.26 228.17 180.885 228.323C180.51 228.469 180.056 228.542 179.521 228.542C178.826 228.542 178.188 228.399 177.604 228.115C177.028 227.83 176.566 227.434 176.219 226.927C175.872 226.413 175.698 225.823 175.698 225.156C175.698 224.573 175.802 224.052 176.01 223.594C176.226 223.135 176.549 222.747 176.979 222.427C177.41 222.108 177.958 221.865 178.625 221.698C179.292 221.531 180.076 221.448 180.979 221.448H182.49ZM192.302 225.833C192.628 225.833 192.906 225.774 193.135 225.656C193.372 225.531 193.549 225.358 193.667 225.135C193.792 224.906 193.851 224.632 193.844 224.312H197.146C197.153 225.16 196.944 225.903 196.521 226.542C196.104 227.174 195.535 227.667 194.812 228.021C194.097 228.368 193.288 228.542 192.385 228.542C191.503 228.542 190.733 228.399 190.073 228.115C189.413 227.823 188.861 227.42 188.417 226.906C187.979 226.385 187.649 225.778 187.427 225.083C187.212 224.389 187.104 223.635 187.104 222.823V222.583C187.104 221.771 187.212 221.017 187.427 220.323C187.649 219.622 187.979 219.014 188.417 218.5C188.861 217.979 189.41 217.576 190.062 217.292C190.722 217 191.49 216.854 192.365 216.854C193.302 216.854 194.128 217.031 194.844 217.385C195.566 217.74 196.132 218.253 196.542 218.927C196.951 219.601 197.153 220.417 197.146 221.375H193.844C193.851 221.035 193.799 220.729 193.687 220.458C193.576 220.187 193.403 219.972 193.167 219.812C192.937 219.646 192.642 219.562 192.281 219.562C191.92 219.562 191.628 219.642 191.406 219.802C191.184 219.962 191.014 220.184 190.896 220.469C190.785 220.747 190.708 221.066 190.667 221.427C190.632 221.788 190.615 222.174 190.615 222.583V222.823C190.615 223.24 190.632 223.632 190.667 224C190.708 224.361 190.788 224.681 190.906 224.958C191.024 225.229 191.194 225.444 191.417 225.604C191.639 225.757 191.934 225.833 192.302 225.833ZM204.583 217.062V219.5H197.792V217.062H204.583ZM199.219 214.26H202.729V224.656C202.729 224.955 202.764 225.187 202.833 225.354C202.903 225.514 203.021 225.628 203.188 225.698C203.361 225.76 203.59 225.792 203.875 225.792C204.076 225.792 204.243 225.788 204.375 225.781C204.507 225.767 204.632 225.75 204.75 225.729V228.24C204.451 228.337 204.139 228.41 203.813 228.458C203.486 228.514 203.139 228.542 202.771 228.542C202.021 228.542 201.378 228.424 200.844 228.187C200.316 227.951 199.913 227.58 199.635 227.073C199.358 226.566 199.219 225.906 199.219 225.094V214.26ZM224.125 213.167V228.333H220.479L215.115 218.896V228.333H211.458V213.167H215.115L220.479 222.604V213.167H224.125ZM232.125 225.5V220.854C232.125 220.535 232.08 220.26 231.99 220.031C231.899 219.802 231.757 219.625 231.563 219.5C231.368 219.368 231.108 219.302 230.781 219.302C230.517 219.302 230.292 219.347 230.104 219.437C229.917 219.528 229.774 219.663 229.677 219.844C229.58 220.024 229.531 220.253 229.531 220.531H226.021C226.021 220.01 226.135 219.528 226.365 219.083C226.601 218.632 226.934 218.24 227.365 217.906C227.802 217.573 228.323 217.316 228.927 217.135C229.538 216.948 230.219 216.854 230.969 216.854C231.865 216.854 232.663 217.003 233.365 217.302C234.073 217.601 234.632 218.049 235.042 218.646C235.451 219.236 235.656 219.979 235.656 220.875V225.49C235.656 226.226 235.698 226.785 235.781 227.167C235.865 227.542 235.983 227.872 236.135 228.156V228.333H232.615C232.448 227.986 232.323 227.562 232.24 227.062C232.163 226.556 232.125 226.035 232.125 225.5ZM232.552 221.448L232.573 223.323H231.021C230.694 223.323 230.417 223.368 230.188 223.458C229.965 223.549 229.785 223.674 229.646 223.833C229.514 223.986 229.417 224.16 229.354 224.354C229.299 224.549 229.271 224.753 229.271 224.969C229.271 225.177 229.319 225.365 229.417 225.531C229.521 225.691 229.66 225.816 229.833 225.906C230.007 225.997 230.201 226.042 230.417 226.042C230.806 226.042 231.135 225.969 231.406 225.823C231.684 225.67 231.896 225.486 232.042 225.271C232.188 225.056 232.26 224.854 232.26 224.667L233.031 226.104C232.892 226.382 232.733 226.663 232.552 226.948C232.378 227.233 232.16 227.497 231.896 227.74C231.639 227.976 231.323 228.17 230.948 228.323C230.573 228.469 230.118 228.542 229.583 228.542C228.889 228.542 228.25 228.399 227.667 228.115C227.09 227.83 226.628 227.434 226.281 226.927C225.934 226.413 225.76 225.823 225.76 225.156C225.76 224.573 225.865 224.052 226.073 223.594C226.288 223.135 226.611 222.747 227.042 222.427C227.472 222.108 228.021 221.865 228.688 221.698C229.354 221.531 230.139 221.448 231.042 221.448H232.552ZM243.542 217.062V219.5H236.75V217.062H243.542ZM238.177 214.26H241.687V224.656C241.687 224.955 241.722 225.187 241.792 225.354C241.861 225.514 241.979 225.628 242.146 225.698C242.319 225.76 242.549 225.792 242.833 225.792C243.035 225.792 243.201 225.788 243.333 225.781C243.465 225.767 243.59 225.75 243.708 225.729V228.24C243.41 228.337 243.097 228.41 242.771 228.458C242.444 228.514 242.097 228.542 241.729 228.542C240.979 228.542 240.337 228.424 239.802 228.187C239.274 227.951 238.872 227.58 238.594 227.073C238.316 226.566 238.177 225.906 238.177 225.094V214.26ZM248.646 217.062V228.333H245.125V217.062H248.646ZM244.917 214.156C244.917 213.656 245.097 213.247 245.458 212.927C245.819 212.608 246.288 212.448 246.865 212.448C247.441 212.448 247.91 212.608 248.271 212.927C248.632 213.247 248.813 213.656 248.813 214.156C248.813 214.656 248.632 215.066 248.271 215.385C247.91 215.705 247.441 215.865 246.865 215.865C246.288 215.865 245.819 215.705 245.458 215.385C245.097 215.066 244.917 214.656 244.917 214.156ZM254.875 225.927L257.094 217.062H260.792L257.104 228.333H254.917L254.875 225.927ZM253.563 217.062L255.75 225.927L255.729 228.333H253.531L249.854 217.062H253.563ZM267.146 228.542C266.229 228.542 265.41 228.399 264.688 228.115C263.965 227.823 263.354 227.424 262.854 226.917C262.361 226.41 261.983 225.826 261.719 225.167C261.462 224.507 261.333 223.809 261.333 223.073V222.677C261.333 221.851 261.448 221.087 261.677 220.385C261.906 219.677 262.247 219.059 262.698 218.531C263.149 218.003 263.715 217.594 264.396 217.302C265.076 217.003 265.868 216.854 266.771 216.854C267.569 216.854 268.285 216.983 268.917 217.24C269.549 217.497 270.083 217.865 270.521 218.344C270.965 218.823 271.302 219.403 271.531 220.083C271.767 220.764 271.885 221.528 271.885 222.375V223.802H262.677V221.604H268.458V221.333C268.465 220.958 268.399 220.639 268.26 220.375C268.128 220.111 267.934 219.91 267.677 219.771C267.42 219.632 267.108 219.562 266.74 219.562C266.358 219.562 266.042 219.646 265.792 219.812C265.549 219.979 265.358 220.208 265.219 220.5C265.087 220.785 264.993 221.115 264.938 221.49C264.882 221.865 264.854 222.26 264.854 222.677V223.073C264.854 223.49 264.91 223.868 265.021 224.208C265.139 224.549 265.306 224.84 265.521 225.083C265.743 225.319 266.007 225.503 266.313 225.635C266.625 225.767 266.979 225.833 267.375 225.833C267.854 225.833 268.326 225.743 268.792 225.562C269.257 225.382 269.656 225.083 269.99 224.667L271.583 226.562C271.354 226.889 271.028 227.205 270.604 227.51C270.188 227.816 269.688 228.066 269.104 228.26C268.521 228.448 267.868 228.542 267.146 228.542Z" fill="white"/>
<rect x="339" y="196.333" width="208" height="49.3333" rx="4.66667" fill="#888888" stroke="#888888" stroke-width="4"/>
<path d="M419.073 225.521V228.333H411.406V225.521H419.073ZM412.708 213.167V228.333H409.052V213.167H412.708ZM426.302 225.5V220.854C426.302 220.535 426.257 220.26 426.167 220.031C426.076 219.802 425.934 219.625 425.74 219.5C425.545 219.368 425.285 219.302 424.958 219.302C424.694 219.302 424.469 219.347 424.281 219.437C424.094 219.528 423.951 219.663 423.854 219.844C423.757 220.024 423.708 220.253 423.708 220.531H420.198C420.198 220.01 420.312 219.528 420.542 219.083C420.778 218.632 421.111 218.24 421.542 217.906C421.979 217.573 422.5 217.316 423.104 217.135C423.715 216.948 424.396 216.854 425.146 216.854C426.042 216.854 426.84 217.003 427.542 217.302C428.25 217.601 428.809 218.049 429.219 218.646C429.628 219.236 429.833 219.979 429.833 220.875V225.49C429.833 226.226 429.875 226.785 429.958 227.167C430.042 227.542 430.16 227.872 430.312 228.156V228.333H426.792C426.625 227.986 426.5 227.562 426.417 227.062C426.34 226.556 426.302 226.035 426.302 225.5ZM426.729 221.448L426.75 223.323H425.198C424.872 223.323 424.594 223.368 424.365 223.458C424.142 223.549 423.962 223.674 423.823 223.833C423.691 223.986 423.594 224.16 423.531 224.354C423.476 224.549 423.448 224.753 423.448 224.969C423.448 225.177 423.497 225.365 423.594 225.531C423.698 225.691 423.837 225.816 424.01 225.906C424.184 225.997 424.378 226.042 424.594 226.042C424.983 226.042 425.312 225.969 425.583 225.823C425.861 225.67 426.073 225.486 426.219 225.271C426.365 225.056 426.437 224.854 426.437 224.667L427.208 226.104C427.069 226.382 426.91 226.663 426.729 226.948C426.556 227.233 426.337 227.497 426.073 227.74C425.816 227.976 425.5 228.17 425.125 228.323C424.75 228.469 424.295 228.542 423.76 228.542C423.066 228.542 422.427 228.399 421.844 228.115C421.267 227.83 420.806 227.434 420.458 226.927C420.111 226.413 419.937 225.823 419.937 225.156C419.937 224.573 420.042 224.052 420.25 223.594C420.465 223.135 420.788 222.747 421.219 222.427C421.649 222.108 422.198 221.865 422.865 221.698C423.531 221.531 424.316 221.448 425.219 221.448H426.729ZM435.323 219.854V228.333H431.812V217.062H435.094L435.323 219.854ZM438.656 216.979L438.594 220.24C438.455 220.226 438.267 220.208 438.031 220.187C437.795 220.167 437.597 220.156 437.437 220.156C437.028 220.156 436.674 220.205 436.375 220.302C436.083 220.392 435.84 220.531 435.646 220.719C435.458 220.899 435.319 221.128 435.229 221.406C435.146 221.684 435.108 222.007 435.115 222.375L434.479 221.958C434.479 221.201 434.552 220.514 434.698 219.896C434.851 219.271 435.066 218.733 435.344 218.281C435.622 217.823 435.958 217.472 436.354 217.229C436.75 216.979 437.194 216.854 437.687 216.854C437.861 216.854 438.031 216.865 438.198 216.885C438.372 216.906 438.524 216.937 438.656 216.979ZM445.406 225.5V220.854C445.406 220.535 445.361 220.26 445.271 220.031C445.181 219.802 445.038 219.625 444.844 219.5C444.649 219.368 444.389 219.302 444.063 219.302C443.799 219.302 443.573 219.347 443.385 219.437C443.198 219.528 443.056 219.663 442.958 219.844C442.861 220.024 442.813 220.253 442.813 220.531H439.302C439.302 220.01 439.417 219.528 439.646 219.083C439.882 218.632 440.215 218.24 440.646 217.906C441.083 217.573 441.604 217.316 442.208 217.135C442.819 216.948 443.5 216.854 444.25 216.854C445.146 216.854 445.944 217.003 446.646 217.302C447.354 217.601 447.913 218.049 448.323 218.646C448.733 219.236 448.938 219.979 448.938 220.875V225.49C448.938 226.226 448.979 226.785 449.063 227.167C449.146 227.542 449.264 227.872 449.417 228.156V228.333H445.896C445.729 227.986 445.604 227.562 445.521 227.062C445.444 226.556 445.406 226.035 445.406 225.5ZM445.833 221.448L445.854 223.323H444.302C443.976 223.323 443.698 223.368 443.469 223.458C443.247 223.549 443.066 223.674 442.927 223.833C442.795 223.986 442.698 224.16 442.635 224.354C442.58 224.549 442.552 224.753 442.552 224.969C442.552 225.177 442.601 225.365 442.698 225.531C442.802 225.691 442.941 225.816 443.115 225.906C443.288 225.997 443.483 226.042 443.698 226.042C444.087 226.042 444.417 225.969 444.688 225.823C444.965 225.67 445.177 225.486 445.323 225.271C445.469 225.056 445.542 224.854 445.542 224.667L446.313 226.104C446.174 226.382 446.014 226.663 445.833 226.948C445.66 227.233 445.441 227.497 445.177 227.74C444.92 227.976 444.604 228.17 444.229 228.323C443.854 228.469 443.399 228.542 442.865 228.542C442.17 228.542 441.531 228.399 440.948 228.115C440.372 227.83 439.91 227.434 439.563 226.927C439.215 226.413 439.042 225.823 439.042 225.156C439.042 224.573 439.146 224.052 439.354 223.594C439.569 223.135 439.892 222.747 440.323 222.427C440.753 222.108 441.302 221.865 441.969 221.698C442.635 221.531 443.42 221.448 444.323 221.448H445.833ZM454.781 225.927L457 217.062H460.698L457.01 228.333H454.823L454.781 225.927ZM453.469 217.062L455.656 225.927L455.635 228.333H453.437L449.76 217.062H453.469ZM467.052 228.542C466.135 228.542 465.316 228.399 464.594 228.115C463.872 227.823 463.26 227.424 462.76 226.917C462.267 226.41 461.889 225.826 461.625 225.167C461.368 224.507 461.24 223.809 461.24 223.073V222.677C461.24 221.851 461.354 221.087 461.583 220.385C461.812 219.677 462.153 219.059 462.604 218.531C463.056 218.003 463.622 217.594 464.302 217.302C464.983 217.003 465.774 216.854 466.677 216.854C467.476 216.854 468.191 216.983 468.823 217.24C469.455 217.497 469.99 217.865 470.427 218.344C470.872 218.823 471.208 219.403 471.437 220.083C471.674 220.764 471.792 221.528 471.792 222.375V223.802H462.583V221.604H468.365V221.333C468.372 220.958 468.306 220.639 468.167 220.375C468.035 220.111 467.84 219.91 467.583 219.771C467.326 219.632 467.014 219.562 466.646 219.562C466.264 219.562 465.948 219.646 465.698 219.812C465.455 219.979 465.264 220.208 465.125 220.5C464.993 220.785 464.899 221.115 464.844 221.49C464.788 221.865 464.76 222.26 464.76 222.677V223.073C464.76 223.49 464.816 223.868 464.927 224.208C465.045 224.549 465.212 224.84 465.427 225.083C465.649 225.319 465.913 225.503 466.219 225.635C466.531 225.767 466.885 225.833 467.281 225.833C467.76 225.833 468.233 225.743 468.698 225.562C469.163 225.382 469.562 225.083 469.896 224.667L471.49 226.562C471.26 226.889 470.934 227.205 470.51 227.51C470.094 227.816 469.594 228.066 469.01 228.26C468.427 228.448 467.774 228.542 467.052 228.542ZM476.927 212.333V228.333H473.406V212.333H476.927Z" fill="white"/>
<rect x="571" y="196.333" width="208" height="49.3333" rx="4.66667" fill="#888888" stroke="#888888" stroke-width="4"/>
<path d="M643.26 213.167H646.24L649.625 223.719L653.01 213.167H655.99L650.833 228.333H648.417L643.26 213.167ZM641.448 213.167H644.531L645.104 224.792V228.333H641.448V213.167ZM654.719 213.167H657.812V228.333H654.146V224.792L654.719 213.167ZM663.448 227.01L666.365 217.062H670.135L665.604 230.01C665.507 230.295 665.378 230.601 665.219 230.927C665.059 231.26 664.84 231.576 664.563 231.875C664.285 232.174 663.927 232.417 663.49 232.604C663.059 232.792 662.524 232.885 661.885 232.885C661.545 232.885 661.295 232.868 661.135 232.833C660.983 232.806 660.747 232.753 660.427 232.677V230.167C660.517 230.167 660.594 230.167 660.656 230.167C660.726 230.167 660.802 230.167 660.885 230.167C661.26 230.167 661.559 230.128 661.781 230.052C662.01 229.976 662.184 229.865 662.302 229.719C662.427 229.573 662.524 229.396 662.594 229.187L663.448 227.01ZM662.708 217.062L664.927 224.948L665.313 228.667H662.958L658.948 217.062H662.708ZM679.031 224.302C679.031 224.066 678.997 223.854 678.927 223.667C678.858 223.472 678.729 223.292 678.542 223.125C678.354 222.958 678.083 222.792 677.729 222.625C677.382 222.451 676.924 222.271 676.354 222.083C675.688 221.861 675.045 221.611 674.427 221.333C673.809 221.049 673.257 220.719 672.771 220.344C672.285 219.962 671.899 219.517 671.615 219.01C671.33 218.497 671.188 217.899 671.188 217.219C671.188 216.566 671.333 215.979 671.625 215.458C671.917 214.931 672.323 214.483 672.844 214.115C673.372 213.74 673.99 213.455 674.698 213.26C675.406 213.059 676.181 212.958 677.021 212.958C678.132 212.958 679.111 213.153 679.958 213.542C680.813 213.924 681.479 214.469 681.958 215.177C682.444 215.878 682.688 216.708 682.688 217.667H679.052C679.052 217.285 678.972 216.948 678.813 216.656C678.66 216.365 678.427 216.135 678.115 215.969C677.802 215.802 677.41 215.719 676.938 215.719C676.479 215.719 676.094 215.788 675.781 215.927C675.469 216.066 675.233 216.253 675.073 216.49C674.913 216.719 674.833 216.972 674.833 217.25C674.833 217.479 674.896 217.687 675.021 217.875C675.153 218.056 675.337 218.226 675.573 218.385C675.816 218.545 676.108 218.698 676.448 218.844C676.795 218.99 677.184 219.132 677.615 219.271C678.42 219.528 679.135 219.816 679.76 220.135C680.392 220.448 680.924 220.806 681.354 221.208C681.792 221.604 682.122 222.056 682.344 222.562C682.573 223.069 682.688 223.642 682.688 224.281C682.688 224.962 682.556 225.566 682.292 226.094C682.028 226.622 681.649 227.069 681.156 227.437C680.663 227.799 680.073 228.073 679.385 228.26C678.698 228.448 677.931 228.542 677.083 228.542C676.306 228.542 675.538 228.444 674.781 228.25C674.031 228.049 673.351 227.743 672.74 227.333C672.128 226.917 671.639 226.385 671.271 225.74C670.91 225.087 670.729 224.312 670.729 223.417H674.396C674.396 223.861 674.455 224.236 674.573 224.542C674.691 224.847 674.865 225.094 675.094 225.281C675.323 225.462 675.604 225.594 675.938 225.677C676.271 225.753 676.653 225.792 677.083 225.792C677.549 225.792 677.924 225.726 678.208 225.594C678.493 225.455 678.701 225.274 678.833 225.052C678.965 224.823 679.031 224.573 679.031 224.302ZM693.031 225.833L697.26 229.187L694.99 231.104L690.833 227.75L693.031 225.833ZM697.437 220.448V221.062C697.437 222.222 697.274 223.264 696.948 224.187C696.628 225.104 696.17 225.889 695.573 226.542C694.983 227.187 694.285 227.684 693.479 228.031C692.674 228.372 691.785 228.542 690.812 228.542C689.833 228.542 688.937 228.372 688.125 228.031C687.319 227.684 686.618 227.187 686.021 226.542C685.431 225.889 684.972 225.104 684.646 224.187C684.326 223.264 684.167 222.222 684.167 221.062V220.448C684.167 219.288 684.326 218.247 684.646 217.323C684.972 216.399 685.427 215.615 686.01 214.969C686.601 214.316 687.299 213.819 688.104 213.479C688.917 213.132 689.812 212.958 690.792 212.958C691.764 212.958 692.653 213.132 693.458 213.479C694.271 213.819 694.972 214.316 695.562 214.969C696.16 215.615 696.622 216.399 696.948 217.323C697.274 218.247 697.437 219.288 697.437 220.448ZM693.719 221.062V220.427C693.719 219.677 693.653 219.017 693.521 218.448C693.396 217.872 693.208 217.389 692.958 217C692.708 216.611 692.399 216.319 692.031 216.125C691.67 215.924 691.257 215.823 690.792 215.823C690.306 215.823 689.882 215.924 689.521 216.125C689.16 216.319 688.858 216.611 688.615 217C688.372 217.389 688.187 217.872 688.062 218.448C687.944 219.017 687.885 219.677 687.885 220.427V221.062C687.885 221.806 687.944 222.465 688.062 223.042C688.187 223.611 688.372 224.094 688.615 224.49C688.865 224.885 689.17 225.184 689.531 225.385C689.899 225.587 690.326 225.687 690.812 225.687C691.278 225.687 691.691 225.587 692.052 225.385C692.413 225.184 692.715 224.885 692.958 224.49C693.208 224.094 693.396 223.611 693.521 223.042C693.653 222.465 693.719 221.806 693.719 221.062ZM709.323 225.521V228.333H701.656V225.521H709.323ZM702.958 213.167V228.333H699.302V213.167H702.958Z" fill="white"/>
<rect x="803" y="196.333" width="208" height="49.3333" rx="4.66667" fill="#888888" stroke="#888888" stroke-width="4"/>
<path d="M870.333 213.167V228.333H866.677V213.167H870.333ZM876.229 219.479V222.292H869.292V219.479H876.229ZM876.823 213.167V215.99H869.292V213.167H876.823ZM881.885 217.062V228.333H878.365V217.062H881.885ZM878.156 214.156C878.156 213.656 878.337 213.247 878.698 212.927C879.059 212.608 879.528 212.448 880.104 212.448C880.681 212.448 881.149 212.608 881.51 212.927C881.872 213.247 882.052 213.656 882.052 214.156C882.052 214.656 881.872 215.066 881.51 215.385C881.149 215.705 880.681 215.865 880.104 215.865C879.528 215.865 879.059 215.705 878.698 215.385C878.337 215.066 878.156 214.656 878.156 214.156ZM887.594 219.854V228.333H884.083V217.062H887.365L887.594 219.854ZM890.927 216.979L890.865 220.24C890.726 220.226 890.538 220.208 890.302 220.187C890.066 220.167 889.868 220.156 889.708 220.156C889.299 220.156 888.944 220.205 888.646 220.302C888.354 220.392 888.111 220.531 887.917 220.719C887.729 220.899 887.59 221.128 887.5 221.406C887.417 221.684 887.378 222.007 887.385 222.375L886.75 221.958C886.75 221.201 886.823 220.514 886.969 219.896C887.122 219.271 887.337 218.733 887.615 218.281C887.892 217.823 888.229 217.472 888.625 217.229C889.021 216.979 889.465 216.854 889.958 216.854C890.132 216.854 890.302 216.865 890.469 216.885C890.642 216.906 890.795 216.937 890.927 216.979ZM897.385 228.542C896.469 228.542 895.649 228.399 894.927 228.115C894.205 227.823 893.594 227.424 893.094 226.917C892.601 226.41 892.222 225.826 891.958 225.167C891.701 224.507 891.573 223.809 891.573 223.073V222.677C891.573 221.851 891.688 221.087 891.917 220.385C892.146 219.677 892.486 219.059 892.938 218.531C893.389 218.003 893.955 217.594 894.635 217.302C895.316 217.003 896.108 216.854 897.01 216.854C897.809 216.854 898.524 216.983 899.156 217.24C899.788 217.497 900.323 217.865 900.76 218.344C901.205 218.823 901.542 219.403 901.771 220.083C902.007 220.764 902.125 221.528 902.125 222.375V223.802H892.917V221.604H898.698V221.333C898.705 220.958 898.639 220.639 898.5 220.375C898.368 220.111 898.174 219.91 897.917 219.771C897.66 219.632 897.347 219.562 896.979 219.562C896.597 219.562 896.281 219.646 896.031 219.812C895.788 219.979 895.597 220.208 895.458 220.5C895.326 220.785 895.233 221.115 895.177 221.49C895.122 221.865 895.094 222.26 895.094 222.677V223.073C895.094 223.49 895.149 223.868 895.26 224.208C895.378 224.549 895.545 224.84 895.76 225.083C895.983 225.319 896.247 225.503 896.552 225.635C896.865 225.767 897.219 225.833 897.615 225.833C898.094 225.833 898.566 225.743 899.031 225.562C899.497 225.382 899.896 225.083 900.229 224.667L901.823 226.562C901.594 226.889 901.267 227.205 900.844 227.51C900.427 227.816 899.927 228.066 899.344 228.26C898.76 228.448 898.108 228.542 897.385 228.542ZM903.583 212.333H907.094V225.562L906.729 228.333H903.583V212.333ZM914.01 222.573V222.792C914.01 223.646 913.924 224.424 913.75 225.125C913.576 225.826 913.309 226.434 912.948 226.948C912.587 227.455 912.132 227.847 911.583 228.125C911.035 228.403 910.385 228.542 909.635 228.542C908.955 228.542 908.372 228.396 907.885 228.104C907.399 227.806 906.993 227.396 906.667 226.875C906.34 226.347 906.076 225.74 905.875 225.052C905.674 224.358 905.514 223.615 905.396 222.823V222.562C905.514 221.778 905.674 221.042 905.875 220.354C906.076 219.66 906.34 219.052 906.667 218.531C906.993 218.003 907.396 217.594 907.875 217.302C908.361 217.003 908.941 216.854 909.615 216.854C910.372 216.854 911.024 216.997 911.573 217.281C912.128 217.566 912.587 217.965 912.948 218.479C913.309 218.993 913.576 219.597 913.75 220.292C913.924 220.986 914.01 221.747 914.01 222.573ZM910.5 222.792V222.573C910.5 222.163 910.476 221.778 910.427 221.417C910.378 221.056 910.292 220.736 910.167 220.458C910.042 220.181 909.865 219.962 909.635 219.802C909.406 219.642 909.108 219.562 908.74 219.562C908.365 219.562 908.049 219.625 907.792 219.75C907.542 219.875 907.34 220.056 907.188 220.292C907.042 220.521 906.938 220.806 906.875 221.146C906.813 221.479 906.785 221.858 906.792 222.281V223.104C906.778 223.681 906.83 224.174 906.948 224.583C907.066 224.993 907.271 225.306 907.563 225.521C907.854 225.736 908.253 225.844 908.76 225.844C909.135 225.844 909.438 225.771 909.667 225.625C909.903 225.479 910.08 225.271 910.198 225C910.316 224.729 910.396 224.406 910.438 224.031C910.479 223.656 910.5 223.243 910.5 222.792ZM921.427 225.5V220.854C921.427 220.535 921.382 220.26 921.292 220.031C921.201 219.802 921.059 219.625 920.865 219.5C920.67 219.368 920.41 219.302 920.083 219.302C919.819 219.302 919.594 219.347 919.406 219.437C919.219 219.528 919.076 219.663 918.979 219.844C918.882 220.024 918.833 220.253 918.833 220.531H915.323C915.323 220.01 915.437 219.528 915.667 219.083C915.903 218.632 916.236 218.24 916.667 217.906C917.104 217.573 917.625 217.316 918.229 217.135C918.84 216.948 919.521 216.854 920.271 216.854C921.167 216.854 921.965 217.003 922.667 217.302C923.375 217.601 923.934 218.049 924.344 218.646C924.753 219.236 924.958 219.979 924.958 220.875V225.49C924.958 226.226 925 226.785 925.083 227.167C925.167 227.542 925.285 227.872 925.437 228.156V228.333H921.917C921.75 227.986 921.625 227.562 921.542 227.062C921.465 226.556 921.427 226.035 921.427 225.5ZM921.854 221.448L921.875 223.323H920.323C919.997 223.323 919.719 223.368 919.49 223.458C919.267 223.549 919.087 223.674 918.948 223.833C918.816 223.986 918.719 224.16 918.656 224.354C918.601 224.549 918.573 224.753 918.573 224.969C918.573 225.177 918.622 225.365 918.719 225.531C918.823 225.691 918.962 225.816 919.135 225.906C919.309 225.997 919.503 226.042 919.719 226.042C920.108 226.042 920.437 225.969 920.708 225.823C920.986 225.67 921.198 225.486 921.344 225.271C921.49 225.056 921.562 224.854 921.562 224.667L922.333 226.104C922.194 226.382 922.035 226.663 921.854 226.948C921.681 227.233 921.462 227.497 921.198 227.74C920.941 227.976 920.625 228.17 920.25 228.323C919.875 228.469 919.42 228.542 918.885 228.542C918.191 228.542 917.552 228.399 916.969 228.115C916.392 227.83 915.931 227.434 915.583 226.927C915.236 226.413 915.062 225.823 915.062 225.156C915.062 224.573 915.167 224.052 915.375 223.594C915.59 223.135 915.913 222.747 916.344 222.427C916.774 222.108 917.323 221.865 917.99 221.698C918.656 221.531 919.441 221.448 920.344 221.448H921.854ZM932.812 225.167C932.812 224.972 932.747 224.806 932.615 224.667C932.49 224.521 932.267 224.389 931.948 224.271C931.628 224.146 931.181 224.021 930.604 223.896C930.056 223.778 929.538 223.622 929.052 223.427C928.573 223.233 928.153 222.997 927.792 222.719C927.431 222.441 927.146 222.111 926.937 221.729C926.736 221.347 926.635 220.91 926.635 220.417C926.635 219.937 926.736 219.486 926.937 219.062C927.146 218.632 927.448 218.253 927.844 217.927C928.247 217.594 928.736 217.333 929.312 217.146C929.889 216.951 930.545 216.854 931.281 216.854C932.295 216.854 933.17 217.01 933.906 217.323C934.642 217.628 935.208 218.059 935.604 218.615C936.007 219.163 936.208 219.799 936.208 220.521H932.698C932.698 220.236 932.649 219.993 932.552 219.792C932.462 219.59 932.312 219.437 932.104 219.333C931.896 219.222 931.618 219.167 931.271 219.167C931.028 219.167 930.806 219.212 930.604 219.302C930.41 219.392 930.253 219.517 930.135 219.677C930.017 219.837 929.958 220.024 929.958 220.24C929.958 220.392 929.993 220.531 930.062 220.656C930.139 220.774 930.253 220.885 930.406 220.99C930.559 221.087 930.753 221.177 930.99 221.26C931.226 221.337 931.51 221.406 931.844 221.469C932.601 221.608 933.309 221.806 933.969 222.062C934.628 222.319 935.163 222.684 935.573 223.156C935.99 223.628 936.198 224.264 936.198 225.062C936.198 225.562 936.083 226.024 935.854 226.448C935.625 226.865 935.295 227.233 934.865 227.552C934.434 227.865 933.917 228.108 933.312 228.281C932.708 228.455 932.028 228.542 931.271 228.542C930.194 228.542 929.285 228.351 928.542 227.969C927.799 227.58 927.236 227.094 926.854 226.51C926.479 225.92 926.292 225.323 926.292 224.719H929.562C929.576 225.066 929.66 225.351 929.812 225.573C929.972 225.795 930.184 225.958 930.448 226.062C930.712 226.167 931.017 226.219 931.365 226.219C931.684 226.219 931.948 226.174 932.156 226.083C932.372 225.993 932.535 225.872 932.646 225.719C932.757 225.559 932.812 225.375 932.812 225.167ZM943.302 228.542C942.385 228.542 941.566 228.399 940.844 228.115C940.122 227.823 939.51 227.424 939.01 226.917C938.517 226.41 938.139 225.826 937.875 225.167C937.618 224.507 937.49 223.809 937.49 223.073V222.677C937.49 221.851 937.604 221.087 937.833 220.385C938.062 219.677 938.403 219.059 938.854 218.531C939.306 218.003 939.872 217.594 940.552 217.302C941.233 217.003 942.024 216.854 942.927 216.854C943.726 216.854 944.441 216.983 945.073 217.24C945.705 217.497 946.24 217.865 946.677 218.344C947.122 218.823 947.458 219.403 947.687 220.083C947.924 220.764 948.042 221.528 948.042 222.375V223.802H938.833V221.604H944.615V221.333C944.622 220.958 944.556 220.639 944.417 220.375C944.285 220.111 944.09 219.91 943.833 219.771C943.576 219.632 943.264 219.562 942.896 219.562C942.514 219.562 942.198 219.646 941.948 219.812C941.705 219.979 941.514 220.208 941.375 220.5C941.243 220.785 941.149 221.115 941.094 221.49C941.038 221.865 941.01 222.26 941.01 222.677V223.073C941.01 223.49 941.066 223.868 941.177 224.208C941.295 224.549 941.462 224.84 941.677 225.083C941.899 225.319 942.163 225.503 942.469 225.635C942.781 225.767 943.135 225.833 943.531 225.833C944.01 225.833 944.483 225.743 944.948 225.562C945.413 225.382 945.812 225.083 946.146 224.667L947.74 226.562C947.51 226.889 947.184 227.205 946.76 227.51C946.344 227.816 945.844 228.066 945.26 228.26C944.677 228.448 944.024 228.542 943.302 228.542Z" fill="white"/>
<rect x="1035" y="196.333" width="208" height="49.3333" rx="4.66667" fill="#888888" stroke="#888888" stroke-width="4"/>
<path d="M1108.29 216.354L1104.59 228.333H1100.67L1106.24 213.167H1108.73L1108.29 216.354ZM1111.35 228.333L1107.65 216.354L1107.17 213.167H1109.69L1115.29 228.333H1111.35ZM1111.21 222.677V225.5H1103.43V222.677H1111.21ZM1122.72 225.75V212.333H1126.25V228.333H1123.08L1122.72 225.75ZM1115.8 222.833V222.615C1115.8 221.76 1115.9 220.983 1116.08 220.281C1116.27 219.573 1116.55 218.965 1116.92 218.458C1117.28 217.944 1117.74 217.549 1118.29 217.271C1118.84 216.993 1119.47 216.854 1120.19 216.854C1120.83 216.854 1121.39 217.003 1121.86 217.302C1122.34 217.594 1122.75 218.003 1123.09 218.531C1123.43 219.059 1123.71 219.677 1123.93 220.385C1124.14 221.087 1124.31 221.844 1124.42 222.656V222.917C1124.31 223.681 1124.14 224.403 1123.93 225.083C1123.71 225.757 1123.43 226.354 1123.09 226.875C1122.75 227.396 1122.34 227.806 1121.85 228.104C1121.37 228.396 1120.81 228.542 1120.17 228.542C1119.45 228.542 1118.82 228.399 1118.27 228.115C1117.73 227.83 1117.27 227.431 1116.91 226.917C1116.55 226.403 1116.27 225.799 1116.08 225.104C1115.9 224.41 1115.8 223.653 1115.8 222.833ZM1119.31 222.615V222.833C1119.31 223.257 1119.34 223.649 1119.4 224.01C1119.45 224.372 1119.55 224.691 1119.68 224.969C1119.82 225.24 1120 225.451 1120.22 225.604C1120.45 225.757 1120.73 225.833 1121.06 225.833C1121.51 225.833 1121.89 225.726 1122.18 225.51C1122.48 225.295 1122.69 224.99 1122.83 224.594C1122.98 224.198 1123.04 223.733 1123.02 223.198V222.375C1123.03 221.917 1123 221.514 1122.93 221.167C1122.85 220.812 1122.73 220.517 1122.56 220.281C1122.4 220.045 1122.2 219.868 1121.95 219.75C1121.7 219.625 1121.42 219.562 1121.08 219.562C1120.76 219.562 1120.48 219.639 1120.25 219.792C1120.03 219.944 1119.85 220.16 1119.71 220.437C1119.57 220.708 1119.47 221.031 1119.41 221.406C1119.34 221.774 1119.31 222.177 1119.31 222.615ZM1131.78 219.854V228.333H1128.27V217.062H1131.55L1131.78 219.854ZM1135.11 216.979L1135.05 220.24C1134.91 220.226 1134.73 220.208 1134.49 220.187C1134.25 220.167 1134.06 220.156 1133.9 220.156C1133.49 220.156 1133.13 220.205 1132.83 220.302C1132.54 220.392 1132.3 220.531 1132.1 220.719C1131.92 220.899 1131.78 221.128 1131.69 221.406C1131.6 221.684 1131.57 222.007 1131.57 222.375L1130.94 221.958C1130.94 221.201 1131.01 220.514 1131.16 219.896C1131.31 219.271 1131.52 218.733 1131.8 218.281C1132.08 217.823 1132.42 217.472 1132.81 217.229C1133.21 216.979 1133.65 216.854 1134.15 216.854C1134.32 216.854 1134.49 216.865 1134.66 216.885C1134.83 216.906 1134.98 216.937 1135.11 216.979ZM1142.91 225.594V217.062H1146.43V228.333H1143.14L1142.91 225.594ZM1143.24 223.302L1144.16 223.281C1144.16 224.038 1144.07 224.74 1143.89 225.385C1143.7 226.024 1143.44 226.58 1143.08 227.052C1142.74 227.524 1142.31 227.892 1141.79 228.156C1141.28 228.413 1140.7 228.542 1140.03 228.542C1139.48 228.542 1138.97 228.465 1138.5 228.312C1138.04 228.153 1137.65 227.906 1137.31 227.573C1136.98 227.233 1136.72 226.799 1136.53 226.271C1136.35 225.736 1136.26 225.097 1136.26 224.354V217.062H1139.77V224.375C1139.77 224.625 1139.8 224.84 1139.86 225.021C1139.93 225.201 1140.02 225.354 1140.14 225.479C1140.25 225.597 1140.4 225.687 1140.57 225.75C1140.75 225.806 1140.96 225.833 1141.19 225.833C1141.72 225.833 1142.13 225.722 1142.43 225.5C1142.73 225.278 1142.93 224.976 1143.05 224.594C1143.18 224.212 1143.24 223.781 1143.24 223.302ZM1152.07 217.062V228.333H1148.55V217.062H1152.07ZM1148.34 214.156C1148.34 213.656 1148.52 213.247 1148.89 212.927C1149.25 212.608 1149.72 212.448 1150.29 212.448C1150.87 212.448 1151.34 212.608 1151.7 212.927C1152.06 213.247 1152.24 213.656 1152.24 214.156C1152.24 214.656 1152.06 215.066 1151.7 215.385C1151.34 215.705 1150.87 215.865 1150.29 215.865C1149.72 215.865 1149.25 215.705 1148.89 215.385C1148.52 215.066 1148.34 214.656 1148.34 214.156ZM1157.69 219.469V228.333H1154.18V217.062H1157.47L1157.69 219.469ZM1157.27 222.312L1156.45 222.333C1156.45 221.472 1156.55 220.705 1156.76 220.031C1156.97 219.351 1157.26 218.774 1157.65 218.302C1158.03 217.83 1158.48 217.472 1159.01 217.229C1159.55 216.979 1160.14 216.854 1160.79 216.854C1161.31 216.854 1161.79 216.931 1162.22 217.083C1162.66 217.236 1163.03 217.483 1163.34 217.823C1163.66 218.163 1163.91 218.615 1164.07 219.177C1164.25 219.733 1164.33 220.42 1164.33 221.24V228.333H1160.8V221.229C1160.8 220.778 1160.74 220.434 1160.61 220.198C1160.49 219.955 1160.31 219.788 1160.07 219.698C1159.84 219.608 1159.55 219.562 1159.21 219.562C1158.85 219.562 1158.54 219.632 1158.29 219.771C1158.04 219.91 1157.84 220.104 1157.69 220.354C1157.54 220.597 1157.43 220.885 1157.36 221.219C1157.3 221.552 1157.27 221.917 1157.27 222.312ZM1165.84 222.812V222.594C1165.84 221.767 1165.96 221.007 1166.2 220.312C1166.43 219.611 1166.78 219.003 1167.24 218.49C1167.7 217.976 1168.26 217.576 1168.94 217.292C1169.61 217 1170.39 216.854 1171.27 216.854C1172.16 216.854 1172.94 217 1173.61 217.292C1174.3 217.576 1174.86 217.976 1175.32 218.49C1175.78 219.003 1176.13 219.611 1176.36 220.312C1176.6 221.007 1176.72 221.767 1176.72 222.594V222.812C1176.72 223.632 1176.6 224.392 1176.36 225.094C1176.13 225.788 1175.78 226.396 1175.32 226.917C1174.86 227.431 1174.3 227.83 1173.62 228.115C1172.95 228.399 1172.17 228.542 1171.29 228.542C1170.41 228.542 1169.63 228.399 1168.95 228.115C1168.27 227.83 1167.7 227.431 1167.24 226.917C1166.78 226.396 1166.43 225.788 1166.2 225.094C1165.96 224.392 1165.84 223.632 1165.84 222.812ZM1169.35 222.594V222.812C1169.35 223.236 1169.39 223.632 1169.45 224C1169.51 224.368 1169.61 224.691 1169.76 224.969C1169.91 225.24 1170.1 225.451 1170.35 225.604C1170.6 225.757 1170.92 225.833 1171.29 225.833C1171.66 225.833 1171.97 225.757 1172.21 225.604C1172.46 225.451 1172.66 225.24 1172.8 224.969C1172.95 224.691 1173.05 224.368 1173.11 224C1173.18 223.632 1173.21 223.236 1173.21 222.812V222.594C1173.21 222.184 1173.18 221.799 1173.11 221.437C1173.05 221.069 1172.95 220.747 1172.8 220.469C1172.66 220.184 1172.46 219.962 1172.21 219.802C1171.96 219.642 1171.65 219.562 1171.27 219.562C1170.9 219.562 1170.59 219.642 1170.34 219.802C1170.1 219.962 1169.91 220.184 1169.76 220.469C1169.61 220.747 1169.51 221.069 1169.45 221.437C1169.39 221.799 1169.35 222.184 1169.35 222.594Z" fill="white"/>
</svg>
