<svg width="1363" height="167" viewBox="0 0 1363 167" fill="none" xmlns="http://www.w3.org/2000/svg">
<g style="mix-blend-mode:exclusion">
<rect width="1363" height="167" rx="15" fill="white" fill-opacity="0.05"/>
</g>
<g style="mix-blend-mode:exclusion">
<path d="M0 15C0 6.71573 6.71573 0 15 0H37V167H15C6.71573 167 0 160.284 0 152V15Z" fill="white" fill-opacity="0.25"/>
</g>
<g style="mix-blend-mode:exclusion">
<path d="M100.906 54.9219L93.3945 52.2383V49.0859L103.602 53.375V55.6367L100.906 54.9219ZM93.3945 57.1719L100.918 54.4297L103.602 53.7852V56.0352L93.3945 60.3242V57.1719ZM118.895 44.9375V62H115.391V44.9375H118.895ZM124.145 44.9375V47.6914H110.223V44.9375H124.145ZM128.492 52.0859V62H125.117V49.3203H128.293L128.492 52.0859ZM132.312 49.2383L132.254 52.3672C132.09 52.3438 131.891 52.3242 131.656 52.3086C131.43 52.2852 131.223 52.2734 131.035 52.2734C130.559 52.2734 130.145 52.3359 129.793 52.4609C129.449 52.5781 129.16 52.7539 128.926 52.9883C128.699 53.2227 128.527 53.5078 128.41 53.8438C128.301 54.1797 128.238 54.5625 128.223 54.9922L127.543 54.7812C127.543 53.9609 127.625 53.207 127.789 52.5195C127.953 51.8242 128.191 51.2188 128.504 50.7031C128.824 50.1875 129.215 49.7891 129.676 49.5078C130.137 49.2266 130.664 49.0859 131.258 49.0859C131.445 49.0859 131.637 49.1016 131.832 49.1328C132.027 49.1562 132.188 49.1914 132.312 49.2383ZM140.352 59.1406V53.4922C140.352 53.0859 140.285 52.7383 140.152 52.4492C140.02 52.1523 139.812 51.9219 139.531 51.7578C139.258 51.5938 138.902 51.5117 138.465 51.5117C138.09 51.5117 137.766 51.5781 137.492 51.7109C137.219 51.8359 137.008 52.0195 136.859 52.2617C136.711 52.4961 136.637 52.7734 136.637 53.0938H133.262C133.262 52.5547 133.387 52.043 133.637 51.5586C133.887 51.0742 134.25 50.6484 134.727 50.2812C135.203 49.9062 135.77 49.6133 136.426 49.4023C137.09 49.1914 137.832 49.0859 138.652 49.0859C139.637 49.0859 140.512 49.25 141.277 49.5781C142.043 49.9062 142.645 50.3984 143.082 51.0547C143.527 51.7109 143.75 52.5312 143.75 53.5156V58.9414C143.75 59.6367 143.793 60.207 143.879 60.6523C143.965 61.0898 144.09 61.4727 144.254 61.8008V62H140.844C140.68 61.6562 140.555 61.2266 140.469 60.7109C140.391 60.1875 140.352 59.6641 140.352 59.1406ZM140.797 54.2773L140.82 56.1875H138.934C138.488 56.1875 138.102 56.2383 137.773 56.3398C137.445 56.4414 137.176 56.5859 136.965 56.7734C136.754 56.9531 136.598 57.1641 136.496 57.4062C136.402 57.6484 136.355 57.9141 136.355 58.2031C136.355 58.4922 136.422 58.7539 136.555 58.9883C136.688 59.2148 136.879 59.3945 137.129 59.5273C137.379 59.6523 137.672 59.7148 138.008 59.7148C138.516 59.7148 138.957 59.6133 139.332 59.4102C139.707 59.207 139.996 58.957 140.199 58.6602C140.41 58.3633 140.52 58.082 140.527 57.8164L141.418 59.2461C141.293 59.5664 141.121 59.8984 140.902 60.2422C140.691 60.5859 140.422 60.9102 140.094 61.2148C139.766 61.5117 139.371 61.7578 138.91 61.9531C138.449 62.1406 137.902 62.2344 137.27 62.2344C136.465 62.2344 135.734 62.0742 135.078 61.7539C134.43 61.4258 133.914 60.9766 133.531 60.4062C133.156 59.8281 132.969 59.1719 132.969 58.4375C132.969 57.7734 133.094 57.1836 133.344 56.668C133.594 56.1523 133.961 55.7188 134.445 55.3672C134.938 55.0078 135.551 54.7383 136.285 54.5586C137.02 54.3711 137.871 54.2773 138.84 54.2773H140.797ZM151.59 59.5977C152.004 59.5977 152.371 59.5195 152.691 59.3633C153.012 59.1992 153.262 58.9727 153.441 58.6836C153.629 58.3867 153.727 58.0391 153.734 57.6406H156.91C156.902 58.5312 156.664 59.3242 156.195 60.0195C155.727 60.707 155.098 61.25 154.309 61.6484C153.52 62.0391 152.637 62.2344 151.66 62.2344C150.676 62.2344 149.816 62.0703 149.082 61.7422C148.355 61.4141 147.75 60.9609 147.266 60.3828C146.781 59.7969 146.418 59.1172 146.176 58.3438C145.934 57.5625 145.812 56.7266 145.812 55.8359V55.4961C145.812 54.5977 145.934 53.7617 146.176 52.9883C146.418 52.207 146.781 51.5273 147.266 50.9492C147.75 50.3633 148.355 49.9062 149.082 49.5781C149.809 49.25 150.66 49.0859 151.637 49.0859C152.676 49.0859 153.586 49.2852 154.367 49.6836C155.156 50.082 155.773 50.6523 156.219 51.3945C156.672 52.1289 156.902 53 156.91 54.0078H153.734C153.727 53.5859 153.637 53.2031 153.465 52.8594C153.301 52.5156 153.059 52.2422 152.738 52.0391C152.426 51.8281 152.039 51.7227 151.578 51.7227C151.086 51.7227 150.684 51.8281 150.371 52.0391C150.059 52.2422 149.816 52.5234 149.645 52.8828C149.473 53.2344 149.352 53.6367 149.281 54.0898C149.219 54.5352 149.188 55.0039 149.188 55.4961V55.8359C149.188 56.3281 149.219 56.8008 149.281 57.2539C149.344 57.707 149.461 58.1094 149.633 58.4609C149.812 58.8125 150.059 59.0898 150.371 59.293C150.684 59.4961 151.09 59.5977 151.59 59.5977ZM162.242 43.9883V62H158.867V43.9883H162.242ZM170.234 49.3203L164.727 55.6016L161.773 58.5898L160.543 56.1523L162.887 53.1758L166.18 49.3203H170.234ZM166.73 62L162.98 56.1406L165.312 54.1016L170.621 62H166.73ZM177.289 62.2344C176.305 62.2344 175.422 62.0781 174.641 61.7656C173.859 61.4453 173.195 61.0039 172.648 60.4414C172.109 59.8789 171.695 59.2266 171.406 58.4844C171.117 57.7344 170.973 56.9375 170.973 56.0938V55.625C170.973 54.6641 171.109 53.7852 171.383 52.9883C171.656 52.1914 172.047 51.5 172.555 50.9141C173.07 50.3281 173.695 49.8789 174.43 49.5664C175.164 49.2461 175.992 49.0859 176.914 49.0859C177.812 49.0859 178.609 49.2344 179.305 49.5312C180 49.8281 180.582 50.25 181.051 50.7969C181.527 51.3438 181.887 52 182.129 52.7656C182.371 53.5234 182.492 54.3672 182.492 55.2969V56.7031H172.414V54.4531H179.176V54.1953C179.176 53.7266 179.09 53.3086 178.918 52.9414C178.754 52.5664 178.504 52.2695 178.168 52.0508C177.832 51.832 177.402 51.7227 176.879 51.7227C176.434 51.7227 176.051 51.8203 175.73 52.0156C175.41 52.2109 175.148 52.4844 174.945 52.8359C174.75 53.1875 174.602 53.6016 174.5 54.0781C174.406 54.5469 174.359 55.0625 174.359 55.625V56.0938C174.359 56.6016 174.43 57.0703 174.57 57.5C174.719 57.9297 174.926 58.3008 175.191 58.6133C175.465 58.9258 175.793 59.168 176.176 59.3398C176.566 59.5117 177.008 59.5977 177.5 59.5977C178.109 59.5977 178.676 59.4805 179.199 59.2461C179.73 59.0039 180.188 58.6406 180.57 58.1562L182.211 59.9375C181.945 60.3203 181.582 60.6875 181.121 61.0391C180.668 61.3906 180.121 61.6797 179.48 61.9062C178.84 62.125 178.109 62.2344 177.289 62.2344ZM187.789 52.0859V62H184.414V49.3203H187.59L187.789 52.0859ZM191.609 49.2383L191.551 52.3672C191.387 52.3438 191.188 52.3242 190.953 52.3086C190.727 52.2852 190.52 52.2734 190.332 52.2734C189.855 52.2734 189.441 52.3359 189.09 52.4609C188.746 52.5781 188.457 52.7539 188.223 52.9883C187.996 53.2227 187.824 53.5078 187.707 53.8438C187.598 54.1797 187.535 54.5625 187.52 54.9922L186.84 54.7812C186.84 53.9609 186.922 53.207 187.086 52.5195C187.25 51.8242 187.488 51.2188 187.801 50.7031C188.121 50.1875 188.512 49.7891 188.973 49.5078C189.434 49.2266 189.961 49.0859 190.555 49.0859C190.742 49.0859 190.934 49.1016 191.129 49.1328C191.324 49.1562 191.484 49.1914 191.609 49.2383Z" fill="white" fill-opacity="0.5"/>
</g>
<g style="mix-blend-mode:exclusion">
<path d="M109.93 86.0078V118H102.217V86.0078H109.93ZM119.554 86.0078V91.9624H92.813V86.0078H119.554ZM132.012 118.439C130.079 118.439 128.35 118.139 126.827 117.539C125.303 116.923 124.014 116.081 122.959 115.012C121.919 113.942 121.121 112.712 120.564 111.32C120.022 109.929 119.751 108.457 119.751 106.904V106.069C119.751 104.326 119.993 102.714 120.477 101.235C120.96 99.7407 121.678 98.437 122.63 97.3237C123.582 96.2104 124.776 95.3462 126.211 94.731C127.647 94.1011 129.317 93.7861 131.221 93.7861C132.906 93.7861 134.415 94.0571 135.748 94.5991C137.081 95.1411 138.208 95.9175 139.131 96.9282C140.069 97.939 140.779 99.1621 141.263 100.598C141.761 102.033 142.01 103.645 142.01 105.432V108.442H122.586V103.806H134.781V103.234C134.795 102.443 134.656 101.77 134.363 101.213C134.085 100.656 133.675 100.231 133.133 99.9385C132.591 99.6455 131.932 99.499 131.155 99.499C130.35 99.499 129.683 99.6748 129.156 100.026C128.643 100.378 128.24 100.861 127.947 101.477C127.669 102.077 127.471 102.773 127.354 103.564C127.237 104.355 127.178 105.19 127.178 106.069V106.904C127.178 107.783 127.295 108.581 127.53 109.299C127.779 110.017 128.13 110.632 128.584 111.145C129.053 111.643 129.61 112.031 130.254 112.309C130.914 112.587 131.661 112.727 132.496 112.727C133.506 112.727 134.502 112.536 135.484 112.155C136.465 111.774 137.308 111.145 138.011 110.266L141.373 114.265C140.889 114.953 140.201 115.62 139.307 116.264C138.428 116.909 137.374 117.436 136.143 117.846C134.913 118.242 133.536 118.439 132.012 118.439ZM155.062 112.727C155.75 112.727 156.336 112.602 156.819 112.353C157.317 112.089 157.691 111.723 157.94 111.254C158.204 110.771 158.328 110.192 158.313 109.519H165.279C165.293 111.306 164.854 112.873 163.96 114.221C163.082 115.554 161.88 116.594 160.357 117.341C158.848 118.073 157.142 118.439 155.237 118.439C153.377 118.439 151.751 118.139 150.359 117.539C148.968 116.923 147.803 116.074 146.866 114.99C145.943 113.891 145.247 112.609 144.778 111.145C144.324 109.68 144.097 108.09 144.097 106.376V105.871C144.097 104.157 144.324 102.568 144.778 101.103C145.247 99.6235 145.943 98.3418 146.866 97.2578C147.803 96.1592 148.96 95.3096 150.337 94.709C151.729 94.0938 153.348 93.7861 155.193 93.7861C157.171 93.7861 158.914 94.1597 160.423 94.9067C161.946 95.6538 163.14 96.7378 164.004 98.1587C164.869 99.5796 165.293 101.301 165.279 103.322H158.313C158.328 102.604 158.218 101.96 157.984 101.389C157.75 100.817 157.383 100.363 156.885 100.026C156.402 99.6748 155.779 99.499 155.018 99.499C154.256 99.499 153.641 99.6675 153.172 100.004C152.703 100.341 152.344 100.81 152.095 101.411C151.861 101.997 151.7 102.67 151.612 103.432C151.539 104.194 151.502 105.007 151.502 105.871V106.376C151.502 107.255 151.539 108.083 151.612 108.859C151.7 109.621 151.868 110.295 152.117 110.881C152.366 111.452 152.725 111.906 153.194 112.243C153.663 112.565 154.285 112.727 155.062 112.727ZM175.694 84.25V118H168.289V84.25H175.694ZM174.815 105.3L173.079 105.344C173.079 103.674 173.284 102.136 173.694 100.729C174.104 99.3232 174.69 98.1001 175.452 97.0601C176.214 96.02 177.129 95.2144 178.199 94.6431C179.268 94.0718 180.455 93.7861 181.758 93.7861C182.93 93.7861 184 93.9546 184.966 94.2915C185.948 94.6284 186.79 95.1704 187.493 95.9175C188.211 96.6646 188.76 97.6387 189.141 98.8398C189.537 100.041 189.734 101.506 189.734 103.234V118H182.286V103.19C182.286 102.224 182.146 101.477 181.868 100.949C181.604 100.407 181.224 100.034 180.726 99.8286C180.228 99.6089 179.62 99.499 178.902 99.499C178.038 99.499 177.334 99.6455 176.792 99.9385C176.25 100.231 175.833 100.642 175.54 101.169C175.262 101.682 175.071 102.29 174.969 102.993C174.866 103.696 174.815 104.465 174.815 105.3ZM221.88 109.497C221.88 108.999 221.807 108.552 221.661 108.156C221.514 107.746 221.243 107.365 220.848 107.014C220.452 106.662 219.881 106.311 219.134 105.959C218.401 105.593 217.435 105.212 216.233 104.816C214.827 104.348 213.472 103.82 212.168 103.234C210.865 102.634 209.7 101.938 208.675 101.147C207.649 100.341 206.836 99.4038 206.236 98.3345C205.635 97.2505 205.335 95.9907 205.335 94.5552C205.335 93.1782 205.643 91.9404 206.258 90.8418C206.873 89.7285 207.73 88.7837 208.829 88.0073C209.942 87.2163 211.246 86.6157 212.74 86.2056C214.234 85.7808 215.867 85.5684 217.64 85.5684C219.983 85.5684 222.049 85.9785 223.836 86.7988C225.638 87.6045 227.044 88.7544 228.055 90.2485C229.08 91.728 229.593 93.4785 229.593 95.5H221.924C221.924 94.6943 221.756 93.9839 221.419 93.3687C221.097 92.7534 220.606 92.27 219.947 91.9185C219.288 91.5669 218.46 91.3911 217.464 91.3911C216.497 91.3911 215.684 91.5376 215.025 91.8306C214.366 92.1235 213.868 92.519 213.531 93.0171C213.194 93.5005 213.025 94.0352 213.025 94.6211C213.025 95.1045 213.157 95.5439 213.421 95.9395C213.699 96.3203 214.087 96.6792 214.585 97.0161C215.098 97.353 215.713 97.6753 216.431 97.9829C217.164 98.2905 217.984 98.5908 218.892 98.8838C220.591 99.4258 222.1 100.034 223.418 100.708C224.751 101.367 225.872 102.121 226.78 102.971C227.703 103.806 228.399 104.758 228.868 105.827C229.351 106.896 229.593 108.105 229.593 109.453C229.593 110.888 229.314 112.163 228.758 113.276C228.201 114.389 227.403 115.334 226.363 116.11C225.323 116.872 224.078 117.451 222.627 117.846C221.177 118.242 219.559 118.439 217.771 118.439C216.131 118.439 214.512 118.234 212.916 117.824C211.333 117.399 209.898 116.755 208.609 115.891C207.32 115.012 206.287 113.891 205.511 112.529C204.749 111.152 204.368 109.519 204.368 107.629H212.103C212.103 108.566 212.227 109.357 212.476 110.002C212.725 110.646 213.091 111.167 213.575 111.562C214.058 111.943 214.651 112.221 215.354 112.397C216.058 112.558 216.863 112.639 217.771 112.639C218.753 112.639 219.544 112.5 220.145 112.221C220.745 111.928 221.185 111.547 221.463 111.079C221.741 110.595 221.88 110.068 221.88 109.497ZM245.743 94.2256V99.3672H231.417V94.2256H245.743ZM234.427 88.3149H241.832V110.244C241.832 110.874 241.905 111.364 242.051 111.716C242.198 112.053 242.447 112.294 242.798 112.441C243.165 112.573 243.648 112.639 244.249 112.639C244.673 112.639 245.025 112.631 245.303 112.617C245.582 112.587 245.845 112.551 246.094 112.507V117.802C245.464 118.007 244.805 118.161 244.117 118.264C243.428 118.381 242.696 118.439 241.919 118.439C240.337 118.439 238.982 118.19 237.854 117.692C236.741 117.194 235.892 116.411 235.306 115.341C234.72 114.272 234.427 112.88 234.427 111.167V88.3149ZM261.036 112.023V102.224C261.036 101.55 260.94 100.971 260.75 100.488C260.56 100.004 260.259 99.6309 259.849 99.3672C259.439 99.0889 258.89 98.9497 258.201 98.9497C257.645 98.9497 257.168 99.0449 256.773 99.2354C256.377 99.4258 256.077 99.7114 255.872 100.092C255.667 100.473 255.564 100.957 255.564 101.542H248.16C248.16 100.444 248.401 99.4258 248.885 98.4883C249.383 97.5361 250.086 96.7085 250.994 96.0054C251.917 95.3022 253.016 94.7603 254.29 94.3794C255.579 93.9839 257.015 93.7861 258.597 93.7861C260.486 93.7861 262.171 94.1011 263.65 94.731C265.145 95.3608 266.324 96.3057 267.188 97.5654C268.052 98.8105 268.484 100.378 268.484 102.268V112.001C268.484 113.554 268.572 114.733 268.748 115.539C268.924 116.33 269.173 117.026 269.495 117.626V118H262.068C261.717 117.268 261.453 116.374 261.277 115.319C261.116 114.25 261.036 113.151 261.036 112.023ZM261.937 103.476L261.98 107.431H258.707C258.018 107.431 257.432 107.526 256.949 107.717C256.48 107.907 256.099 108.171 255.806 108.508C255.528 108.83 255.323 109.196 255.191 109.606C255.074 110.017 255.015 110.449 255.015 110.903C255.015 111.342 255.118 111.738 255.323 112.089C255.542 112.426 255.835 112.69 256.202 112.88C256.568 113.071 256.978 113.166 257.432 113.166C258.252 113.166 258.948 113.012 259.52 112.705C260.105 112.382 260.552 111.994 260.86 111.54C261.167 111.086 261.321 110.661 261.321 110.266L262.947 113.298C262.654 113.884 262.317 114.477 261.937 115.078C261.57 115.678 261.109 116.235 260.552 116.748C260.01 117.246 259.344 117.656 258.553 117.978C257.762 118.286 256.802 118.439 255.674 118.439C254.209 118.439 252.862 118.139 251.631 117.539C250.416 116.938 249.441 116.103 248.709 115.034C247.977 113.95 247.61 112.705 247.61 111.298C247.61 110.068 247.83 108.969 248.27 108.002C248.724 107.036 249.405 106.215 250.313 105.542C251.221 104.868 252.378 104.355 253.785 104.003C255.191 103.652 256.846 103.476 258.75 103.476H261.937ZM282.635 112.727C283.323 112.727 283.909 112.602 284.393 112.353C284.891 112.089 285.264 111.723 285.513 111.254C285.777 110.771 285.901 110.192 285.887 109.519H292.852C292.867 111.306 292.427 112.873 291.534 114.221C290.655 115.554 289.454 116.594 287.93 117.341C286.421 118.073 284.715 118.439 282.811 118.439C280.95 118.439 279.324 118.139 277.933 117.539C276.541 116.923 275.376 116.074 274.439 114.99C273.516 113.891 272.82 112.609 272.352 111.145C271.897 109.68 271.67 108.09 271.67 106.376V105.871C271.67 104.157 271.897 102.568 272.352 101.103C272.82 99.6235 273.516 98.3418 274.439 97.2578C275.376 96.1592 276.534 95.3096 277.911 94.709C279.302 94.0938 280.921 93.7861 282.767 93.7861C284.744 93.7861 286.487 94.1597 287.996 94.9067C289.52 95.6538 290.713 96.7378 291.578 98.1587C292.442 99.5796 292.867 101.301 292.852 103.322H285.887C285.901 102.604 285.792 101.96 285.557 101.389C285.323 100.817 284.957 100.363 284.458 100.026C283.975 99.6748 283.353 99.499 282.591 99.499C281.829 99.499 281.214 99.6675 280.745 100.004C280.276 100.341 279.917 100.81 279.668 101.411C279.434 101.997 279.273 102.67 279.185 103.432C279.112 104.194 279.075 105.007 279.075 105.871V106.376C279.075 107.255 279.112 108.083 279.185 108.859C279.273 109.621 279.441 110.295 279.69 110.881C279.939 111.452 280.298 111.906 280.767 112.243C281.236 112.565 281.858 112.727 282.635 112.727ZM303.487 84.228V118H296.082V84.228H303.487ZM318.692 94.2256L308.365 106.333L302.959 111.738L299.729 107.036L304.234 101.169L309.815 94.2256H318.692ZM310.76 118L304.41 107.167L309.881 103.278L319.241 118H310.76Z" fill="white"/>
</g>
<path d="M1363 15C1363 6.71573 1356.28 0 1348 0H1134V167H1348C1356.28 167 1363 160.284 1363 152V15Z" fill="#032955"/>
<path fill-rule="evenodd" clip-rule="evenodd" d="M1218.5 55C1218.37 55 1218.24 55.0527 1218.15 55.1464C1218.05 55.2402 1218 55.3674 1218 55.5V111.5C1218 111.633 1218.05 111.76 1218.15 111.854C1218.24 111.947 1218.37 112 1218.5 112H1278C1278.13 112 1278.26 111.947 1278.35 111.854C1278.45 111.76 1278.5 111.633 1278.5 111.5V66C1278.5 65.8674 1278.45 65.7402 1278.35 65.6464C1278.26 65.5527 1278.13 65.5 1278 65.5H1248.25C1247.36 65.5 1246.52 65.1045 1245.95 64.4206L1238.09 55H1218.5ZM1213.9 50.9038C1215.12 49.6848 1216.78 49 1218.5 49H1239.5C1240.39 49 1241.23 49.3955 1241.8 50.0794L1249.66 59.5H1278C1279.72 59.5 1281.38 60.1848 1282.6 61.4038C1283.82 62.6228 1284.5 64.2761 1284.5 66V111.5C1284.5 113.224 1283.82 114.877 1282.6 116.096C1281.38 117.315 1279.72 118 1278 118H1218.5C1216.78 118 1215.12 117.315 1213.9 116.096C1212.68 114.877 1212 113.224 1212 111.5V55.5C1212 53.7761 1212.68 52.1228 1213.9 50.9038Z" fill="white"/>
<path fill-rule="evenodd" clip-rule="evenodd" d="M1243.72 77.5251C1245.09 78.892 1245.09 81.108 1243.72 82.4749L1237.45 88.75L1243.72 95.0251C1245.09 96.392 1245.09 98.608 1243.72 99.9749C1242.36 101.342 1240.14 101.342 1238.78 99.9749L1230.03 91.2249C1228.66 89.858 1228.66 87.642 1230.03 86.2751L1238.78 77.5251C1240.14 76.1583 1242.36 76.1583 1243.72 77.5251Z" fill="white"/>
<path fill-rule="evenodd" clip-rule="evenodd" d="M1252.03 99.9749C1250.66 98.608 1250.66 96.392 1252.03 95.0251L1258.3 88.75L1252.03 82.4749C1250.66 81.108 1250.66 78.892 1252.03 77.5251C1253.39 76.1583 1255.61 76.1583 1256.97 77.5251L1265.72 86.2751C1267.09 87.642 1267.09 89.858 1265.72 91.2249L1256.97 99.9749C1255.61 101.342 1253.39 101.342 1252.03 99.9749Z" fill="white"/>
</svg>
