<svg width="1363" height="167" viewBox="0 0 1363 167" fill="none" xmlns="http://www.w3.org/2000/svg">
<rect width="1363" height="167" rx="15" fill="#F0F0F0"/>
<path d="M0 15C0 6.71573 6.71573 0 15 0H37V167H15C6.71573 167 0 160.284 0 152V15Z" fill="#424241"/>
<path d="M100.906 50.9219L93.3945 48.2383V45.0859L103.602 49.375V51.6367L100.906 50.9219ZM93.3945 53.1719L100.918 50.4297L103.602 49.7852V52.0352L93.3945 56.3242V53.1719ZM118.895 40.9375V58H115.391V40.9375H118.895ZM124.145 40.9375V43.6914H110.223V40.9375H124.145ZM128.492 48.0859V58H125.117V45.3203H128.293L128.492 48.0859ZM132.312 45.2383L132.254 48.3672C132.09 48.3438 131.891 48.3242 131.656 48.3086C131.43 48.2852 131.223 48.2734 131.035 48.2734C130.559 48.2734 130.145 48.3359 129.793 48.4609C129.449 48.5781 129.16 48.7539 128.926 48.9883C128.699 49.2227 128.527 49.5078 128.41 49.8438C128.301 50.1797 128.238 50.5625 128.223 50.9922L127.543 50.7812C127.543 49.9609 127.625 49.207 127.789 48.5195C127.953 47.8242 128.191 47.2188 128.504 46.7031C128.824 46.1875 129.215 45.7891 129.676 45.5078C130.137 45.2266 130.664 45.0859 131.258 45.0859C131.445 45.0859 131.637 45.1016 131.832 45.1328C132.027 45.1562 132.188 45.1914 132.312 45.2383ZM140.352 55.1406V49.4922C140.352 49.0859 140.285 48.7383 140.152 48.4492C140.02 48.1523 139.812 47.9219 139.531 47.7578C139.258 47.5938 138.902 47.5117 138.465 47.5117C138.09 47.5117 137.766 47.5781 137.492 47.7109C137.219 47.8359 137.008 48.0195 136.859 48.2617C136.711 48.4961 136.637 48.7734 136.637 49.0938H133.262C133.262 48.5547 133.387 48.043 133.637 47.5586C133.887 47.0742 134.25 46.6484 134.727 46.2812C135.203 45.9062 135.77 45.6133 136.426 45.4023C137.09 45.1914 137.832 45.0859 138.652 45.0859C139.637 45.0859 140.512 45.25 141.277 45.5781C142.043 45.9062 142.645 46.3984 143.082 47.0547C143.527 47.7109 143.75 48.5312 143.75 49.5156V54.9414C143.75 55.6367 143.793 56.207 143.879 56.6523C143.965 57.0898 144.09 57.4727 144.254 57.8008V58H140.844C140.68 57.6562 140.555 57.2266 140.469 56.7109C140.391 56.1875 140.352 55.6641 140.352 55.1406ZM140.797 50.2773L140.82 52.1875H138.934C138.488 52.1875 138.102 52.2383 137.773 52.3398C137.445 52.4414 137.176 52.5859 136.965 52.7734C136.754 52.9531 136.598 53.1641 136.496 53.4062C136.402 53.6484 136.355 53.9141 136.355 54.2031C136.355 54.4922 136.422 54.7539 136.555 54.9883C136.688 55.2148 136.879 55.3945 137.129 55.5273C137.379 55.6523 137.672 55.7148 138.008 55.7148C138.516 55.7148 138.957 55.6133 139.332 55.4102C139.707 55.207 139.996 54.957 140.199 54.6602C140.41 54.3633 140.52 54.082 140.527 53.8164L141.418 55.2461C141.293 55.5664 141.121 55.8984 140.902 56.2422C140.691 56.5859 140.422 56.9102 140.094 57.2148C139.766 57.5117 139.371 57.7578 138.91 57.9531C138.449 58.1406 137.902 58.2344 137.27 58.2344C136.465 58.2344 135.734 58.0742 135.078 57.7539C134.43 57.4258 133.914 56.9766 133.531 56.4062C133.156 55.8281 132.969 55.1719 132.969 54.4375C132.969 53.7734 133.094 53.1836 133.344 52.668C133.594 52.1523 133.961 51.7188 134.445 51.3672C134.938 51.0078 135.551 50.7383 136.285 50.5586C137.02 50.3711 137.871 50.2773 138.84 50.2773H140.797ZM151.59 55.5977C152.004 55.5977 152.371 55.5195 152.691 55.3633C153.012 55.1992 153.262 54.9727 153.441 54.6836C153.629 54.3867 153.727 54.0391 153.734 53.6406H156.91C156.902 54.5312 156.664 55.3242 156.195 56.0195C155.727 56.707 155.098 57.25 154.309 57.6484C153.52 58.0391 152.637 58.2344 151.66 58.2344C150.676 58.2344 149.816 58.0703 149.082 57.7422C148.355 57.4141 147.75 56.9609 147.266 56.3828C146.781 55.7969 146.418 55.1172 146.176 54.3438C145.934 53.5625 145.812 52.7266 145.812 51.8359V51.4961C145.812 50.5977 145.934 49.7617 146.176 48.9883C146.418 48.207 146.781 47.5273 147.266 46.9492C147.75 46.3633 148.355 45.9062 149.082 45.5781C149.809 45.25 150.66 45.0859 151.637 45.0859C152.676 45.0859 153.586 45.2852 154.367 45.6836C155.156 46.082 155.773 46.6523 156.219 47.3945C156.672 48.1289 156.902 49 156.91 50.0078H153.734C153.727 49.5859 153.637 49.2031 153.465 48.8594C153.301 48.5156 153.059 48.2422 152.738 48.0391C152.426 47.8281 152.039 47.7227 151.578 47.7227C151.086 47.7227 150.684 47.8281 150.371 48.0391C150.059 48.2422 149.816 48.5234 149.645 48.8828C149.473 49.2344 149.352 49.6367 149.281 50.0898C149.219 50.5352 149.188 51.0039 149.188 51.4961V51.8359C149.188 52.3281 149.219 52.8008 149.281 53.2539C149.344 53.707 149.461 54.1094 149.633 54.4609C149.812 54.8125 150.059 55.0898 150.371 55.293C150.684 55.4961 151.09 55.5977 151.59 55.5977ZM162.242 39.9883V58H158.867V39.9883H162.242ZM170.234 45.3203L164.727 51.6016L161.773 54.5898L160.543 52.1523L162.887 49.1758L166.18 45.3203H170.234ZM166.73 58L162.98 52.1406L165.312 50.1016L170.621 58H166.73ZM177.289 58.2344C176.305 58.2344 175.422 58.0781 174.641 57.7656C173.859 57.4453 173.195 57.0039 172.648 56.4414C172.109 55.8789 171.695 55.2266 171.406 54.4844C171.117 53.7344 170.973 52.9375 170.973 52.0938V51.625C170.973 50.6641 171.109 49.7852 171.383 48.9883C171.656 48.1914 172.047 47.5 172.555 46.9141C173.07 46.3281 173.695 45.8789 174.43 45.5664C175.164 45.2461 175.992 45.0859 176.914 45.0859C177.812 45.0859 178.609 45.2344 179.305 45.5312C180 45.8281 180.582 46.25 181.051 46.7969C181.527 47.3438 181.887 48 182.129 48.7656C182.371 49.5234 182.492 50.3672 182.492 51.2969V52.7031H172.414V50.4531H179.176V50.1953C179.176 49.7266 179.09 49.3086 178.918 48.9414C178.754 48.5664 178.504 48.2695 178.168 48.0508C177.832 47.832 177.402 47.7227 176.879 47.7227C176.434 47.7227 176.051 47.8203 175.73 48.0156C175.41 48.2109 175.148 48.4844 174.945 48.8359C174.75 49.1875 174.602 49.6016 174.5 50.0781C174.406 50.5469 174.359 51.0625 174.359 51.625V52.0938C174.359 52.6016 174.43 53.0703 174.57 53.5C174.719 53.9297 174.926 54.3008 175.191 54.6133C175.465 54.9258 175.793 55.168 176.176 55.3398C176.566 55.5117 177.008 55.5977 177.5 55.5977C178.109 55.5977 178.676 55.4805 179.199 55.2461C179.73 55.0039 180.188 54.6406 180.57 54.1562L182.211 55.9375C181.945 56.3203 181.582 56.6875 181.121 57.0391C180.668 57.3906 180.121 57.6797 179.48 57.9062C178.84 58.125 178.109 58.2344 177.289 58.2344ZM187.789 48.0859V58H184.414V45.3203H187.59L187.789 48.0859ZM191.609 45.2383L191.551 48.3672C191.387 48.3438 191.188 48.3242 190.953 48.3086C190.727 48.2852 190.52 48.2734 190.332 48.2734C189.855 48.2734 189.441 48.3359 189.09 48.4609C188.746 48.5781 188.457 48.7539 188.223 48.9883C187.996 49.2227 187.824 49.5078 187.707 49.8438C187.598 50.1797 187.535 50.5625 187.52 50.9922L186.84 50.7812C186.84 49.9609 186.922 49.207 187.086 48.5195C187.25 47.8242 187.488 47.2188 187.801 46.7031C188.121 46.1875 188.512 45.7891 188.973 45.5078C189.434 45.2266 189.961 45.0859 190.555 45.0859C190.742 45.0859 190.934 45.1016 191.129 45.1328C191.324 45.1562 191.484 45.1914 191.609 45.2383Z" fill="#888888"/>
<path d="M109.93 86.0078V118H102.217V86.0078H109.93ZM119.554 86.0078V91.9624H92.813V86.0078H119.554ZM132.012 118.439C130.079 118.439 128.35 118.139 126.827 117.539C125.303 116.923 124.014 116.081 122.959 115.012C121.919 113.942 121.121 112.712 120.564 111.32C120.022 109.929 119.751 108.457 119.751 106.904V106.069C119.751 104.326 119.993 102.714 120.477 101.235C120.96 99.7407 121.678 98.437 122.63 97.3237C123.582 96.2104 124.776 95.3462 126.211 94.731C127.647 94.1011 129.317 93.7861 131.221 93.7861C132.906 93.7861 134.415 94.0571 135.748 94.5991C137.081 95.1411 138.208 95.9175 139.131 96.9282C140.069 97.939 140.779 99.1621 141.263 100.598C141.761 102.033 142.01 103.645 142.01 105.432V108.442H122.586V103.806H134.781V103.234C134.795 102.443 134.656 101.77 134.363 101.213C134.085 100.656 133.675 100.231 133.133 99.9385C132.591 99.6455 131.932 99.499 131.155 99.499C130.35 99.499 129.683 99.6748 129.156 100.026C128.643 100.378 128.24 100.861 127.947 101.477C127.669 102.077 127.471 102.773 127.354 103.564C127.237 104.355 127.178 105.19 127.178 106.069V106.904C127.178 107.783 127.295 108.581 127.53 109.299C127.779 110.017 128.13 110.632 128.584 111.145C129.053 111.643 129.61 112.031 130.254 112.309C130.914 112.587 131.661 112.727 132.496 112.727C133.506 112.727 134.502 112.536 135.484 112.155C136.465 111.774 137.308 111.145 138.011 110.266L141.373 114.265C140.889 114.953 140.201 115.62 139.307 116.264C138.428 116.909 137.374 117.436 136.143 117.846C134.913 118.242 133.536 118.439 132.012 118.439ZM155.062 112.727C155.75 112.727 156.336 112.602 156.819 112.353C157.317 112.089 157.691 111.723 157.94 111.254C158.204 110.771 158.328 110.192 158.313 109.519H165.279C165.293 111.306 164.854 112.873 163.96 114.221C163.082 115.554 161.88 116.594 160.357 117.341C158.848 118.073 157.142 118.439 155.237 118.439C153.377 118.439 151.751 118.139 150.359 117.539C148.968 116.923 147.803 116.074 146.866 114.99C145.943 113.891 145.247 112.609 144.778 111.145C144.324 109.68 144.097 108.09 144.097 106.376V105.871C144.097 104.157 144.324 102.568 144.778 101.103C145.247 99.6235 145.943 98.3418 146.866 97.2578C147.803 96.1592 148.96 95.3096 150.337 94.709C151.729 94.0938 153.348 93.7861 155.193 93.7861C157.171 93.7861 158.914 94.1597 160.423 94.9067C161.946 95.6538 163.14 96.7378 164.004 98.1587C164.869 99.5796 165.293 101.301 165.279 103.322H158.313C158.328 102.604 158.218 101.96 157.984 101.389C157.75 100.817 157.383 100.363 156.885 100.026C156.402 99.6748 155.779 99.499 155.018 99.499C154.256 99.499 153.641 99.6675 153.172 100.004C152.703 100.341 152.344 100.81 152.095 101.411C151.861 101.997 151.7 102.67 151.612 103.432C151.539 104.194 151.502 105.007 151.502 105.871V106.376C151.502 107.255 151.539 108.083 151.612 108.859C151.7 109.621 151.868 110.295 152.117 110.881C152.366 111.452 152.725 111.906 153.194 112.243C153.663 112.565 154.285 112.727 155.062 112.727ZM175.694 84.25V118H168.289V84.25H175.694ZM174.815 105.3L173.079 105.344C173.079 103.674 173.284 102.136 173.694 100.729C174.104 99.3232 174.69 98.1001 175.452 97.0601C176.214 96.02 177.129 95.2144 178.199 94.6431C179.268 94.0718 180.455 93.7861 181.758 93.7861C182.93 93.7861 184 93.9546 184.966 94.2915C185.948 94.6284 186.79 95.1704 187.493 95.9175C188.211 96.6646 188.76 97.6387 189.141 98.8398C189.537 100.041 189.734 101.506 189.734 103.234V118H182.286V103.19C182.286 102.224 182.146 101.477 181.868 100.949C181.604 100.407 181.224 100.034 180.726 99.8286C180.228 99.6089 179.62 99.499 178.902 99.499C178.038 99.499 177.334 99.6455 176.792 99.9385C176.25 100.231 175.833 100.642 175.54 101.169C175.262 101.682 175.071 102.29 174.969 102.993C174.866 103.696 174.815 104.465 174.815 105.3ZM221.88 109.497C221.88 108.999 221.807 108.552 221.661 108.156C221.514 107.746 221.243 107.365 220.848 107.014C220.452 106.662 219.881 106.311 219.134 105.959C218.401 105.593 217.435 105.212 216.233 104.816C214.827 104.348 213.472 103.82 212.168 103.234C210.865 102.634 209.7 101.938 208.675 101.147C207.649 100.341 206.836 99.4038 206.236 98.3345C205.635 97.2505 205.335 95.9907 205.335 94.5552C205.335 93.1782 205.643 91.9404 206.258 90.8418C206.873 89.7285 207.73 88.7837 208.829 88.0073C209.942 87.2163 211.246 86.6157 212.74 86.2056C214.234 85.7808 215.867 85.5684 217.64 85.5684C219.983 85.5684 222.049 85.9785 223.836 86.7988C225.638 87.6045 227.044 88.7544 228.055 90.2485C229.08 91.728 229.593 93.4785 229.593 95.5H221.924C221.924 94.6943 221.756 93.9839 221.419 93.3687C221.097 92.7534 220.606 92.27 219.947 91.9185C219.288 91.5669 218.46 91.3911 217.464 91.3911C216.497 91.3911 215.684 91.5376 215.025 91.8306C214.366 92.1235 213.868 92.519 213.531 93.0171C213.194 93.5005 213.025 94.0352 213.025 94.6211C213.025 95.1045 213.157 95.5439 213.421 95.9395C213.699 96.3203 214.087 96.6792 214.585 97.0161C215.098 97.353 215.713 97.6753 216.431 97.9829C217.164 98.2905 217.984 98.5908 218.892 98.8838C220.591 99.4258 222.1 100.034 223.418 100.708C224.751 101.367 225.872 102.121 226.78 102.971C227.703 103.806 228.399 104.758 228.868 105.827C229.351 106.896 229.593 108.105 229.593 109.453C229.593 110.888 229.314 112.163 228.758 113.276C228.201 114.389 227.403 115.334 226.363 116.11C225.323 116.872 224.078 117.451 222.627 117.846C221.177 118.242 219.559 118.439 217.771 118.439C216.131 118.439 214.512 118.234 212.916 117.824C211.333 117.399 209.898 116.755 208.609 115.891C207.32 115.012 206.287 113.891 205.511 112.529C204.749 111.152 204.368 109.519 204.368 107.629H212.103C212.103 108.566 212.227 109.357 212.476 110.002C212.725 110.646 213.091 111.167 213.575 111.562C214.058 111.943 214.651 112.221 215.354 112.397C216.058 112.558 216.863 112.639 217.771 112.639C218.753 112.639 219.544 112.5 220.145 112.221C220.745 111.928 221.185 111.547 221.463 111.079C221.741 110.595 221.88 110.068 221.88 109.497ZM245.743 94.2256V99.3672H231.417V94.2256H245.743ZM234.427 88.3149H241.832V110.244C241.832 110.874 241.905 111.364 242.051 111.716C242.198 112.053 242.447 112.294 242.798 112.441C243.165 112.573 243.648 112.639 244.249 112.639C244.673 112.639 245.025 112.631 245.303 112.617C245.582 112.587 245.845 112.551 246.094 112.507V117.802C245.464 118.007 244.805 118.161 244.117 118.264C243.428 118.381 242.696 118.439 241.919 118.439C240.337 118.439 238.982 118.19 237.854 117.692C236.741 117.194 235.892 116.411 235.306 115.341C234.72 114.272 234.427 112.88 234.427 111.167V88.3149ZM261.036 112.023V102.224C261.036 101.55 260.94 100.971 260.75 100.488C260.56 100.004 260.259 99.6309 259.849 99.3672C259.439 99.0889 258.89 98.9497 258.201 98.9497C257.645 98.9497 257.168 99.0449 256.773 99.2354C256.377 99.4258 256.077 99.7114 255.872 100.092C255.667 100.473 255.564 100.957 255.564 101.542H248.16C248.16 100.444 248.401 99.4258 248.885 98.4883C249.383 97.5361 250.086 96.7085 250.994 96.0054C251.917 95.3022 253.016 94.7603 254.29 94.3794C255.579 93.9839 257.015 93.7861 258.597 93.7861C260.486 93.7861 262.171 94.1011 263.65 94.731C265.145 95.3608 266.324 96.3057 267.188 97.5654C268.052 98.8105 268.484 100.378 268.484 102.268V112.001C268.484 113.554 268.572 114.733 268.748 115.539C268.924 116.33 269.173 117.026 269.495 117.626V118H262.068C261.717 117.268 261.453 116.374 261.277 115.319C261.116 114.25 261.036 113.151 261.036 112.023ZM261.937 103.476L261.98 107.431H258.707C258.018 107.431 257.432 107.526 256.949 107.717C256.48 107.907 256.099 108.171 255.806 108.508C255.528 108.83 255.323 109.196 255.191 109.606C255.074 110.017 255.015 110.449 255.015 110.903C255.015 111.342 255.118 111.738 255.323 112.089C255.542 112.426 255.835 112.69 256.202 112.88C256.568 113.071 256.978 113.166 257.432 113.166C258.252 113.166 258.948 113.012 259.52 112.705C260.105 112.382 260.552 111.994 260.86 111.54C261.167 111.086 261.321 110.661 261.321 110.266L262.947 113.298C262.654 113.884 262.317 114.477 261.937 115.078C261.57 115.678 261.109 116.235 260.552 116.748C260.01 117.246 259.344 117.656 258.553 117.978C257.762 118.286 256.802 118.439 255.674 118.439C254.209 118.439 252.862 118.139 251.631 117.539C250.416 116.938 249.441 116.103 248.709 115.034C247.977 113.95 247.61 112.705 247.61 111.298C247.61 110.068 247.83 108.969 248.27 108.002C248.724 107.036 249.405 106.215 250.313 105.542C251.221 104.868 252.378 104.355 253.785 104.003C255.191 103.652 256.846 103.476 258.75 103.476H261.937ZM282.635 112.727C283.323 112.727 283.909 112.602 284.393 112.353C284.891 112.089 285.264 111.723 285.513 111.254C285.777 110.771 285.901 110.192 285.887 109.519H292.852C292.867 111.306 292.427 112.873 291.534 114.221C290.655 115.554 289.454 116.594 287.93 117.341C286.421 118.073 284.715 118.439 282.811 118.439C280.95 118.439 279.324 118.139 277.933 117.539C276.541 116.923 275.376 116.074 274.439 114.99C273.516 113.891 272.82 112.609 272.352 111.145C271.897 109.68 271.67 108.09 271.67 106.376V105.871C271.67 104.157 271.897 102.568 272.352 101.103C272.82 99.6235 273.516 98.3418 274.439 97.2578C275.376 96.1592 276.534 95.3096 277.911 94.709C279.302 94.0938 280.921 93.7861 282.767 93.7861C284.744 93.7861 286.487 94.1597 287.996 94.9067C289.52 95.6538 290.713 96.7378 291.578 98.1587C292.442 99.5796 292.867 101.301 292.852 103.322H285.887C285.901 102.604 285.792 101.96 285.557 101.389C285.323 100.817 284.957 100.363 284.458 100.026C283.975 99.6748 283.353 99.499 282.591 99.499C281.829 99.499 281.214 99.6675 280.745 100.004C280.276 100.341 279.917 100.81 279.668 101.411C279.434 101.997 279.273 102.67 279.185 103.432C279.112 104.194 279.075 105.007 279.075 105.871V106.376C279.075 107.255 279.112 108.083 279.185 108.859C279.273 109.621 279.441 110.295 279.69 110.881C279.939 111.452 280.298 111.906 280.767 112.243C281.236 112.565 281.858 112.727 282.635 112.727ZM303.487 84.228V118H296.082V84.228H303.487ZM318.692 94.2256L308.365 106.333L302.959 111.738L299.729 107.036L304.234 101.169L309.815 94.2256H318.692ZM310.76 118L304.41 107.167L309.881 103.278L319.241 118H310.76Z" fill="#424241"/>
<path d="M1363 15C1363 6.71573 1356.28 0 1348 0H1134V167H1348C1356.28 167 1363 160.284 1363 152V15Z" fill="#032955"/>
<path fill-rule="evenodd" clip-rule="evenodd" d="M1218.5 55C1218.37 55 1218.24 55.0527 1218.15 55.1464C1218.05 55.2402 1218 55.3674 1218 55.5V111.5C1218 111.633 1218.05 111.76 1218.15 111.854C1218.24 111.947 1218.37 112 1218.5 112H1278C1278.13 112 1278.26 111.947 1278.35 111.854C1278.45 111.76 1278.5 111.633 1278.5 111.5V66C1278.5 65.8674 1278.45 65.7402 1278.35 65.6464C1278.26 65.5527 1278.13 65.5 1278 65.5H1248.25C1247.36 65.5 1246.52 65.1045 1245.95 64.4206L1238.09 55H1218.5ZM1213.9 50.9038C1215.12 49.6848 1216.78 49 1218.5 49H1239.5C1240.39 49 1241.23 49.3955 1241.8 50.0794L1249.66 59.5H1278C1279.72 59.5 1281.38 60.1848 1282.6 61.4038C1283.82 62.6228 1284.5 64.2761 1284.5 66V111.5C1284.5 113.224 1283.82 114.877 1282.6 116.096C1281.38 117.315 1279.72 118 1278 118H1218.5C1216.78 118 1215.12 117.315 1213.9 116.096C1212.68 114.877 1212 113.224 1212 111.5V55.5C1212 53.7761 1212.68 52.1228 1213.9 50.9038Z" fill="white"/>
<path fill-rule="evenodd" clip-rule="evenodd" d="M1243.72 77.5251C1245.09 78.892 1245.09 81.108 1243.72 82.4749L1237.45 88.75L1243.72 95.0251C1245.09 96.392 1245.09 98.608 1243.72 99.9749C1242.36 101.342 1240.14 101.342 1238.78 99.9749L1230.03 91.2249C1228.66 89.858 1228.66 87.642 1230.03 86.2751L1238.78 77.5251C1240.14 76.1583 1242.36 76.1583 1243.72 77.5251Z" fill="white"/>
<path fill-rule="evenodd" clip-rule="evenodd" d="M1252.03 99.9749C1250.66 98.608 1250.66 96.392 1252.03 95.0251L1258.3 88.75L1252.03 82.4749C1250.66 81.108 1250.66 78.892 1252.03 77.5251C1253.39 76.1583 1255.61 76.1583 1256.97 77.5251L1265.72 86.2751C1267.09 87.642 1267.09 89.858 1265.72 91.2249L1256.97 99.9749C1255.61 101.342 1253.39 101.342 1252.03 99.9749Z" fill="white"/>
</svg>
