<svg width="1363" height="301" viewBox="0 0 1363 301" fill="none" xmlns="http://www.w3.org/2000/svg">
<rect width="1363" height="301" rx="15" fill="#F0F0F0"/>
<path d="M0 15C0 6.71573 6.71573 0 15 0H37V301H15C6.71573 301 0 294.284 0 286V15Z" fill="#032955"/>
<path d="M113.914 104.898V144H104.488V104.898H113.914ZM125.677 104.898V112.176H92.9937V104.898H125.677ZM136.607 122.14V144H127.557V114.942H136.016L136.607 122.14ZM145.201 114.728L145.04 123.133C144.681 123.097 144.198 123.053 143.589 122.999C142.981 122.945 142.47 122.918 142.059 122.918C141.002 122.918 140.089 123.044 139.319 123.294C138.567 123.527 137.941 123.885 137.439 124.369C136.956 124.834 136.598 125.425 136.365 126.141C136.15 126.857 136.052 127.69 136.07 128.639L134.432 127.564C134.432 125.613 134.62 123.84 134.996 122.247C135.389 120.636 135.944 119.248 136.661 118.084C137.377 116.903 138.245 115.999 139.266 115.372C140.286 114.728 141.432 114.405 142.703 114.405C143.151 114.405 143.589 114.432 144.019 114.486C144.467 114.54 144.861 114.62 145.201 114.728ZM162.603 136.695V124.718C162.603 123.894 162.487 123.187 162.254 122.596C162.021 122.005 161.654 121.549 161.153 121.227C160.652 120.886 159.98 120.716 159.139 120.716C158.458 120.716 157.876 120.833 157.393 121.065C156.91 121.298 156.543 121.647 156.292 122.113C156.041 122.578 155.916 123.169 155.916 123.885H146.866C146.866 122.542 147.161 121.298 147.752 120.152C148.361 118.989 149.22 117.977 150.33 117.118C151.458 116.258 152.801 115.596 154.358 115.13C155.934 114.647 157.688 114.405 159.622 114.405C161.932 114.405 163.991 114.79 165.799 115.56C167.625 116.33 169.066 117.485 170.123 119.024C171.179 120.546 171.707 122.462 171.707 124.771V136.668C171.707 138.566 171.814 140.007 172.029 140.992C172.244 141.959 172.549 142.809 172.942 143.543V144H163.865C163.436 143.105 163.113 142.013 162.898 140.724C162.701 139.417 162.603 138.074 162.603 136.695ZM163.704 126.249L163.758 131.083H159.756C158.915 131.083 158.199 131.199 157.608 131.432C157.035 131.664 156.569 131.987 156.211 132.398C155.871 132.792 155.621 133.24 155.459 133.741C155.316 134.243 155.245 134.771 155.245 135.326C155.245 135.863 155.37 136.346 155.621 136.776C155.889 137.188 156.247 137.51 156.695 137.743C157.142 137.975 157.644 138.092 158.199 138.092C159.201 138.092 160.052 137.904 160.75 137.528C161.466 137.134 162.012 136.66 162.388 136.104C162.764 135.549 162.952 135.03 162.952 134.547L164.939 138.253C164.581 138.969 164.17 139.694 163.704 140.428C163.257 141.162 162.693 141.843 162.012 142.469C161.35 143.078 160.535 143.579 159.568 143.973C158.602 144.349 157.429 144.537 156.05 144.537C154.26 144.537 152.613 144.17 151.109 143.436C149.623 142.702 148.432 141.681 147.537 140.375C146.642 139.05 146.194 137.528 146.194 135.809C146.194 134.305 146.463 132.962 147 131.781C147.555 130.599 148.388 129.597 149.498 128.773C150.608 127.949 152.022 127.323 153.741 126.893C155.459 126.463 157.483 126.249 159.81 126.249H163.704ZM189.002 137.555C189.843 137.555 190.56 137.403 191.15 137.098C191.759 136.776 192.216 136.328 192.52 135.755C192.842 135.165 192.994 134.457 192.977 133.634H201.49C201.508 135.818 200.971 137.734 199.878 139.381C198.804 141.01 197.336 142.281 195.474 143.194C193.63 144.09 191.544 144.537 189.217 144.537C186.943 144.537 184.956 144.17 183.255 143.436C181.554 142.684 180.131 141.646 178.985 140.321C177.857 138.978 177.007 137.411 176.434 135.621C175.879 133.831 175.601 131.888 175.601 129.793V129.176C175.601 127.081 175.879 125.139 176.434 123.348C177.007 121.54 177.857 119.973 178.985 118.648C180.131 117.306 181.545 116.267 183.228 115.533C184.929 114.781 186.907 114.405 189.163 114.405C191.58 114.405 193.711 114.862 195.555 115.775C197.417 116.688 198.876 118.013 199.932 119.75C200.988 121.486 201.508 123.59 201.49 126.061H192.977C192.994 125.183 192.86 124.396 192.574 123.697C192.287 122.999 191.84 122.444 191.231 122.032C190.64 121.603 189.879 121.388 188.948 121.388C188.017 121.388 187.265 121.594 186.692 122.005C186.119 122.417 185.681 122.99 185.376 123.724C185.09 124.44 184.893 125.264 184.786 126.195C184.696 127.126 184.651 128.119 184.651 129.176V129.793C184.651 130.868 184.696 131.879 184.786 132.828C184.893 133.759 185.099 134.583 185.403 135.299C185.708 135.997 186.146 136.552 186.719 136.964C187.292 137.358 188.053 137.555 189.002 137.555ZM214.488 102.723V144H205.438V102.723H214.488ZM233.072 114.942L220.45 129.74L213.843 136.346L209.896 130.599L215.401 123.429L222.222 114.942H233.072ZM223.377 144L215.616 130.76L222.303 126.007L233.743 144H223.377ZM248.97 144.537C246.607 144.537 244.494 144.17 242.632 143.436C240.77 142.684 239.195 141.655 237.906 140.348C236.635 139.041 235.659 137.537 234.979 135.836C234.316 134.135 233.985 132.336 233.985 130.438V129.417C233.985 127.287 234.28 125.318 234.871 123.509C235.462 121.683 236.339 120.09 237.503 118.729C238.667 117.368 240.126 116.312 241.88 115.56C243.635 114.79 245.676 114.405 248.003 114.405C250.062 114.405 251.906 114.736 253.536 115.399C255.165 116.061 256.543 117.01 257.671 118.246C258.817 119.481 259.686 120.976 260.276 122.73C260.885 124.485 261.189 126.454 261.189 128.639V132.318H237.449V126.651H252.354V125.953C252.372 124.986 252.202 124.163 251.844 123.482C251.504 122.802 251.002 122.283 250.34 121.925C249.677 121.567 248.872 121.388 247.923 121.388C246.938 121.388 246.124 121.603 245.479 122.032C244.852 122.462 244.36 123.053 244.002 123.805C243.662 124.539 243.42 125.389 243.277 126.356C243.134 127.323 243.062 128.343 243.062 129.417V130.438C243.062 131.512 243.205 132.488 243.492 133.365C243.796 134.243 244.226 134.994 244.781 135.621C245.354 136.23 246.034 136.704 246.822 137.044C247.627 137.385 248.541 137.555 249.561 137.555C250.796 137.555 252.014 137.322 253.213 136.856C254.413 136.391 255.442 135.621 256.302 134.547L260.411 139.435C259.82 140.276 258.978 141.091 257.886 141.878C256.812 142.666 255.523 143.311 254.019 143.812C252.515 144.295 250.832 144.537 248.97 144.537ZM274 122.14V144H264.949V114.942H273.409L274 122.14ZM282.593 114.728L282.432 123.133C282.074 123.097 281.591 123.053 280.982 122.999C280.373 122.945 279.863 122.918 279.451 122.918C278.395 122.918 277.482 123.044 276.712 123.294C275.96 123.527 275.333 123.885 274.832 124.369C274.349 124.834 273.991 125.425 273.758 126.141C273.543 126.857 273.444 127.69 273.462 128.639L271.824 127.564C271.824 125.613 272.012 123.84 272.388 122.247C272.782 120.636 273.337 119.248 274.053 118.084C274.769 116.903 275.638 115.999 276.658 115.372C277.679 114.728 278.825 114.405 280.096 114.405C280.543 114.405 280.982 114.432 281.412 114.486C281.859 114.54 282.253 114.62 282.593 114.728Z" fill="black"/>
<path d="M96.563 55.1172H100.904L107.295 73.3862L113.687 55.1172H118.028L109.039 80H105.552L96.563 55.1172ZM94.2217 55.1172H98.5454L99.3315 72.9248V80H94.2217V55.1172ZM116.045 55.1172H120.386V80H115.259V72.9248L116.045 55.1172ZM134.554 75.8301V67.5928C134.554 67.0003 134.457 66.4933 134.263 66.0718C134.069 65.6388 133.768 65.3027 133.357 65.0635C132.959 64.8242 132.44 64.7046 131.802 64.7046C131.255 64.7046 130.783 64.8014 130.384 64.9951C129.985 65.1774 129.677 65.4451 129.461 65.7983C129.244 66.1401 129.136 66.5446 129.136 67.0117H124.214C124.214 66.2256 124.397 65.4793 124.761 64.7729C125.126 64.0666 125.656 63.4456 126.351 62.9102C127.046 62.3633 127.872 61.936 128.829 61.6284C129.797 61.3208 130.879 61.167 132.076 61.167C133.511 61.167 134.787 61.4062 135.904 61.8848C137.02 62.3633 137.898 63.0811 138.536 64.0381C139.185 64.9951 139.51 66.1914 139.51 67.627V75.5396C139.51 76.5535 139.572 77.3853 139.698 78.0347C139.823 78.6727 140.005 79.231 140.245 79.7095V80H135.271C135.032 79.4987 134.85 78.8721 134.725 78.1201C134.611 77.3568 134.554 76.5934 134.554 75.8301ZM135.203 68.7378L135.237 71.5234H132.486C131.836 71.5234 131.272 71.5975 130.794 71.7456C130.315 71.8937 129.922 72.1045 129.615 72.3779C129.307 72.64 129.079 72.9476 128.931 73.3008C128.794 73.654 128.726 74.0413 128.726 74.4629C128.726 74.8844 128.823 75.2661 129.017 75.6079C129.21 75.9383 129.489 76.2004 129.854 76.394C130.219 76.5763 130.646 76.6675 131.136 76.6675C131.876 76.6675 132.52 76.5194 133.067 76.2231C133.614 75.9269 134.035 75.5623 134.332 75.1294C134.639 74.6965 134.799 74.2863 134.81 73.8989L136.109 75.9839C135.927 76.451 135.676 76.9352 135.357 77.4365C135.049 77.9378 134.656 78.4106 134.178 78.855C133.699 79.2879 133.124 79.6468 132.452 79.9316C131.779 80.2051 130.982 80.3418 130.059 80.3418C128.886 80.3418 127.82 80.1082 126.863 79.6411C125.918 79.1626 125.166 78.5075 124.607 77.6758C124.061 76.8327 123.787 75.8757 123.787 74.8047C123.787 73.8363 123.969 72.9761 124.334 72.2241C124.699 71.4722 125.234 70.8398 125.94 70.3271C126.658 69.8031 127.553 69.41 128.624 69.1479C129.694 68.8745 130.936 68.7378 132.349 68.7378H135.203ZM148.499 53.75V80H143.56V53.75H148.499ZM162.547 75.8301V67.5928C162.547 67.0003 162.45 66.4933 162.256 66.0718C162.063 65.6388 161.761 65.3027 161.351 65.0635C160.952 64.8242 160.433 64.7046 159.795 64.7046C159.249 64.7046 158.776 64.8014 158.377 64.9951C157.978 65.1774 157.671 65.4451 157.454 65.7983C157.238 66.1401 157.129 66.5446 157.129 67.0117H152.208C152.208 66.2256 152.39 65.4793 152.754 64.7729C153.119 64.0666 153.649 63.4456 154.344 62.9102C155.039 62.3633 155.865 61.936 156.822 61.6284C157.79 61.3208 158.873 61.167 160.069 61.167C161.504 61.167 162.78 61.4062 163.897 61.8848C165.014 62.3633 165.891 63.0811 166.529 64.0381C167.178 64.9951 167.503 66.1914 167.503 67.627V75.5396C167.503 76.5535 167.566 77.3853 167.691 78.0347C167.816 78.6727 167.999 79.231 168.238 79.7095V80H163.265C163.025 79.4987 162.843 78.8721 162.718 78.1201C162.604 77.3568 162.547 76.5934 162.547 75.8301ZM163.196 68.7378L163.23 71.5234H160.479C159.83 71.5234 159.266 71.5975 158.787 71.7456C158.309 71.8937 157.916 72.1045 157.608 72.3779C157.3 72.64 157.072 72.9476 156.924 73.3008C156.788 73.654 156.719 74.0413 156.719 74.4629C156.719 74.8844 156.816 75.2661 157.01 75.6079C157.203 75.9383 157.483 76.2004 157.847 76.394C158.212 76.5763 158.639 76.6675 159.129 76.6675C159.869 76.6675 160.513 76.5194 161.06 76.2231C161.607 75.9269 162.028 75.5623 162.325 75.1294C162.632 74.6965 162.792 74.2863 162.803 73.8989L164.102 75.9839C163.92 76.451 163.669 76.9352 163.35 77.4365C163.042 77.9378 162.649 78.4106 162.171 78.855C161.692 79.2879 161.117 79.6468 160.445 79.9316C159.773 80.2051 158.975 80.3418 158.052 80.3418C156.879 80.3418 155.813 80.1082 154.856 79.6411C153.911 79.1626 153.159 78.5075 152.601 77.6758C152.054 76.8327 151.78 75.8757 151.78 74.8047C151.78 73.8363 151.963 72.9761 152.327 72.2241C152.692 71.4722 153.227 70.8398 153.934 70.3271C154.651 69.8031 155.546 69.41 156.617 69.1479C157.688 68.8745 158.93 68.7378 160.342 68.7378H163.196ZM176.219 53.7329V80H171.297V53.7329H176.219ZM187.874 61.5088L179.842 70.6689L175.535 75.0269L173.741 71.4722L177.159 67.1313L181.961 61.5088H187.874ZM182.764 80L177.295 71.4551L180.696 68.4814L188.438 80H182.764ZM211.971 73.4888C211.971 73.0444 211.902 72.6457 211.766 72.2925C211.64 71.9279 211.401 71.5975 211.048 71.3013C210.695 70.9937 210.199 70.6917 209.561 70.3955C208.923 70.0993 208.097 69.7917 207.083 69.4727C205.955 69.1081 204.884 68.6979 203.87 68.2422C202.868 67.7865 201.979 67.2567 201.204 66.6528C200.441 66.0376 199.837 65.3255 199.393 64.5166C198.96 63.7077 198.743 62.7677 198.743 61.6968C198.743 60.66 198.971 59.7201 199.427 58.877C199.882 58.0225 200.521 57.2933 201.341 56.6895C202.161 56.0742 203.13 55.6014 204.246 55.271C205.374 54.9406 206.61 54.7754 207.955 54.7754C209.789 54.7754 211.39 55.1058 212.757 55.7666C214.124 56.4274 215.184 57.3332 215.936 58.4839C216.699 59.6346 217.081 60.9505 217.081 62.4316H211.988C211.988 61.7025 211.834 61.0645 211.526 60.5176C211.23 59.9593 210.774 59.5207 210.159 59.2017C209.555 58.8826 208.792 58.7231 207.869 58.7231C206.98 58.7231 206.24 58.8599 205.647 59.1333C205.055 59.3953 204.611 59.7542 204.314 60.21C204.018 60.6543 203.87 61.1556 203.87 61.7139C203.87 62.1354 203.973 62.5171 204.178 62.8589C204.394 63.2007 204.713 63.5197 205.135 63.8159C205.556 64.1121 206.075 64.3913 206.69 64.6533C207.305 64.9154 208.017 65.1717 208.826 65.4224C210.182 65.8325 211.373 66.2939 212.398 66.8066C213.435 67.3193 214.301 67.8947 214.996 68.5327C215.691 69.1707 216.215 69.8942 216.568 70.7031C216.921 71.512 217.098 72.4292 217.098 73.4546C217.098 74.5369 216.887 75.5054 216.465 76.3599C216.044 77.2144 215.434 77.9378 214.637 78.5303C213.839 79.1227 212.888 79.5728 211.783 79.8804C210.678 80.188 209.441 80.3418 208.074 80.3418C206.844 80.3418 205.63 80.1823 204.434 79.8633C203.238 79.5329 202.15 79.0373 201.17 78.3765C200.201 77.7157 199.427 76.8726 198.846 75.8472C198.265 74.8218 197.974 73.6084 197.974 72.207H203.118C203.118 72.9818 203.238 73.6369 203.477 74.1724C203.716 74.7078 204.052 75.1408 204.485 75.4712C204.93 75.8016 205.454 76.0409 206.058 76.189C206.673 76.3371 207.345 76.4111 208.074 76.4111C208.963 76.4111 209.692 76.2858 210.262 76.0352C210.843 75.7845 211.27 75.437 211.543 74.9927C211.828 74.5483 211.971 74.047 211.971 73.4888ZM225.079 53.75V80H220.157V53.75H225.079ZM224.378 70.105H223.028C223.039 68.8175 223.21 67.6326 223.541 66.5503C223.871 65.4565 224.344 64.5109 224.959 63.7134C225.574 62.9045 226.309 62.2778 227.164 61.8335C228.029 61.3892 228.986 61.167 230.035 61.167C230.946 61.167 231.772 61.298 232.513 61.5601C233.265 61.8107 233.908 62.2209 234.444 62.7905C234.991 63.3488 235.412 64.0837 235.708 64.9951C236.005 65.9066 236.153 67.0117 236.153 68.3105V80H231.197V68.2764C231.197 67.4561 231.077 66.8123 230.838 66.3452C230.61 65.8667 230.274 65.5306 229.83 65.3369C229.397 65.1318 228.861 65.0293 228.223 65.0293C227.517 65.0293 226.913 65.1603 226.412 65.4224C225.922 65.6844 225.529 66.049 225.232 66.5161C224.936 66.9718 224.72 67.5073 224.583 68.1226C224.446 68.7378 224.378 69.3986 224.378 70.105ZM249.876 75.8301V67.5928C249.876 67.0003 249.779 66.4933 249.585 66.0718C249.392 65.6388 249.09 65.3027 248.68 65.0635C248.281 64.8242 247.763 64.7046 247.125 64.7046C246.578 64.7046 246.105 64.8014 245.706 64.9951C245.307 65.1774 245 65.4451 244.783 65.7983C244.567 66.1401 244.458 66.5446 244.458 67.0117H239.537C239.537 66.2256 239.719 65.4793 240.083 64.7729C240.448 64.0666 240.978 63.4456 241.673 62.9102C242.368 62.3633 243.194 61.936 244.151 61.6284C245.119 61.3208 246.202 61.167 247.398 61.167C248.833 61.167 250.11 61.4062 251.226 61.8848C252.343 62.3633 253.22 63.0811 253.858 64.0381C254.507 64.9951 254.832 66.1914 254.832 67.627V75.5396C254.832 76.5535 254.895 77.3853 255.02 78.0347C255.145 78.6727 255.328 79.231 255.567 79.7095V80H250.594C250.354 79.4987 250.172 78.8721 250.047 78.1201C249.933 77.3568 249.876 76.5934 249.876 75.8301ZM250.525 68.7378L250.56 71.5234H247.808C247.159 71.5234 246.595 71.5975 246.116 71.7456C245.638 71.8937 245.245 72.1045 244.937 72.3779C244.629 72.64 244.402 72.9476 244.253 73.3008C244.117 73.654 244.048 74.0413 244.048 74.4629C244.048 74.8844 244.145 75.2661 244.339 75.6079C244.533 75.9383 244.812 76.2004 245.176 76.394C245.541 76.5763 245.968 76.6675 246.458 76.6675C247.199 76.6675 247.842 76.5194 248.389 76.2231C248.936 75.9269 249.358 75.5623 249.654 75.1294C249.961 74.6965 250.121 74.2863 250.132 73.8989L251.431 75.9839C251.249 76.451 250.998 76.9352 250.679 77.4365C250.372 77.9378 249.979 78.4106 249.5 78.855C249.021 79.2879 248.446 79.6468 247.774 79.9316C247.102 80.2051 246.304 80.3418 245.381 80.3418C244.208 80.3418 243.143 80.1082 242.186 79.6411C241.24 79.1626 240.488 78.5075 239.93 77.6758C239.383 76.8327 239.109 75.8757 239.109 74.8047C239.109 73.8363 239.292 72.9761 239.656 72.2241C240.021 71.4722 240.556 70.8398 241.263 70.3271C241.98 69.8031 242.875 69.41 243.946 69.1479C245.017 68.8745 246.259 68.7378 247.671 68.7378H250.525ZM267.137 80.3418C265.701 80.3418 264.414 80.1139 263.274 79.6582C262.135 79.1911 261.167 78.5474 260.369 77.7271C259.583 76.9067 258.979 75.9554 258.558 74.873C258.136 73.7793 257.925 72.6172 257.925 71.3867V70.7031C257.925 69.3018 258.125 68.02 258.523 66.8579C258.922 65.6958 259.492 64.6875 260.232 63.833C260.984 62.9785 261.896 62.3234 262.967 61.8677C264.038 61.4006 265.245 61.167 266.59 61.167C267.9 61.167 269.062 61.3835 270.076 61.8164C271.09 62.2493 271.939 62.8646 272.623 63.6621C273.318 64.4596 273.842 65.4167 274.195 66.5332C274.548 67.6383 274.725 68.8688 274.725 70.2246V72.2754H260.027V68.9941H269.888V68.6182C269.888 67.9346 269.763 67.325 269.512 66.7896C269.273 66.2427 268.908 65.8097 268.418 65.4907C267.929 65.1717 267.302 65.0122 266.539 65.0122C265.889 65.0122 265.331 65.1546 264.864 65.4395C264.397 65.7243 264.015 66.123 263.719 66.6357C263.434 67.1484 263.217 67.7523 263.069 68.4473C262.933 69.1309 262.864 69.8828 262.864 70.7031V71.3867C262.864 72.1273 262.967 72.8109 263.172 73.4375C263.388 74.0641 263.69 74.6053 264.078 75.061C264.476 75.5168 264.955 75.87 265.513 76.1206C266.083 76.3713 266.727 76.4966 267.444 76.4966C268.333 76.4966 269.159 76.3257 269.922 75.9839C270.697 75.6307 271.364 75.1009 271.922 74.3945L274.314 76.9922C273.927 77.5505 273.397 78.0859 272.725 78.5986C272.064 79.1113 271.267 79.5329 270.333 79.8633C269.398 80.1823 268.333 80.3418 267.137 80.3418ZM282.449 65.542V80H277.527V61.5088H282.159L282.449 65.542ZM288.021 61.3892L287.935 65.9521C287.696 65.918 287.405 65.8895 287.063 65.8667C286.733 65.8325 286.431 65.8154 286.158 65.8154C285.463 65.8154 284.859 65.9066 284.346 66.0889C283.845 66.2598 283.423 66.5161 283.082 66.8579C282.751 67.1997 282.5 67.6156 282.33 68.1055C282.17 68.5954 282.079 69.1536 282.056 69.7803L281.065 69.4727C281.065 68.2764 281.185 67.1769 281.424 66.1743C281.663 65.1603 282.011 64.2773 282.466 63.5254C282.933 62.7734 283.503 62.1924 284.175 61.7822C284.847 61.3721 285.617 61.167 286.482 61.167C286.756 61.167 287.035 61.1898 287.32 61.2354C287.605 61.2695 287.838 61.3208 288.021 61.3892Z" fill="#888888"/>
<rect x="92" y="181" width="1179" height="80" rx="13.3333" fill="#CCCCCC"/>
<rect x="107" y="196.334" width="208" height="49.3333" rx="4.66667" fill="#032955" stroke="#032955" stroke-width="4"/>
<path d="M150.833 213.167H156.802C157.969 213.167 158.983 213.341 159.844 213.688C160.705 214.035 161.368 214.549 161.833 215.23C162.306 215.91 162.542 216.75 162.542 217.75C162.542 218.619 162.406 219.344 162.135 219.928C161.865 220.511 161.486 220.994 161 221.375C160.521 221.75 159.962 222.059 159.323 222.303L158.125 222.98H153.115L153.094 220.157H156.802C157.267 220.157 157.653 220.073 157.958 219.907C158.264 219.74 158.493 219.504 158.646 219.198C158.806 218.886 158.885 218.514 158.885 218.084C158.885 217.646 158.806 217.271 158.646 216.959C158.486 216.646 158.25 216.407 157.937 216.24C157.632 216.073 157.253 215.99 156.802 215.99H154.49V228.334H150.833V213.167ZM159.135 228.334L155.781 221.625L159.656 221.605L163.052 228.178V228.334H159.135ZM170.042 228.542C169.125 228.542 168.306 228.4 167.583 228.115C166.861 227.823 166.25 227.424 165.75 226.917C165.257 226.41 164.878 225.827 164.615 225.167C164.358 224.507 164.229 223.809 164.229 223.073V222.678C164.229 221.851 164.344 221.087 164.573 220.386C164.802 219.678 165.142 219.059 165.594 218.532C166.045 218.004 166.611 217.594 167.292 217.303C167.972 217.004 168.764 216.855 169.667 216.855C170.465 216.855 171.181 216.983 171.813 217.24C172.444 217.497 172.979 217.865 173.417 218.344C173.861 218.823 174.198 219.403 174.427 220.084C174.663 220.764 174.781 221.528 174.781 222.375V223.803H165.573V221.605H171.354V221.334C171.361 220.959 171.295 220.639 171.156 220.375C171.024 220.112 170.83 219.91 170.573 219.771C170.316 219.632 170.003 219.563 169.635 219.563C169.253 219.563 168.938 219.646 168.688 219.813C168.444 219.98 168.253 220.209 168.115 220.5C167.983 220.785 167.889 221.115 167.833 221.49C167.778 221.865 167.75 222.261 167.75 222.678V223.073C167.75 223.49 167.806 223.869 167.917 224.209C168.035 224.549 168.201 224.841 168.417 225.084C168.639 225.32 168.903 225.504 169.208 225.636C169.521 225.768 169.875 225.834 170.271 225.834C170.75 225.834 171.222 225.744 171.688 225.563C172.153 225.382 172.552 225.084 172.885 224.667L174.479 226.563C174.25 226.889 173.924 227.205 173.5 227.511C173.083 227.816 172.583 228.066 172 228.261C171.417 228.448 170.764 228.542 170.042 228.542ZM182.063 225.5V220.855C182.063 220.535 182.017 220.261 181.927 220.032C181.837 219.803 181.694 219.625 181.5 219.5C181.306 219.369 181.045 219.303 180.719 219.303C180.455 219.303 180.229 219.348 180.042 219.438C179.854 219.528 179.712 219.664 179.615 219.844C179.517 220.025 179.469 220.254 179.469 220.532H175.958C175.958 220.011 176.073 219.528 176.302 219.084C176.538 218.632 176.872 218.24 177.302 217.907C177.74 217.573 178.26 217.316 178.865 217.136C179.476 216.948 180.156 216.855 180.906 216.855C181.802 216.855 182.601 217.004 183.302 217.303C184.01 217.601 184.569 218.049 184.979 218.646C185.389 219.237 185.594 219.98 185.594 220.875V225.49C185.594 226.226 185.635 226.785 185.719 227.167C185.802 227.542 185.92 227.872 186.073 228.157V228.334H182.552C182.385 227.987 182.26 227.563 182.177 227.063C182.101 226.556 182.063 226.035 182.063 225.5ZM182.49 221.448L182.51 223.323H180.958C180.632 223.323 180.354 223.369 180.125 223.459C179.903 223.549 179.722 223.674 179.583 223.834C179.451 223.987 179.354 224.16 179.292 224.355C179.236 224.549 179.208 224.754 179.208 224.969C179.208 225.178 179.257 225.365 179.354 225.532C179.458 225.691 179.597 225.816 179.771 225.907C179.944 225.997 180.139 226.042 180.354 226.042C180.743 226.042 181.073 225.969 181.344 225.823C181.622 225.671 181.833 225.487 181.979 225.271C182.125 225.056 182.198 224.855 182.198 224.667L182.969 226.105C182.83 226.382 182.67 226.664 182.49 226.948C182.316 227.233 182.097 227.497 181.833 227.74C181.576 227.976 181.26 228.171 180.885 228.323C180.51 228.469 180.056 228.542 179.521 228.542C178.826 228.542 178.188 228.4 177.604 228.115C177.028 227.83 176.566 227.434 176.219 226.928C175.872 226.414 175.698 225.823 175.698 225.157C175.698 224.573 175.802 224.053 176.01 223.594C176.226 223.136 176.549 222.747 176.979 222.428C177.41 222.108 177.958 221.865 178.625 221.698C179.292 221.532 180.076 221.448 180.979 221.448H182.49ZM192.302 225.834C192.628 225.834 192.906 225.775 193.135 225.657C193.372 225.532 193.549 225.358 193.667 225.136C193.792 224.907 193.851 224.632 193.844 224.313H197.146C197.153 225.16 196.944 225.903 196.521 226.542C196.104 227.174 195.535 227.667 194.812 228.021C194.097 228.369 193.288 228.542 192.385 228.542C191.503 228.542 190.733 228.4 190.073 228.115C189.413 227.823 188.861 227.421 188.417 226.907C187.979 226.386 187.649 225.778 187.427 225.084C187.212 224.389 187.104 223.636 187.104 222.823V222.584C187.104 221.771 187.212 221.018 187.427 220.323C187.649 219.622 187.979 219.014 188.417 218.5C188.861 217.98 189.41 217.577 190.062 217.292C190.722 217 191.49 216.855 192.365 216.855C193.302 216.855 194.128 217.032 194.844 217.386C195.566 217.74 196.132 218.254 196.542 218.928C196.951 219.601 197.153 220.417 197.146 221.375H193.844C193.851 221.035 193.799 220.73 193.687 220.459C193.576 220.188 193.403 219.973 193.167 219.813C192.937 219.646 192.642 219.563 192.281 219.563C191.92 219.563 191.628 219.643 191.406 219.803C191.184 219.962 191.014 220.184 190.896 220.469C190.785 220.747 190.708 221.066 190.667 221.428C190.632 221.789 190.615 222.174 190.615 222.584V222.823C190.615 223.24 190.632 223.632 190.667 224C190.708 224.362 190.788 224.681 190.906 224.959C191.024 225.23 191.194 225.445 191.417 225.605C191.639 225.757 191.934 225.834 192.302 225.834ZM204.583 217.063V219.5H197.792V217.063H204.583ZM199.219 214.261H202.729V224.657C202.729 224.955 202.764 225.188 202.833 225.355C202.903 225.514 203.021 225.629 203.188 225.698C203.361 225.761 203.59 225.792 203.875 225.792C204.076 225.792 204.243 225.789 204.375 225.782C204.507 225.768 204.632 225.75 204.75 225.73V228.24C204.451 228.337 204.139 228.41 203.813 228.459C203.486 228.514 203.139 228.542 202.771 228.542C202.021 228.542 201.378 228.424 200.844 228.188C200.316 227.952 199.913 227.58 199.635 227.073C199.358 226.566 199.219 225.907 199.219 225.094V214.261ZM224.125 213.167V228.334H220.479L215.115 218.896V228.334H211.458V213.167H215.115L220.479 222.605V213.167H224.125ZM232.125 225.5V220.855C232.125 220.535 232.08 220.261 231.99 220.032C231.899 219.803 231.757 219.625 231.563 219.5C231.368 219.369 231.108 219.303 230.781 219.303C230.517 219.303 230.292 219.348 230.104 219.438C229.917 219.528 229.774 219.664 229.677 219.844C229.58 220.025 229.531 220.254 229.531 220.532H226.021C226.021 220.011 226.135 219.528 226.365 219.084C226.601 218.632 226.934 218.24 227.365 217.907C227.802 217.573 228.323 217.316 228.927 217.136C229.538 216.948 230.219 216.855 230.969 216.855C231.865 216.855 232.663 217.004 233.365 217.303C234.073 217.601 234.632 218.049 235.042 218.646C235.451 219.237 235.656 219.98 235.656 220.875V225.49C235.656 226.226 235.698 226.785 235.781 227.167C235.865 227.542 235.983 227.872 236.135 228.157V228.334H232.615C232.448 227.987 232.323 227.563 232.24 227.063C232.163 226.556 232.125 226.035 232.125 225.5ZM232.552 221.448L232.573 223.323H231.021C230.694 223.323 230.417 223.369 230.188 223.459C229.965 223.549 229.785 223.674 229.646 223.834C229.514 223.987 229.417 224.16 229.354 224.355C229.299 224.549 229.271 224.754 229.271 224.969C229.271 225.178 229.319 225.365 229.417 225.532C229.521 225.691 229.66 225.816 229.833 225.907C230.007 225.997 230.201 226.042 230.417 226.042C230.806 226.042 231.135 225.969 231.406 225.823C231.684 225.671 231.896 225.487 232.042 225.271C232.188 225.056 232.26 224.855 232.26 224.667L233.031 226.105C232.892 226.382 232.733 226.664 232.552 226.948C232.378 227.233 232.16 227.497 231.896 227.74C231.639 227.976 231.323 228.171 230.948 228.323C230.573 228.469 230.118 228.542 229.583 228.542C228.889 228.542 228.25 228.4 227.667 228.115C227.09 227.83 226.628 227.434 226.281 226.928C225.934 226.414 225.76 225.823 225.76 225.157C225.76 224.573 225.865 224.053 226.073 223.594C226.288 223.136 226.611 222.747 227.042 222.428C227.472 222.108 228.021 221.865 228.688 221.698C229.354 221.532 230.139 221.448 231.042 221.448H232.552ZM243.542 217.063V219.5H236.75V217.063H243.542ZM238.177 214.261H241.687V224.657C241.687 224.955 241.722 225.188 241.792 225.355C241.861 225.514 241.979 225.629 242.146 225.698C242.319 225.761 242.549 225.792 242.833 225.792C243.035 225.792 243.201 225.789 243.333 225.782C243.465 225.768 243.59 225.75 243.708 225.73V228.24C243.41 228.337 243.097 228.41 242.771 228.459C242.444 228.514 242.097 228.542 241.729 228.542C240.979 228.542 240.337 228.424 239.802 228.188C239.274 227.952 238.872 227.58 238.594 227.073C238.316 226.566 238.177 225.907 238.177 225.094V214.261ZM248.646 217.063V228.334H245.125V217.063H248.646ZM244.917 214.157C244.917 213.657 245.097 213.247 245.458 212.928C245.819 212.608 246.288 212.448 246.865 212.448C247.441 212.448 247.91 212.608 248.271 212.928C248.632 213.247 248.813 213.657 248.813 214.157C248.813 214.657 248.632 215.066 248.271 215.386C247.91 215.705 247.441 215.865 246.865 215.865C246.288 215.865 245.819 215.705 245.458 215.386C245.097 215.066 244.917 214.657 244.917 214.157ZM254.875 225.928L257.094 217.063H260.792L257.104 228.334H254.917L254.875 225.928ZM253.563 217.063L255.75 225.928L255.729 228.334H253.531L249.854 217.063H253.563ZM267.146 228.542C266.229 228.542 265.41 228.4 264.688 228.115C263.965 227.823 263.354 227.424 262.854 226.917C262.361 226.41 261.983 225.827 261.719 225.167C261.462 224.507 261.333 223.809 261.333 223.073V222.678C261.333 221.851 261.448 221.087 261.677 220.386C261.906 219.678 262.247 219.059 262.698 218.532C263.149 218.004 263.715 217.594 264.396 217.303C265.076 217.004 265.868 216.855 266.771 216.855C267.569 216.855 268.285 216.983 268.917 217.24C269.549 217.497 270.083 217.865 270.521 218.344C270.965 218.823 271.302 219.403 271.531 220.084C271.767 220.764 271.885 221.528 271.885 222.375V223.803H262.677V221.605H268.458V221.334C268.465 220.959 268.399 220.639 268.26 220.375C268.128 220.112 267.934 219.91 267.677 219.771C267.42 219.632 267.108 219.563 266.74 219.563C266.358 219.563 266.042 219.646 265.792 219.813C265.549 219.98 265.358 220.209 265.219 220.5C265.087 220.785 264.993 221.115 264.938 221.49C264.882 221.865 264.854 222.261 264.854 222.678V223.073C264.854 223.49 264.91 223.869 265.021 224.209C265.139 224.549 265.306 224.841 265.521 225.084C265.743 225.32 266.007 225.504 266.313 225.636C266.625 225.768 266.979 225.834 267.375 225.834C267.854 225.834 268.326 225.744 268.792 225.563C269.257 225.382 269.656 225.084 269.99 224.667L271.583 226.563C271.354 226.889 271.028 227.205 270.604 227.511C270.188 227.816 269.688 228.066 269.104 228.261C268.521 228.448 267.868 228.542 267.146 228.542Z" fill="white"/>
<rect x="339" y="196.334" width="208" height="49.3333" rx="4.66667" fill="#032955" stroke="#032955" stroke-width="4"/>
<path d="M419.073 225.521V228.334H411.406V225.521H419.073ZM412.708 213.167V228.334H409.052V213.167H412.708ZM426.302 225.5V220.855C426.302 220.535 426.257 220.261 426.167 220.032C426.076 219.803 425.934 219.625 425.74 219.5C425.545 219.369 425.285 219.303 424.958 219.303C424.694 219.303 424.469 219.348 424.281 219.438C424.094 219.528 423.951 219.664 423.854 219.844C423.757 220.025 423.708 220.254 423.708 220.532H420.198C420.198 220.011 420.312 219.528 420.542 219.084C420.778 218.632 421.111 218.24 421.542 217.907C421.979 217.573 422.5 217.316 423.104 217.136C423.715 216.948 424.396 216.855 425.146 216.855C426.042 216.855 426.84 217.004 427.542 217.303C428.25 217.601 428.809 218.049 429.219 218.646C429.628 219.237 429.833 219.98 429.833 220.875V225.49C429.833 226.226 429.875 226.785 429.958 227.167C430.042 227.542 430.16 227.872 430.312 228.157V228.334H426.792C426.625 227.987 426.5 227.563 426.417 227.063C426.34 226.556 426.302 226.035 426.302 225.5ZM426.729 221.448L426.75 223.323H425.198C424.872 223.323 424.594 223.369 424.365 223.459C424.142 223.549 423.962 223.674 423.823 223.834C423.691 223.987 423.594 224.16 423.531 224.355C423.476 224.549 423.448 224.754 423.448 224.969C423.448 225.178 423.497 225.365 423.594 225.532C423.698 225.691 423.837 225.816 424.01 225.907C424.184 225.997 424.378 226.042 424.594 226.042C424.983 226.042 425.312 225.969 425.583 225.823C425.861 225.671 426.073 225.487 426.219 225.271C426.365 225.056 426.437 224.855 426.437 224.667L427.208 226.105C427.069 226.382 426.91 226.664 426.729 226.948C426.556 227.233 426.337 227.497 426.073 227.74C425.816 227.976 425.5 228.171 425.125 228.323C424.75 228.469 424.295 228.542 423.76 228.542C423.066 228.542 422.427 228.4 421.844 228.115C421.267 227.83 420.806 227.434 420.458 226.928C420.111 226.414 419.937 225.823 419.937 225.157C419.937 224.573 420.042 224.053 420.25 223.594C420.465 223.136 420.788 222.747 421.219 222.428C421.649 222.108 422.198 221.865 422.865 221.698C423.531 221.532 424.316 221.448 425.219 221.448H426.729ZM435.323 219.855V228.334H431.812V217.063H435.094L435.323 219.855ZM438.656 216.98L438.594 220.24C438.455 220.226 438.267 220.209 438.031 220.188C437.795 220.167 437.597 220.157 437.437 220.157C437.028 220.157 436.674 220.205 436.375 220.303C436.083 220.393 435.84 220.532 435.646 220.719C435.458 220.9 435.319 221.129 435.229 221.407C435.146 221.684 435.108 222.007 435.115 222.375L434.479 221.959C434.479 221.202 434.552 220.514 434.698 219.896C434.851 219.271 435.066 218.733 435.344 218.282C435.622 217.823 435.958 217.473 436.354 217.23C436.75 216.98 437.194 216.855 437.687 216.855C437.861 216.855 438.031 216.865 438.198 216.886C438.372 216.907 438.524 216.938 438.656 216.98ZM445.406 225.5V220.855C445.406 220.535 445.361 220.261 445.271 220.032C445.181 219.803 445.038 219.625 444.844 219.5C444.649 219.369 444.389 219.303 444.063 219.303C443.799 219.303 443.573 219.348 443.385 219.438C443.198 219.528 443.056 219.664 442.958 219.844C442.861 220.025 442.813 220.254 442.813 220.532H439.302C439.302 220.011 439.417 219.528 439.646 219.084C439.882 218.632 440.215 218.24 440.646 217.907C441.083 217.573 441.604 217.316 442.208 217.136C442.819 216.948 443.5 216.855 444.25 216.855C445.146 216.855 445.944 217.004 446.646 217.303C447.354 217.601 447.913 218.049 448.323 218.646C448.733 219.237 448.938 219.98 448.938 220.875V225.49C448.938 226.226 448.979 226.785 449.063 227.167C449.146 227.542 449.264 227.872 449.417 228.157V228.334H445.896C445.729 227.987 445.604 227.563 445.521 227.063C445.444 226.556 445.406 226.035 445.406 225.5ZM445.833 221.448L445.854 223.323H444.302C443.976 223.323 443.698 223.369 443.469 223.459C443.247 223.549 443.066 223.674 442.927 223.834C442.795 223.987 442.698 224.16 442.635 224.355C442.58 224.549 442.552 224.754 442.552 224.969C442.552 225.178 442.601 225.365 442.698 225.532C442.802 225.691 442.941 225.816 443.115 225.907C443.288 225.997 443.483 226.042 443.698 226.042C444.087 226.042 444.417 225.969 444.688 225.823C444.965 225.671 445.177 225.487 445.323 225.271C445.469 225.056 445.542 224.855 445.542 224.667L446.313 226.105C446.174 226.382 446.014 226.664 445.833 226.948C445.66 227.233 445.441 227.497 445.177 227.74C444.92 227.976 444.604 228.171 444.229 228.323C443.854 228.469 443.399 228.542 442.865 228.542C442.17 228.542 441.531 228.4 440.948 228.115C440.372 227.83 439.91 227.434 439.563 226.928C439.215 226.414 439.042 225.823 439.042 225.157C439.042 224.573 439.146 224.053 439.354 223.594C439.569 223.136 439.892 222.747 440.323 222.428C440.753 222.108 441.302 221.865 441.969 221.698C442.635 221.532 443.42 221.448 444.323 221.448H445.833ZM454.781 225.928L457 217.063H460.698L457.01 228.334H454.823L454.781 225.928ZM453.469 217.063L455.656 225.928L455.635 228.334H453.437L449.76 217.063H453.469ZM467.052 228.542C466.135 228.542 465.316 228.4 464.594 228.115C463.872 227.823 463.26 227.424 462.76 226.917C462.267 226.41 461.889 225.827 461.625 225.167C461.368 224.507 461.24 223.809 461.24 223.073V222.678C461.24 221.851 461.354 221.087 461.583 220.386C461.812 219.678 462.153 219.059 462.604 218.532C463.056 218.004 463.622 217.594 464.302 217.303C464.983 217.004 465.774 216.855 466.677 216.855C467.476 216.855 468.191 216.983 468.823 217.24C469.455 217.497 469.99 217.865 470.427 218.344C470.872 218.823 471.208 219.403 471.437 220.084C471.674 220.764 471.792 221.528 471.792 222.375V223.803H462.583V221.605H468.365V221.334C468.372 220.959 468.306 220.639 468.167 220.375C468.035 220.112 467.84 219.91 467.583 219.771C467.326 219.632 467.014 219.563 466.646 219.563C466.264 219.563 465.948 219.646 465.698 219.813C465.455 219.98 465.264 220.209 465.125 220.5C464.993 220.785 464.899 221.115 464.844 221.49C464.788 221.865 464.76 222.261 464.76 222.678V223.073C464.76 223.49 464.816 223.869 464.927 224.209C465.045 224.549 465.212 224.841 465.427 225.084C465.649 225.32 465.913 225.504 466.219 225.636C466.531 225.768 466.885 225.834 467.281 225.834C467.76 225.834 468.233 225.744 468.698 225.563C469.163 225.382 469.562 225.084 469.896 224.667L471.49 226.563C471.26 226.889 470.934 227.205 470.51 227.511C470.094 227.816 469.594 228.066 469.01 228.261C468.427 228.448 467.774 228.542 467.052 228.542ZM476.927 212.334V228.334H473.406V212.334H476.927Z" fill="white"/>
<rect x="571" y="196.334" width="208" height="49.3333" rx="4.66667" fill="#032955" stroke="#032955" stroke-width="4"/>
<path d="M643.26 213.167H646.24L649.625 223.719L653.01 213.167H655.99L650.833 228.334H648.417L643.26 213.167ZM641.448 213.167H644.531L645.104 224.792V228.334H641.448V213.167ZM654.719 213.167H657.812V228.334H654.146V224.792L654.719 213.167ZM663.448 227.011L666.365 217.063H670.135L665.604 230.011C665.507 230.296 665.378 230.601 665.219 230.928C665.059 231.261 664.84 231.577 664.563 231.875C664.285 232.174 663.927 232.417 663.49 232.605C663.059 232.792 662.524 232.886 661.885 232.886C661.545 232.886 661.295 232.869 661.135 232.834C660.983 232.806 660.747 232.754 660.427 232.678V230.167C660.517 230.167 660.594 230.167 660.656 230.167C660.726 230.167 660.802 230.167 660.885 230.167C661.26 230.167 661.559 230.129 661.781 230.053C662.01 229.976 662.184 229.865 662.302 229.719C662.427 229.573 662.524 229.396 662.594 229.188L663.448 227.011ZM662.708 217.063L664.927 224.948L665.313 228.667H662.958L658.948 217.063H662.708ZM679.031 224.303C679.031 224.066 678.997 223.855 678.927 223.667C678.858 223.473 678.729 223.292 678.542 223.125C678.354 222.959 678.083 222.792 677.729 222.625C677.382 222.452 676.924 222.271 676.354 222.084C675.688 221.862 675.045 221.612 674.427 221.334C673.809 221.049 673.257 220.719 672.771 220.344C672.285 219.962 671.899 219.518 671.615 219.011C671.33 218.497 671.188 217.9 671.188 217.219C671.188 216.566 671.333 215.98 671.625 215.459C671.917 214.931 672.323 214.483 672.844 214.115C673.372 213.74 673.99 213.455 674.698 213.261C675.406 213.059 676.181 212.959 677.021 212.959C678.132 212.959 679.111 213.153 679.958 213.542C680.813 213.924 681.479 214.469 681.958 215.178C682.444 215.879 682.688 216.709 682.688 217.667H679.052C679.052 217.285 678.972 216.948 678.813 216.657C678.66 216.365 678.427 216.136 678.115 215.969C677.802 215.803 677.41 215.719 676.938 215.719C676.479 215.719 676.094 215.789 675.781 215.928C675.469 216.066 675.233 216.254 675.073 216.49C674.913 216.719 674.833 216.973 674.833 217.25C674.833 217.48 674.896 217.688 675.021 217.875C675.153 218.056 675.337 218.226 675.573 218.386C675.816 218.546 676.108 218.698 676.448 218.844C676.795 218.99 677.184 219.132 677.615 219.271C678.42 219.528 679.135 219.816 679.76 220.136C680.392 220.448 680.924 220.806 681.354 221.209C681.792 221.605 682.122 222.056 682.344 222.563C682.573 223.07 682.688 223.643 682.688 224.282C682.688 224.962 682.556 225.566 682.292 226.094C682.028 226.622 681.649 227.07 681.156 227.438C680.663 227.799 680.073 228.073 679.385 228.261C678.698 228.448 677.931 228.542 677.083 228.542C676.306 228.542 675.538 228.445 674.781 228.25C674.031 228.049 673.351 227.744 672.74 227.334C672.128 226.917 671.639 226.386 671.271 225.74C670.91 225.087 670.729 224.313 670.729 223.417H674.396C674.396 223.862 674.455 224.237 674.573 224.542C674.691 224.848 674.865 225.094 675.094 225.282C675.323 225.462 675.604 225.594 675.938 225.678C676.271 225.754 676.653 225.792 677.083 225.792C677.549 225.792 677.924 225.726 678.208 225.594C678.493 225.455 678.701 225.275 678.833 225.053C678.965 224.823 679.031 224.573 679.031 224.303ZM693.031 225.834L697.26 229.188L694.99 231.105L690.833 227.75L693.031 225.834ZM697.437 220.448V221.063C697.437 222.223 697.274 223.264 696.948 224.188C696.628 225.105 696.17 225.889 695.573 226.542C694.983 227.188 694.285 227.684 693.479 228.032C692.674 228.372 691.785 228.542 690.812 228.542C689.833 228.542 688.937 228.372 688.125 228.032C687.319 227.684 686.618 227.188 686.021 226.542C685.431 225.889 684.972 225.105 684.646 224.188C684.326 223.264 684.167 222.223 684.167 221.063V220.448C684.167 219.289 684.326 218.247 684.646 217.323C684.972 216.4 685.427 215.615 686.01 214.969C686.601 214.316 687.299 213.82 688.104 213.48C688.917 213.132 689.812 212.959 690.792 212.959C691.764 212.959 692.653 213.132 693.458 213.48C694.271 213.82 694.972 214.316 695.562 214.969C696.16 215.615 696.622 216.4 696.948 217.323C697.274 218.247 697.437 219.289 697.437 220.448ZM693.719 221.063V220.428C693.719 219.678 693.653 219.018 693.521 218.448C693.396 217.872 693.208 217.389 692.958 217C692.708 216.612 692.399 216.32 692.031 216.125C691.67 215.924 691.257 215.823 690.792 215.823C690.306 215.823 689.882 215.924 689.521 216.125C689.16 216.32 688.858 216.612 688.615 217C688.372 217.389 688.187 217.872 688.062 218.448C687.944 219.018 687.885 219.678 687.885 220.428V221.063C687.885 221.806 687.944 222.466 688.062 223.042C688.187 223.612 688.372 224.094 688.615 224.49C688.865 224.886 689.17 225.184 689.531 225.386C689.899 225.587 690.326 225.688 690.812 225.688C691.278 225.688 691.691 225.587 692.052 225.386C692.413 225.184 692.715 224.886 692.958 224.49C693.208 224.094 693.396 223.612 693.521 223.042C693.653 222.466 693.719 221.806 693.719 221.063ZM709.323 225.521V228.334H701.656V225.521H709.323ZM702.958 213.167V228.334H699.302V213.167H702.958Z" fill="white"/>
<rect x="803" y="196.334" width="208" height="49.3333" rx="4.66667" fill="#032955" stroke="#032955" stroke-width="4"/>
<path d="M870.156 213.167V228.334H868.146V213.167H870.156ZM876.51 219.99V221.636H869.719V219.99H876.51ZM877.542 213.167V214.813H869.719V213.167H877.542ZM881.74 217.063V228.334H879.802V217.063H881.74ZM879.656 214.073C879.656 213.761 879.75 213.497 879.937 213.282C880.132 213.066 880.417 212.959 880.792 212.959C881.16 212.959 881.441 213.066 881.635 213.282C881.837 213.497 881.937 213.761 881.937 214.073C881.937 214.372 881.837 214.629 881.635 214.844C881.441 215.053 881.16 215.157 880.792 215.157C880.417 215.157 880.132 215.053 879.937 214.844C879.75 214.629 879.656 214.372 879.656 214.073ZM886.76 218.834V228.334H884.833V217.063H886.708L886.76 218.834ZM890.281 217L890.271 218.792C890.111 218.757 889.958 218.737 889.812 218.73C889.674 218.716 889.514 218.709 889.333 218.709C888.889 218.709 888.497 218.778 888.156 218.917C887.816 219.056 887.528 219.25 887.292 219.5C887.056 219.75 886.868 220.049 886.729 220.396C886.597 220.737 886.51 221.112 886.469 221.521L885.927 221.834C885.927 221.153 885.993 220.514 886.125 219.917C886.264 219.32 886.476 218.792 886.76 218.334C887.045 217.869 887.406 217.507 887.844 217.25C888.288 216.987 888.816 216.855 889.427 216.855C889.566 216.855 889.726 216.872 889.906 216.907C890.087 216.934 890.212 216.966 890.281 217ZM896.531 228.542C895.747 228.542 895.035 228.41 894.396 228.146C893.764 227.875 893.219 227.497 892.76 227.011C892.309 226.525 891.962 225.948 891.719 225.282C891.476 224.615 891.354 223.886 891.354 223.094V222.657C891.354 221.74 891.49 220.924 891.76 220.209C892.031 219.487 892.399 218.875 892.865 218.375C893.33 217.875 893.858 217.497 894.448 217.24C895.038 216.983 895.649 216.855 896.281 216.855C897.087 216.855 897.781 216.994 898.365 217.271C898.955 217.549 899.437 217.938 899.812 218.438C900.187 218.931 900.465 219.514 900.646 220.188C900.826 220.855 900.917 221.584 900.917 222.375V223.24H892.5V221.667H898.99V221.521C898.962 221.021 898.858 220.535 898.677 220.063C898.503 219.591 898.226 219.202 897.844 218.896C897.462 218.591 896.941 218.438 896.281 218.438C895.844 218.438 895.441 218.532 895.073 218.719C894.705 218.9 894.389 219.171 894.125 219.532C893.861 219.893 893.656 220.334 893.51 220.855C893.365 221.375 893.292 221.976 893.292 222.657V223.094C893.292 223.629 893.365 224.132 893.51 224.605C893.663 225.07 893.882 225.48 894.167 225.834C894.458 226.188 894.809 226.466 895.219 226.667C895.635 226.869 896.108 226.969 896.635 226.969C897.316 226.969 897.892 226.83 898.365 226.553C898.837 226.275 899.25 225.903 899.604 225.438L900.771 226.365C900.528 226.733 900.219 227.084 899.844 227.417C899.469 227.75 899.007 228.021 898.458 228.23C897.917 228.438 897.274 228.542 896.531 228.542ZM903.156 212.334H905.094V226.146L904.927 228.334H903.156V212.334ZM912.708 222.605V222.823C912.708 223.643 912.611 224.403 912.417 225.105C912.222 225.799 911.937 226.403 911.562 226.917C911.187 227.431 910.729 227.83 910.187 228.115C909.646 228.4 909.024 228.542 908.323 228.542C907.608 228.542 906.979 228.421 906.437 228.178C905.903 227.928 905.451 227.57 905.083 227.105C904.715 226.639 904.42 226.077 904.198 225.417C903.983 224.757 903.833 224.014 903.75 223.188V222.23C903.833 221.396 903.983 220.65 904.198 219.99C904.42 219.33 904.715 218.768 905.083 218.303C905.451 217.83 905.903 217.473 906.437 217.23C906.972 216.98 907.594 216.855 908.302 216.855C909.01 216.855 909.639 216.994 910.187 217.271C910.736 217.542 911.194 217.931 911.562 218.438C911.937 218.945 912.222 219.553 912.417 220.261C912.611 220.962 912.708 221.744 912.708 222.605ZM910.771 222.823V222.605C910.771 222.042 910.719 221.514 910.615 221.021C910.51 220.521 910.344 220.084 910.115 219.709C909.885 219.327 909.583 219.028 909.208 218.813C908.833 218.591 908.372 218.48 907.823 218.48C907.337 218.48 906.913 218.563 906.552 218.73C906.198 218.896 905.896 219.122 905.646 219.407C905.396 219.684 905.191 220.004 905.031 220.365C904.878 220.719 904.764 221.087 904.687 221.469V223.98C904.799 224.466 904.979 224.934 905.229 225.386C905.486 225.83 905.826 226.195 906.25 226.48C906.681 226.764 907.212 226.907 907.844 226.907C908.365 226.907 908.809 226.803 909.177 226.594C909.552 226.379 909.854 226.084 910.083 225.709C910.319 225.334 910.493 224.9 910.604 224.407C910.715 223.914 910.771 223.386 910.771 222.823ZM921.792 226.407V220.605C921.792 220.16 921.701 219.775 921.521 219.448C921.347 219.115 921.083 218.858 920.729 218.678C920.375 218.497 919.937 218.407 919.417 218.407C918.931 218.407 918.503 218.49 918.135 218.657C917.774 218.823 917.49 219.042 917.281 219.313C917.08 219.584 916.979 219.875 916.979 220.188H915.052C915.052 219.785 915.156 219.386 915.365 218.99C915.573 218.594 915.872 218.237 916.26 217.917C916.656 217.591 917.128 217.334 917.677 217.146C918.233 216.952 918.851 216.855 919.531 216.855C920.351 216.855 921.073 216.994 921.698 217.271C922.33 217.549 922.823 217.969 923.177 218.532C923.538 219.087 923.719 219.785 923.719 220.625V225.875C923.719 226.25 923.75 226.65 923.812 227.073C923.882 227.497 923.983 227.862 924.115 228.167V228.334H922.104C922.007 228.112 921.931 227.816 921.875 227.448C921.819 227.073 921.792 226.726 921.792 226.407ZM922.125 221.5L922.146 222.855H920.198C919.649 222.855 919.16 222.9 918.729 222.99C918.299 223.073 917.937 223.202 917.646 223.375C917.354 223.549 917.132 223.768 916.979 224.032C916.826 224.289 916.75 224.591 916.75 224.938C916.75 225.292 916.83 225.615 916.99 225.907C917.149 226.198 917.389 226.431 917.708 226.605C918.035 226.771 918.434 226.855 918.906 226.855C919.497 226.855 920.017 226.73 920.469 226.48C920.92 226.23 921.278 225.924 921.542 225.563C921.812 225.202 921.958 224.851 921.979 224.511L922.802 225.438C922.753 225.73 922.622 226.053 922.406 226.407C922.191 226.761 921.903 227.101 921.542 227.428C921.187 227.747 920.764 228.014 920.271 228.23C919.785 228.438 919.236 228.542 918.625 228.542C917.861 228.542 917.191 228.393 916.615 228.094C916.045 227.796 915.601 227.396 915.281 226.896C914.969 226.389 914.812 225.823 914.812 225.198C914.812 224.594 914.931 224.063 915.167 223.605C915.403 223.139 915.743 222.754 916.187 222.448C916.632 222.136 917.167 221.9 917.792 221.74C918.417 221.58 919.115 221.5 919.885 221.5H922.125ZM933.313 225.344C933.313 225.066 933.25 224.809 933.125 224.573C933.007 224.33 932.76 224.112 932.385 223.917C932.017 223.716 931.462 223.542 930.719 223.396C930.094 223.264 929.528 223.108 929.021 222.928C928.521 222.747 928.094 222.528 927.74 222.271C927.392 222.014 927.125 221.712 926.938 221.365C926.75 221.018 926.656 220.612 926.656 220.146C926.656 219.702 926.753 219.282 926.948 218.886C927.149 218.49 927.431 218.139 927.792 217.834C928.16 217.528 928.601 217.289 929.115 217.115C929.628 216.941 930.201 216.855 930.833 216.855C931.736 216.855 932.507 217.014 933.146 217.334C933.785 217.653 934.274 218.08 934.615 218.615C934.955 219.143 935.125 219.73 935.125 220.375H933.198C933.198 220.063 933.104 219.761 932.917 219.469C932.736 219.171 932.469 218.924 932.115 218.73C931.767 218.535 931.34 218.438 930.833 218.438C930.299 218.438 929.865 218.521 929.531 218.688C929.205 218.848 928.965 219.053 928.813 219.303C928.667 219.553 928.594 219.816 928.594 220.094C928.594 220.303 928.628 220.49 928.698 220.657C928.774 220.816 928.906 220.966 929.094 221.105C929.281 221.237 929.545 221.362 929.885 221.48C930.226 221.598 930.66 221.716 931.188 221.834C932.111 222.042 932.872 222.292 933.469 222.584C934.066 222.875 934.51 223.233 934.802 223.657C935.094 224.08 935.24 224.594 935.24 225.198C935.24 225.691 935.135 226.143 934.927 226.553C934.726 226.962 934.431 227.316 934.042 227.615C933.66 227.907 933.201 228.136 932.667 228.303C932.139 228.462 931.545 228.542 930.885 228.542C929.892 228.542 929.052 228.365 928.365 228.011C927.677 227.657 927.156 227.198 926.802 226.636C926.448 226.073 926.271 225.48 926.271 224.855H928.208C928.236 225.382 928.389 225.803 928.667 226.115C928.944 226.421 929.285 226.639 929.688 226.771C930.09 226.896 930.49 226.959 930.885 226.959C931.413 226.959 931.854 226.889 932.208 226.75C932.569 226.612 932.844 226.421 933.031 226.178C933.219 225.934 933.313 225.657 933.313 225.344ZM942.448 228.542C941.663 228.542 940.951 228.41 940.313 228.146C939.681 227.875 939.135 227.497 938.677 227.011C938.226 226.525 937.878 225.948 937.635 225.282C937.392 224.615 937.271 223.886 937.271 223.094V222.657C937.271 221.74 937.406 220.924 937.677 220.209C937.948 219.487 938.316 218.875 938.781 218.375C939.247 217.875 939.774 217.497 940.365 217.24C940.955 216.983 941.566 216.855 942.198 216.855C943.003 216.855 943.698 216.994 944.281 217.271C944.872 217.549 945.354 217.938 945.729 218.438C946.104 218.931 946.382 219.514 946.563 220.188C946.743 220.855 946.833 221.584 946.833 222.375V223.24H938.417V221.667H944.906V221.521C944.878 221.021 944.774 220.535 944.594 220.063C944.42 219.591 944.142 219.202 943.76 218.896C943.378 218.591 942.858 218.438 942.198 218.438C941.76 218.438 941.358 218.532 940.99 218.719C940.622 218.9 940.306 219.171 940.042 219.532C939.778 219.893 939.573 220.334 939.427 220.855C939.281 221.375 939.208 221.976 939.208 222.657V223.094C939.208 223.629 939.281 224.132 939.427 224.605C939.58 225.07 939.799 225.48 940.083 225.834C940.375 226.188 940.726 226.466 941.135 226.667C941.552 226.869 942.024 226.969 942.552 226.969C943.233 226.969 943.809 226.83 944.281 226.553C944.753 226.275 945.167 225.903 945.521 225.438L946.688 226.365C946.444 226.733 946.135 227.084 945.76 227.417C945.385 227.75 944.924 228.021 944.375 228.23C943.833 228.438 943.191 228.542 942.448 228.542Z" fill="white"/>
<path d="M870.292 213.167V228.334H867.167V213.167H870.292ZM876.333 219.646V222.084H869.438V219.646H876.333ZM877.063 213.167V215.615H869.438V213.167H877.063ZM881.854 217.063V228.334H878.844V217.063H881.854ZM878.656 214.125C878.656 213.688 878.809 213.327 879.115 213.042C879.42 212.757 879.83 212.615 880.344 212.615C880.851 212.615 881.257 212.757 881.563 213.042C881.875 213.327 882.031 213.688 882.031 214.125C882.031 214.563 881.875 214.924 881.563 215.209C881.257 215.494 880.851 215.636 880.344 215.636C879.83 215.636 879.42 215.494 879.115 215.209C878.809 214.924 878.656 214.563 878.656 214.125ZM887.333 219.521V228.334H884.333V217.063H887.156L887.333 219.521ZM890.729 216.99L890.677 219.771C890.531 219.75 890.354 219.733 890.146 219.719C889.944 219.698 889.76 219.688 889.594 219.688C889.17 219.688 888.802 219.744 888.49 219.855C888.184 219.959 887.927 220.115 887.719 220.323C887.517 220.532 887.365 220.785 887.26 221.084C887.163 221.382 887.108 221.723 887.094 222.105L886.49 221.917C886.49 221.188 886.563 220.518 886.708 219.907C886.854 219.289 887.066 218.75 887.344 218.292C887.628 217.834 887.976 217.48 888.385 217.23C888.795 216.98 889.264 216.855 889.792 216.855C889.958 216.855 890.128 216.869 890.302 216.896C890.476 216.917 890.618 216.948 890.729 216.99ZM897.125 228.542C896.25 228.542 895.465 228.403 894.771 228.125C894.076 227.841 893.486 227.448 893 226.948C892.521 226.448 892.153 225.869 891.896 225.209C891.639 224.542 891.51 223.834 891.51 223.084V222.667C891.51 221.813 891.632 221.032 891.875 220.323C892.118 219.615 892.465 219 892.917 218.48C893.375 217.959 893.931 217.559 894.583 217.282C895.236 216.997 895.972 216.855 896.792 216.855C897.59 216.855 898.299 216.987 898.917 217.25C899.535 217.514 900.052 217.889 900.469 218.375C900.892 218.862 901.212 219.445 901.427 220.125C901.642 220.799 901.75 221.549 901.75 222.375V223.625H892.792V221.625H898.802V221.396C898.802 220.98 898.726 220.608 898.573 220.282C898.427 219.948 898.205 219.684 897.906 219.49C897.608 219.296 897.226 219.198 896.76 219.198C896.365 219.198 896.024 219.285 895.74 219.459C895.455 219.632 895.222 219.875 895.042 220.188C894.868 220.5 894.736 220.869 894.646 221.292C894.563 221.709 894.521 222.167 894.521 222.667V223.084C894.521 223.535 894.583 223.952 894.708 224.334C894.84 224.716 895.024 225.046 895.26 225.323C895.503 225.601 895.795 225.816 896.135 225.969C896.483 226.122 896.875 226.198 897.313 226.198C897.854 226.198 898.358 226.094 898.823 225.886C899.295 225.671 899.701 225.348 900.042 224.917L901.5 226.5C901.264 226.841 900.941 227.167 900.531 227.48C900.128 227.792 899.642 228.049 899.073 228.25C898.503 228.445 897.854 228.542 897.125 228.542ZM903.458 212.334H906.458V225.75L906.156 228.334H903.458V212.334ZM913.594 222.584V222.803C913.594 223.643 913.503 224.414 913.323 225.115C913.149 225.816 912.878 226.424 912.51 226.938C912.142 227.445 911.684 227.841 911.135 228.125C910.594 228.403 909.955 228.542 909.219 228.542C908.531 228.542 907.934 228.403 907.427 228.125C906.927 227.848 906.507 227.455 906.167 226.948C905.826 226.441 905.552 225.848 905.344 225.167C905.135 224.487 904.979 223.744 904.875 222.938V222.459C904.979 221.653 905.135 220.91 905.344 220.23C905.552 219.549 905.826 218.955 906.167 218.448C906.507 217.941 906.927 217.549 907.427 217.271C907.927 216.994 908.517 216.855 909.198 216.855C909.941 216.855 910.587 216.997 911.135 217.282C911.691 217.559 912.149 217.955 912.51 218.469C912.878 218.976 913.149 219.58 913.323 220.282C913.503 220.976 913.594 221.744 913.594 222.584ZM910.594 222.803V222.584C910.594 222.125 910.559 221.695 910.49 221.292C910.427 220.882 910.316 220.525 910.156 220.219C909.997 219.907 909.778 219.66 909.5 219.48C909.229 219.299 908.878 219.209 908.448 219.209C908.038 219.209 907.691 219.278 907.406 219.417C907.122 219.556 906.885 219.75 906.698 220C906.517 220.25 906.382 220.549 906.292 220.896C906.201 221.237 906.146 221.612 906.125 222.021V223.386C906.146 223.934 906.236 224.421 906.396 224.844C906.563 225.261 906.813 225.591 907.146 225.834C907.486 226.07 907.927 226.188 908.469 226.188C908.892 226.188 909.243 226.105 909.521 225.938C909.799 225.771 910.014 225.535 910.167 225.23C910.326 224.924 910.438 224.566 910.5 224.157C910.563 223.74 910.594 223.289 910.594 222.803ZM921.542 225.792V220.771C921.542 220.41 921.483 220.101 921.365 219.844C921.247 219.58 921.063 219.375 920.813 219.23C920.569 219.084 920.253 219.011 919.865 219.011C919.531 219.011 919.243 219.07 919 219.188C918.757 219.299 918.569 219.462 918.438 219.678C918.306 219.886 918.24 220.132 918.24 220.417H915.24C915.24 219.938 915.351 219.483 915.573 219.053C915.795 218.622 916.118 218.244 916.542 217.917C916.965 217.584 917.469 217.323 918.052 217.136C918.642 216.948 919.302 216.855 920.031 216.855C920.906 216.855 921.684 217 922.365 217.292C923.045 217.584 923.58 218.021 923.969 218.605C924.365 219.188 924.563 219.917 924.563 220.792V225.615C924.563 226.233 924.601 226.74 924.677 227.136C924.753 227.525 924.865 227.865 925.01 228.157V228.334H921.979C921.833 228.028 921.722 227.646 921.646 227.188C921.576 226.723 921.542 226.257 921.542 225.792ZM921.938 221.469L921.958 223.167H920.281C919.885 223.167 919.542 223.212 919.25 223.303C918.958 223.393 918.719 223.521 918.531 223.688C918.344 223.848 918.205 224.035 918.115 224.25C918.031 224.466 917.99 224.702 917.99 224.959C917.99 225.216 918.049 225.448 918.167 225.657C918.285 225.858 918.455 226.018 918.677 226.136C918.899 226.247 919.16 226.303 919.458 226.303C919.91 226.303 920.302 226.212 920.635 226.032C920.969 225.851 921.226 225.629 921.406 225.365C921.594 225.101 921.691 224.851 921.698 224.615L922.49 225.886C922.378 226.171 922.226 226.466 922.031 226.771C921.844 227.077 921.604 227.365 921.313 227.636C921.021 227.9 920.67 228.119 920.26 228.292C919.851 228.459 919.365 228.542 918.802 228.542C918.087 228.542 917.438 228.4 916.854 228.115C916.278 227.823 915.819 227.424 915.479 226.917C915.146 226.403 914.979 225.82 914.979 225.167C914.979 224.577 915.09 224.053 915.313 223.594C915.535 223.136 915.861 222.75 916.292 222.438C916.729 222.119 917.274 221.879 917.927 221.719C918.58 221.553 919.337 221.469 920.198 221.469H921.938ZM932.969 225.219C932.969 225.004 932.906 224.809 932.781 224.636C932.656 224.462 932.424 224.303 932.083 224.157C931.75 224.004 931.267 223.865 930.635 223.74C930.066 223.615 929.535 223.459 929.042 223.271C928.556 223.077 928.132 222.844 927.771 222.573C927.417 222.303 927.139 221.983 926.938 221.615C926.736 221.24 926.635 220.813 926.635 220.334C926.635 219.862 926.736 219.417 926.938 219C927.146 218.584 927.441 218.216 927.823 217.896C928.212 217.57 928.684 217.316 929.24 217.136C929.802 216.948 930.434 216.855 931.135 216.855C932.115 216.855 932.955 217.011 933.656 217.323C934.365 217.636 934.906 218.066 935.281 218.615C935.663 219.157 935.854 219.775 935.854 220.469H932.854C932.854 220.178 932.792 219.917 932.667 219.688C932.549 219.452 932.361 219.268 932.104 219.136C931.854 218.997 931.528 218.928 931.125 218.928C930.792 218.928 930.503 218.987 930.26 219.105C930.017 219.216 929.83 219.369 929.698 219.563C929.573 219.75 929.51 219.959 929.51 220.188C929.51 220.362 929.545 220.518 929.615 220.657C929.691 220.789 929.813 220.91 929.979 221.021C930.146 221.132 930.361 221.237 930.625 221.334C930.896 221.424 931.229 221.507 931.625 221.584C932.438 221.75 933.163 221.969 933.802 222.24C934.441 222.504 934.948 222.865 935.323 223.323C935.698 223.775 935.885 224.369 935.885 225.105C935.885 225.605 935.774 226.063 935.552 226.48C935.33 226.896 935.01 227.261 934.594 227.573C934.177 227.879 933.677 228.119 933.094 228.292C932.517 228.459 931.868 228.542 931.146 228.542C930.097 228.542 929.208 228.355 928.479 227.98C927.757 227.605 927.208 227.129 926.833 226.553C926.465 225.969 926.281 225.372 926.281 224.761H929.125C929.139 225.171 929.243 225.5 929.438 225.75C929.639 226 929.892 226.181 930.198 226.292C930.51 226.403 930.847 226.459 931.208 226.459C931.597 226.459 931.92 226.407 932.177 226.303C932.434 226.191 932.628 226.046 932.76 225.865C932.899 225.678 932.969 225.462 932.969 225.219ZM943.021 228.542C942.146 228.542 941.361 228.403 940.667 228.125C939.972 227.841 939.382 227.448 938.896 226.948C938.417 226.448 938.049 225.869 937.792 225.209C937.535 224.542 937.406 223.834 937.406 223.084V222.667C937.406 221.813 937.528 221.032 937.771 220.323C938.014 219.615 938.361 219 938.813 218.48C939.271 217.959 939.826 217.559 940.479 217.282C941.132 216.997 941.868 216.855 942.688 216.855C943.486 216.855 944.194 216.987 944.813 217.25C945.431 217.514 945.948 217.889 946.365 218.375C946.788 218.862 947.108 219.445 947.323 220.125C947.538 220.799 947.646 221.549 947.646 222.375V223.625H938.688V221.625H944.698V221.396C944.698 220.98 944.622 220.608 944.469 220.282C944.323 219.948 944.101 219.684 943.802 219.49C943.503 219.296 943.122 219.198 942.656 219.198C942.26 219.198 941.92 219.285 941.635 219.459C941.351 219.632 941.118 219.875 940.938 220.188C940.764 220.5 940.632 220.869 940.542 221.292C940.458 221.709 940.417 222.167 940.417 222.667V223.084C940.417 223.535 940.479 223.952 940.604 224.334C940.736 224.716 940.92 225.046 941.156 225.323C941.399 225.601 941.691 225.816 942.031 225.969C942.378 226.122 942.771 226.198 943.208 226.198C943.75 226.198 944.253 226.094 944.719 225.886C945.191 225.671 945.597 225.348 945.938 224.917L947.396 226.5C947.16 226.841 946.837 227.167 946.427 227.48C946.024 227.792 945.538 228.049 944.969 228.25C944.399 228.445 943.75 228.542 943.021 228.542Z" fill="white"/>
<rect x="1035" y="196.334" width="208" height="49.3333" rx="4.66667" fill="#032955" stroke="#032955" stroke-width="4"/>
<path d="M1108.4 216.355L1104.7 228.334H1100.77L1106.34 213.167H1108.83L1108.4 216.355ZM1111.46 228.334L1107.75 216.355L1107.27 213.167H1109.79L1115.4 228.334H1111.46ZM1111.31 222.678V225.5H1103.53V222.678H1111.31ZM1119.89 219.855V228.334H1116.37V217.063H1119.66L1119.89 219.855ZM1123.22 216.98L1123.16 220.24C1123.02 220.226 1122.83 220.209 1122.59 220.188C1122.36 220.167 1122.16 220.157 1122 220.157C1121.59 220.157 1121.24 220.205 1120.94 220.303C1120.65 220.393 1120.4 220.532 1120.21 220.719C1120.02 220.9 1119.88 221.129 1119.79 221.407C1119.71 221.684 1119.67 222.007 1119.68 222.375L1119.04 221.959C1119.04 221.202 1119.11 220.514 1119.26 219.896C1119.41 219.271 1119.63 218.733 1119.91 218.282C1120.18 217.823 1120.52 217.473 1120.92 217.23C1121.31 216.98 1121.76 216.855 1122.25 216.855C1122.42 216.855 1122.59 216.865 1122.76 216.886C1122.93 216.907 1123.09 216.938 1123.22 216.98ZM1130.7 225.75V212.334H1134.23V228.334H1131.06L1130.7 225.75ZM1123.78 222.834V222.615C1123.78 221.761 1123.88 220.983 1124.06 220.282C1124.25 219.573 1124.53 218.966 1124.9 218.459C1125.26 217.945 1125.72 217.549 1126.27 217.271C1126.82 216.994 1127.45 216.855 1128.17 216.855C1128.81 216.855 1129.36 217.004 1129.84 217.303C1130.32 217.594 1130.73 218.004 1131.07 218.532C1131.41 219.059 1131.69 219.678 1131.91 220.386C1132.12 221.087 1132.28 221.844 1132.4 222.657V222.917C1132.28 223.681 1132.12 224.403 1131.91 225.084C1131.69 225.757 1131.41 226.355 1131.07 226.875C1130.73 227.396 1130.32 227.806 1129.83 228.105C1129.35 228.396 1128.79 228.542 1128.15 228.542C1127.43 228.542 1126.8 228.4 1126.25 228.115C1125.71 227.83 1125.25 227.431 1124.89 226.917C1124.52 226.403 1124.25 225.799 1124.06 225.105C1123.88 224.41 1123.78 223.653 1123.78 222.834ZM1127.29 222.615V222.834C1127.29 223.257 1127.32 223.65 1127.38 224.011C1127.43 224.372 1127.52 224.691 1127.66 224.969C1127.8 225.24 1127.98 225.452 1128.2 225.605C1128.43 225.757 1128.71 225.834 1129.04 225.834C1129.49 225.834 1129.86 225.726 1130.16 225.511C1130.45 225.296 1130.67 224.99 1130.81 224.594C1130.96 224.198 1131.02 223.733 1131 223.198V222.375C1131.01 221.917 1130.98 221.514 1130.91 221.167C1130.83 220.813 1130.71 220.518 1130.54 220.282C1130.38 220.046 1130.18 219.869 1129.93 219.75C1129.68 219.625 1129.4 219.563 1129.06 219.563C1128.74 219.563 1128.46 219.639 1128.23 219.792C1128.01 219.945 1127.83 220.16 1127.69 220.438C1127.55 220.709 1127.45 221.032 1127.39 221.407C1127.32 221.775 1127.29 222.178 1127.29 222.615ZM1142.8 225.594V217.063H1146.32V228.334H1143.03L1142.8 225.594ZM1143.14 223.303L1144.05 223.282C1144.05 224.039 1143.96 224.74 1143.78 225.386C1143.6 226.025 1143.33 226.58 1142.98 227.053C1142.63 227.525 1142.2 227.893 1141.69 228.157C1141.18 228.414 1140.59 228.542 1139.93 228.542C1139.37 228.542 1138.86 228.466 1138.4 228.313C1137.94 228.153 1137.54 227.907 1137.21 227.573C1136.88 227.233 1136.61 226.799 1136.43 226.271C1136.25 225.737 1136.16 225.098 1136.16 224.355V217.063H1139.67V224.375C1139.67 224.625 1139.7 224.841 1139.76 225.021C1139.82 225.202 1139.91 225.355 1140.03 225.48C1140.15 225.598 1140.3 225.688 1140.47 225.75C1140.65 225.806 1140.85 225.834 1141.08 225.834C1141.61 225.834 1142.02 225.723 1142.32 225.5C1142.62 225.278 1142.83 224.976 1142.95 224.594C1143.07 224.212 1143.14 223.782 1143.14 223.303ZM1151.97 217.063V228.334H1148.45V217.063H1151.97ZM1148.24 214.157C1148.24 213.657 1148.42 213.247 1148.78 212.928C1149.14 212.608 1149.61 212.448 1150.19 212.448C1150.76 212.448 1151.23 212.608 1151.59 212.928C1151.95 213.247 1152.14 213.657 1152.14 214.157C1152.14 214.657 1151.95 215.066 1151.59 215.386C1151.23 215.705 1150.76 215.865 1150.19 215.865C1149.61 215.865 1149.14 215.705 1148.78 215.386C1148.42 215.066 1148.24 214.657 1148.24 214.157ZM1157.58 219.469V228.334H1154.07V217.063H1157.36L1157.58 219.469ZM1157.17 222.313L1156.34 222.334C1156.34 221.473 1156.45 220.705 1156.66 220.032C1156.86 219.351 1157.16 218.775 1157.54 218.303C1157.92 217.83 1158.38 217.473 1158.91 217.23C1159.44 216.98 1160.03 216.855 1160.69 216.855C1161.21 216.855 1161.68 216.931 1162.11 217.084C1162.55 217.237 1162.93 217.483 1163.24 217.823C1163.56 218.164 1163.8 218.615 1163.97 219.178C1164.14 219.733 1164.23 220.421 1164.23 221.24V228.334H1160.7V221.23C1160.7 220.778 1160.64 220.434 1160.51 220.198C1160.39 219.955 1160.2 219.789 1159.97 219.698C1159.73 219.608 1159.44 219.563 1159.1 219.563C1158.74 219.563 1158.44 219.632 1158.19 219.771C1157.94 219.91 1157.74 220.105 1157.58 220.355C1157.44 220.598 1157.33 220.886 1157.26 221.219C1157.2 221.553 1157.17 221.917 1157.17 222.313ZM1165.74 222.813V222.594C1165.74 221.768 1165.86 221.007 1166.09 220.313C1166.33 219.612 1166.68 219.004 1167.14 218.49C1167.59 217.976 1168.16 217.577 1168.83 217.292C1169.51 217 1170.28 216.855 1171.17 216.855C1172.06 216.855 1172.84 217 1173.51 217.292C1174.19 217.577 1174.76 217.976 1175.22 218.49C1175.68 219.004 1176.02 219.612 1176.26 220.313C1176.5 221.007 1176.61 221.768 1176.61 222.594V222.813C1176.61 223.632 1176.5 224.393 1176.26 225.094C1176.02 225.789 1175.68 226.396 1175.22 226.917C1174.76 227.431 1174.19 227.83 1173.52 228.115C1172.85 228.4 1172.07 228.542 1171.19 228.542C1170.31 228.542 1169.52 228.4 1168.84 228.115C1168.16 227.83 1167.59 227.431 1167.14 226.917C1166.68 226.396 1166.33 225.789 1166.09 225.094C1165.86 224.393 1165.74 223.632 1165.74 222.813ZM1169.25 222.594V222.813C1169.25 223.237 1169.28 223.632 1169.34 224C1169.41 224.369 1169.51 224.691 1169.66 224.969C1169.8 225.24 1170 225.452 1170.25 225.605C1170.5 225.757 1170.81 225.834 1171.19 225.834C1171.56 225.834 1171.86 225.757 1172.1 225.605C1172.35 225.452 1172.55 225.24 1172.7 224.969C1172.84 224.691 1172.95 224.369 1173.01 224C1173.07 223.632 1173.1 223.237 1173.1 222.813V222.594C1173.1 222.184 1173.07 221.799 1173.01 221.438C1172.95 221.07 1172.84 220.747 1172.7 220.469C1172.55 220.184 1172.35 219.962 1172.1 219.803C1171.85 219.643 1171.54 219.563 1171.17 219.563C1170.8 219.563 1170.49 219.643 1170.24 219.803C1170 219.962 1169.8 220.184 1169.66 220.469C1169.51 220.747 1169.41 221.07 1169.34 221.438C1169.28 221.799 1169.25 222.184 1169.25 222.594Z" fill="white"/>
</svg>
