<svg width="1363" height="167" viewBox="0 0 1363 167" fill="none" xmlns="http://www.w3.org/2000/svg">
<rect width="1363" height="167" rx="15" fill="#F0F0F0"/>
<path d="M0 15C0 6.71573 6.71573 0 15 0H37V167H15C6.71573 167 0 160.284 0 152V15Z" fill="#424241"/>
<path d="M100.906 54.9219L93.3945 52.2383V49.0859L103.602 53.375V55.6367L100.906 54.9219ZM93.3945 57.1719L100.918 54.4297L103.602 53.7852V56.0352L93.3945 60.3242V57.1719ZM118.895 44.9375V62H115.391V44.9375H118.895ZM124.145 44.9375V47.6914H110.223V44.9375H124.145ZM128.492 52.0859V62H125.117V49.3203H128.293L128.492 52.0859ZM132.312 49.2383L132.254 52.3672C132.09 52.3438 131.891 52.3242 131.656 52.3086C131.43 52.2852 131.223 52.2734 131.035 52.2734C130.559 52.2734 130.145 52.3359 129.793 52.4609C129.449 52.5781 129.16 52.7539 128.926 52.9883C128.699 53.2227 128.527 53.5078 128.41 53.8438C128.301 54.1797 128.238 54.5625 128.223 54.9922L127.543 54.7812C127.543 53.9609 127.625 53.207 127.789 52.5195C127.953 51.8242 128.191 51.2188 128.504 50.7031C128.824 50.1875 129.215 49.7891 129.676 49.5078C130.137 49.2266 130.664 49.0859 131.258 49.0859C131.445 49.0859 131.637 49.1016 131.832 49.1328C132.027 49.1562 132.188 49.1914 132.312 49.2383ZM140.352 59.1406V53.4922C140.352 53.0859 140.285 52.7383 140.152 52.4492C140.02 52.1523 139.812 51.9219 139.531 51.7578C139.258 51.5938 138.902 51.5117 138.465 51.5117C138.09 51.5117 137.766 51.5781 137.492 51.7109C137.219 51.8359 137.008 52.0195 136.859 52.2617C136.711 52.4961 136.637 52.7734 136.637 53.0938H133.262C133.262 52.5547 133.387 52.043 133.637 51.5586C133.887 51.0742 134.25 50.6484 134.727 50.2812C135.203 49.9062 135.77 49.6133 136.426 49.4023C137.09 49.1914 137.832 49.0859 138.652 49.0859C139.637 49.0859 140.512 49.25 141.277 49.5781C142.043 49.9062 142.645 50.3984 143.082 51.0547C143.527 51.7109 143.75 52.5312 143.75 53.5156V58.9414C143.75 59.6367 143.793 60.207 143.879 60.6523C143.965 61.0898 144.09 61.4727 144.254 61.8008V62H140.844C140.68 61.6562 140.555 61.2266 140.469 60.7109C140.391 60.1875 140.352 59.6641 140.352 59.1406ZM140.797 54.2773L140.82 56.1875H138.934C138.488 56.1875 138.102 56.2383 137.773 56.3398C137.445 56.4414 137.176 56.5859 136.965 56.7734C136.754 56.9531 136.598 57.1641 136.496 57.4062C136.402 57.6484 136.355 57.9141 136.355 58.2031C136.355 58.4922 136.422 58.7539 136.555 58.9883C136.688 59.2148 136.879 59.3945 137.129 59.5273C137.379 59.6523 137.672 59.7148 138.008 59.7148C138.516 59.7148 138.957 59.6133 139.332 59.4102C139.707 59.207 139.996 58.957 140.199 58.6602C140.41 58.3633 140.52 58.082 140.527 57.8164L141.418 59.2461C141.293 59.5664 141.121 59.8984 140.902 60.2422C140.691 60.5859 140.422 60.9102 140.094 61.2148C139.766 61.5117 139.371 61.7578 138.91 61.9531C138.449 62.1406 137.902 62.2344 137.27 62.2344C136.465 62.2344 135.734 62.0742 135.078 61.7539C134.43 61.4258 133.914 60.9766 133.531 60.4062C133.156 59.8281 132.969 59.1719 132.969 58.4375C132.969 57.7734 133.094 57.1836 133.344 56.668C133.594 56.1523 133.961 55.7188 134.445 55.3672C134.938 55.0078 135.551 54.7383 136.285 54.5586C137.02 54.3711 137.871 54.2773 138.84 54.2773H140.797ZM151.59 59.5977C152.004 59.5977 152.371 59.5195 152.691 59.3633C153.012 59.1992 153.262 58.9727 153.441 58.6836C153.629 58.3867 153.727 58.0391 153.734 57.6406H156.91C156.902 58.5312 156.664 59.3242 156.195 60.0195C155.727 60.707 155.098 61.25 154.309 61.6484C153.52 62.0391 152.637 62.2344 151.66 62.2344C150.676 62.2344 149.816 62.0703 149.082 61.7422C148.355 61.4141 147.75 60.9609 147.266 60.3828C146.781 59.7969 146.418 59.1172 146.176 58.3438C145.934 57.5625 145.812 56.7266 145.812 55.8359V55.4961C145.812 54.5977 145.934 53.7617 146.176 52.9883C146.418 52.207 146.781 51.5273 147.266 50.9492C147.75 50.3633 148.355 49.9062 149.082 49.5781C149.809 49.25 150.66 49.0859 151.637 49.0859C152.676 49.0859 153.586 49.2852 154.367 49.6836C155.156 50.082 155.773 50.6523 156.219 51.3945C156.672 52.1289 156.902 53 156.91 54.0078H153.734C153.727 53.5859 153.637 53.2031 153.465 52.8594C153.301 52.5156 153.059 52.2422 152.738 52.0391C152.426 51.8281 152.039 51.7227 151.578 51.7227C151.086 51.7227 150.684 51.8281 150.371 52.0391C150.059 52.2422 149.816 52.5234 149.645 52.8828C149.473 53.2344 149.352 53.6367 149.281 54.0898C149.219 54.5352 149.188 55.0039 149.188 55.4961V55.8359C149.188 56.3281 149.219 56.8008 149.281 57.2539C149.344 57.707 149.461 58.1094 149.633 58.4609C149.812 58.8125 150.059 59.0898 150.371 59.293C150.684 59.4961 151.09 59.5977 151.59 59.5977ZM162.242 43.9883V62H158.867V43.9883H162.242ZM170.234 49.3203L164.727 55.6016L161.773 58.5898L160.543 56.1523L162.887 53.1758L166.18 49.3203H170.234ZM166.73 62L162.98 56.1406L165.312 54.1016L170.621 62H166.73ZM177.289 62.2344C176.305 62.2344 175.422 62.0781 174.641 61.7656C173.859 61.4453 173.195 61.0039 172.648 60.4414C172.109 59.8789 171.695 59.2266 171.406 58.4844C171.117 57.7344 170.973 56.9375 170.973 56.0938V55.625C170.973 54.6641 171.109 53.7852 171.383 52.9883C171.656 52.1914 172.047 51.5 172.555 50.9141C173.07 50.3281 173.695 49.8789 174.43 49.5664C175.164 49.2461 175.992 49.0859 176.914 49.0859C177.812 49.0859 178.609 49.2344 179.305 49.5312C180 49.8281 180.582 50.25 181.051 50.7969C181.527 51.3438 181.887 52 182.129 52.7656C182.371 53.5234 182.492 54.3672 182.492 55.2969V56.7031H172.414V54.4531H179.176V54.1953C179.176 53.7266 179.09 53.3086 178.918 52.9414C178.754 52.5664 178.504 52.2695 178.168 52.0508C177.832 51.832 177.402 51.7227 176.879 51.7227C176.434 51.7227 176.051 51.8203 175.73 52.0156C175.41 52.2109 175.148 52.4844 174.945 52.8359C174.75 53.1875 174.602 53.6016 174.5 54.0781C174.406 54.5469 174.359 55.0625 174.359 55.625V56.0938C174.359 56.6016 174.43 57.0703 174.57 57.5C174.719 57.9297 174.926 58.3008 175.191 58.6133C175.465 58.9258 175.793 59.168 176.176 59.3398C176.566 59.5117 177.008 59.5977 177.5 59.5977C178.109 59.5977 178.676 59.4805 179.199 59.2461C179.73 59.0039 180.188 58.6406 180.57 58.1562L182.211 59.9375C181.945 60.3203 181.582 60.6875 181.121 61.0391C180.668 61.3906 180.121 61.6797 179.48 61.9062C178.84 62.125 178.109 62.2344 177.289 62.2344ZM187.789 52.0859V62H184.414V49.3203H187.59L187.789 52.0859ZM191.609 49.2383L191.551 52.3672C191.387 52.3438 191.188 52.3242 190.953 52.3086C190.727 52.2852 190.52 52.2734 190.332 52.2734C189.855 52.2734 189.441 52.3359 189.09 52.4609C188.746 52.5781 188.457 52.7539 188.223 52.9883C187.996 53.2227 187.824 53.5078 187.707 53.8438C187.598 54.1797 187.535 54.5625 187.52 54.9922L186.84 54.7812C186.84 53.9609 186.922 53.207 187.086 52.5195C187.25 51.8242 187.488 51.2188 187.801 50.7031C188.121 50.1875 188.512 49.7891 188.973 49.5078C189.434 49.2266 189.961 49.0859 190.555 49.0859C190.742 49.0859 190.934 49.1016 191.129 49.1328C191.324 49.1562 191.484 49.1914 191.609 49.2383Z" fill="#888888"/>
<path d="M115.994 98.708V104.641H99.5806V98.708H115.994ZM102.151 86.0078V118H94.439V86.0078H102.151ZM121.18 86.0078V118H113.489V86.0078H121.18ZM124.805 106.354V105.893C124.805 104.15 125.054 102.546 125.552 101.081C126.05 99.6016 126.783 98.3198 127.75 97.2358C128.716 96.1519 129.91 95.3096 131.331 94.709C132.752 94.0938 134.393 93.7861 136.253 93.7861C138.128 93.7861 139.776 94.0938 141.197 94.709C142.632 95.3096 143.833 96.1519 144.8 97.2358C145.767 98.3198 146.5 99.6016 146.998 101.081C147.496 102.546 147.745 104.15 147.745 105.893V106.354C147.745 108.083 147.496 109.687 146.998 111.167C146.5 112.631 145.767 113.913 144.8 115.012C143.833 116.096 142.64 116.938 141.219 117.539C139.798 118.139 138.157 118.439 136.297 118.439C134.437 118.439 132.789 118.139 131.353 117.539C129.917 116.938 128.716 116.096 127.75 115.012C126.783 113.913 126.05 112.631 125.552 111.167C125.054 109.687 124.805 108.083 124.805 106.354ZM132.21 105.893V106.354C132.21 107.248 132.276 108.083 132.408 108.859C132.54 109.636 132.759 110.317 133.067 110.903C133.375 111.474 133.792 111.921 134.319 112.243C134.847 112.565 135.506 112.727 136.297 112.727C137.073 112.727 137.718 112.565 138.23 112.243C138.758 111.921 139.175 111.474 139.483 110.903C139.791 110.317 140.01 109.636 140.142 108.859C140.274 108.083 140.34 107.248 140.34 106.354V105.893C140.34 105.029 140.274 104.216 140.142 103.454C140.01 102.678 139.791 101.997 139.483 101.411C139.175 100.81 138.758 100.341 138.23 100.004C137.703 99.6675 137.044 99.499 136.253 99.499C135.477 99.499 134.825 99.6675 134.297 100.004C133.785 100.341 133.375 100.81 133.067 101.411C132.759 101.997 132.54 102.678 132.408 103.454C132.276 104.216 132.21 105.029 132.21 105.893ZM158.27 110.925L162.664 94.2256H167.3L165.652 102.597L161.302 118H157.588L158.27 110.925ZM156.534 94.2256L159.258 110.793L159.566 118H155.062L149.437 94.2256H156.534ZM171.211 110.441L173.958 94.2256H181.055L175.474 118H170.97L171.211 110.441ZM167.828 94.2256L172.266 110.881L172.947 118H169.19L164.927 102.641L163.345 94.2256H167.828ZM209.466 86.0078V118H201.753V86.0078H209.466ZM219.09 86.0078V91.9624H192.349V86.0078H219.09ZM216.475 106.354V105.893C216.475 104.15 216.724 102.546 217.222 101.081C217.72 99.6016 218.453 98.3198 219.419 97.2358C220.386 96.1519 221.58 95.3096 223.001 94.709C224.422 94.0938 226.062 93.7861 227.923 93.7861C229.798 93.7861 231.446 94.0938 232.867 94.709C234.302 95.3096 235.503 96.1519 236.47 97.2358C237.437 98.3198 238.169 99.6016 238.667 101.081C239.166 102.546 239.415 104.15 239.415 105.893V106.354C239.415 108.083 239.166 109.687 238.667 111.167C238.169 112.631 237.437 113.913 236.47 115.012C235.503 116.096 234.31 116.938 232.889 117.539C231.468 118.139 229.827 118.439 227.967 118.439C226.106 118.439 224.458 118.139 223.023 117.539C221.587 116.938 220.386 116.096 219.419 115.012C218.453 113.913 217.72 112.631 217.222 111.167C216.724 109.687 216.475 108.083 216.475 106.354ZM223.88 105.893V106.354C223.88 107.248 223.946 108.083 224.078 108.859C224.209 109.636 224.429 110.317 224.737 110.903C225.044 111.474 225.462 111.921 225.989 112.243C226.517 112.565 227.176 112.727 227.967 112.727C228.743 112.727 229.388 112.565 229.9 112.243C230.428 111.921 230.845 111.474 231.153 110.903C231.46 110.317 231.68 109.636 231.812 108.859C231.944 108.083 232.01 107.248 232.01 106.354V105.893C232.01 105.029 231.944 104.216 231.812 103.454C231.68 102.678 231.46 101.997 231.153 101.411C230.845 100.81 230.428 100.341 229.9 100.004C229.373 99.6675 228.714 99.499 227.923 99.499C227.146 99.499 226.495 99.6675 225.967 100.004C225.455 100.341 225.044 100.81 224.737 101.411C224.429 101.997 224.209 102.678 224.078 103.454C223.946 104.216 223.88 105.029 223.88 105.893ZM254.268 86.0078H266.858C269.319 86.0078 271.458 86.374 273.274 87.1064C275.091 87.8389 276.49 88.9229 277.471 90.3584C278.467 91.7939 278.965 93.5664 278.965 95.6758C278.965 97.5068 278.68 99.0376 278.108 100.268C277.537 101.499 276.739 102.517 275.713 103.322C274.703 104.113 273.523 104.765 272.176 105.278L269.649 106.706H259.08L259.036 100.751H266.858C267.84 100.751 268.653 100.576 269.297 100.224C269.942 99.8726 270.425 99.3745 270.748 98.73C271.084 98.0708 271.253 97.2871 271.253 96.3789C271.253 95.4561 271.084 94.665 270.748 94.0059C270.411 93.3467 269.913 92.8413 269.253 92.4897C268.609 92.1382 267.811 91.9624 266.858 91.9624H261.98V118H254.268V86.0078ZM271.78 118L264.705 103.85L272.879 103.806L280.042 117.67V118H271.78ZM297.159 112.221V94.2256H304.585V118H297.642L297.159 112.221ZM297.862 107.387L299.795 107.343C299.795 108.94 299.605 110.419 299.224 111.782C298.843 113.129 298.279 114.301 297.532 115.297C296.8 116.293 295.892 117.07 294.808 117.626C293.738 118.168 292.5 118.439 291.094 118.439C289.922 118.439 288.846 118.278 287.864 117.956C286.897 117.619 286.062 117.099 285.359 116.396C284.656 115.678 284.107 114.763 283.711 113.649C283.331 112.521 283.14 111.174 283.14 109.606V94.2256H290.545V109.65C290.545 110.178 290.611 110.632 290.743 111.013C290.875 111.394 291.065 111.716 291.314 111.979C291.563 112.229 291.871 112.419 292.237 112.551C292.618 112.668 293.05 112.727 293.533 112.727C294.646 112.727 295.518 112.492 296.148 112.023C296.778 111.555 297.217 110.917 297.466 110.112C297.73 109.306 297.862 108.398 297.862 107.387ZM315.945 99.3013V118H308.541V94.2256H315.484L315.945 99.3013ZM315.066 105.3L313.331 105.344C313.331 103.527 313.55 101.909 313.99 100.488C314.429 99.0522 315.052 97.8364 315.857 96.8403C316.663 95.8442 317.623 95.0898 318.736 94.5771C319.864 94.0498 321.116 93.7861 322.493 93.7861C323.592 93.7861 324.595 93.9473 325.503 94.2695C326.426 94.5918 327.217 95.1118 327.876 95.8296C328.55 96.5474 329.063 97.4995 329.415 98.686C329.781 99.8579 329.964 101.308 329.964 103.037V118H322.515V103.015C322.515 102.062 322.383 101.337 322.12 100.839C321.856 100.327 321.475 99.9751 320.977 99.7847C320.479 99.5942 319.871 99.499 319.153 99.499C318.392 99.499 317.747 99.6455 317.22 99.9385C316.692 100.231 316.268 100.642 315.945 101.169C315.638 101.682 315.411 102.29 315.264 102.993C315.132 103.696 315.066 104.465 315.066 105.3ZM345.85 107.871H339.544C339.544 106.582 339.632 105.446 339.808 104.465C339.998 103.469 340.32 102.575 340.774 101.784C341.229 100.993 341.844 100.261 342.62 99.5869C343.309 99.0156 343.902 98.4663 344.4 97.939C344.898 97.4116 345.279 96.877 345.542 96.335C345.806 95.793 345.938 95.2144 345.938 94.5991C345.938 93.8374 345.828 93.2148 345.608 92.7314C345.403 92.248 345.088 91.8892 344.664 91.6548C344.253 91.4058 343.733 91.2812 343.104 91.2812C342.591 91.2812 342.107 91.4058 341.653 91.6548C341.214 91.9038 340.855 92.292 340.577 92.8193C340.298 93.332 340.145 94.0132 340.115 94.8628H332.667C332.71 92.6802 333.194 90.9077 334.117 89.5454C335.054 88.1685 336.299 87.165 337.852 86.5352C339.419 85.8906 341.17 85.5684 343.104 85.5684C345.242 85.5684 347.081 85.8979 348.619 86.5571C350.157 87.2163 351.336 88.1978 352.156 89.5015C352.977 90.7905 353.387 92.3799 353.387 94.2695C353.387 95.5293 353.145 96.6279 352.662 97.5654C352.193 98.4883 351.556 99.3525 350.75 100.158C349.959 100.949 349.073 101.799 348.091 102.707C347.242 103.454 346.663 104.216 346.355 104.992C346.048 105.754 345.879 106.713 345.85 107.871ZM338.643 114.55C338.643 113.496 339.024 112.617 339.786 111.914C340.547 111.196 341.536 110.837 342.752 110.837C343.968 110.837 344.957 111.196 345.718 111.914C346.48 112.617 346.861 113.496 346.861 114.55C346.861 115.605 346.48 116.491 345.718 117.209C344.957 117.912 343.968 118.264 342.752 118.264C341.536 118.264 340.547 117.912 339.786 117.209C339.024 116.491 338.643 115.605 338.643 114.55Z" fill="#424241"/>
<path d="M1363 15C1363 6.71573 1356.28 0 1348 0H1134V167H1348C1356.28 167 1363 160.284 1363 152V15Z" fill="#032955"/>
<path d="M1260.77 81.3079C1263.96 81.3079 1267.09 82.2553 1269.74 84.0303C1272.4 85.8053 1274.47 88.3282 1275.69 91.2799C1276.92 94.2316 1277.24 97.4796 1276.61 100.613C1275.99 103.747 1274.45 106.625 1272.19 108.884C1269.93 111.143 1267.05 112.682 1263.92 113.305C1260.79 113.928 1257.54 113.608 1254.59 112.386C1251.64 111.163 1249.11 109.093 1247.34 106.436C1245.56 103.78 1244.62 100.657 1244.62 97.4617C1244.62 93.1774 1246.32 89.0686 1249.35 86.0392C1252.38 83.0098 1256.48 81.3079 1260.77 81.3079ZM1260.77 75.9233C1256.51 75.9233 1252.35 77.1865 1248.8 79.5532C1245.26 81.9198 1242.5 85.2837 1240.87 89.2193C1239.24 93.1549 1238.81 97.4856 1239.64 101.664C1240.48 105.842 1242.53 109.679 1245.54 112.692C1248.55 115.704 1252.39 117.755 1256.57 118.586C1260.75 119.417 1265.08 118.991 1269.01 117.361C1272.95 115.73 1276.31 112.97 1278.68 109.428C1281.04 105.886 1282.31 101.722 1282.31 97.4617C1282.31 91.7493 1280.04 86.271 1276 82.2317C1271.96 78.1925 1266.48 75.9233 1260.77 75.9233Z" fill="white"/>
<path d="M1274.23 49H1220.38C1218.96 49 1217.59 49.5673 1216.58 50.5771C1215.57 51.5869 1215 52.9565 1215 54.3846V108.231C1215 109.659 1215.57 111.028 1216.58 112.038C1217.59 113.048 1218.96 113.615 1220.38 113.615H1231.15V108.231H1220.38V70.5384H1279.62V54.3846C1279.62 52.9565 1279.05 51.5869 1278.04 50.5771C1277.03 49.5673 1275.66 49 1274.23 49ZM1220.38 65.1538V54.3846H1274.23V65.1538H1220.38Z" fill="white"/>
<path d="M1255.38 89.3849V105.539L1268.85 97.4618L1255.38 89.3849Z" fill="white"/>
</svg>
